<svg width="120" height="120" viewBox="0 0 120 120" fill="none" xmlns="http://www.w3.org/2000/svg">
<circle cx="60" cy="60" r="59" stroke="#246CAD" stroke-width="2"/>
<path d="M20.4688 51C20.2288 51 20.0128 50.916 19.8208 50.748C19.6528 50.556 19.5688 50.34 19.5688 50.1V26.7C19.5688 26.436 19.6528 26.22 19.8208 26.052C20.0128 25.884 20.2288 25.8 20.4688 25.8H29.8288C33.3568 25.8 36.0928 26.64 38.0368 28.32C39.9808 30 41.0008 32.436 41.0968 35.628C41.1208 36.324 41.1328 37.248 41.1328 38.4C41.1328 39.552 41.1208 40.464 41.0968 41.136C40.9768 44.472 39.9808 46.956 38.1088 48.588C36.2608 50.196 33.5608 51 30.0088 51H20.4688ZM29.8288 45.816C31.4128 45.816 32.5768 45.444 33.3208 44.7C34.0648 43.932 34.4608 42.72 34.5088 41.064C34.5568 40.368 34.5808 39.468 34.5808 38.364C34.5808 37.26 34.5568 36.372 34.5088 35.7C34.4608 34.092 34.0288 32.904 33.2128 32.136C32.4208 31.368 31.2328 30.984 29.6488 30.984H26.0488V45.816H29.8288ZM50.5584 51.36C49.2864 51.36 48.1224 51.12 47.0664 50.64C46.0344 50.136 45.2184 49.464 44.6184 48.624C44.0424 47.76 43.7544 46.812 43.7544 45.78C43.7544 44.124 44.4264 42.792 45.7704 41.784C47.1384 40.776 49.0104 40.08 51.3864 39.696L55.8864 39.012V38.508C55.8864 37.596 55.6944 36.924 55.3104 36.492C54.9264 36.06 54.2784 35.844 53.3664 35.844C52.8144 35.844 52.3584 35.94 51.9984 36.132C51.6384 36.324 51.2664 36.588 50.8824 36.924C50.5464 37.212 50.2944 37.404 50.1264 37.5C50.0544 37.692 49.9224 37.788 49.7304 37.788H45.8064C45.5664 37.788 45.3624 37.716 45.1944 37.572C45.0504 37.404 44.9904 37.212 45.0144 36.996C45.0384 36.348 45.3504 35.628 45.9504 34.836C46.5744 34.044 47.5104 33.36 48.7584 32.784C50.0304 32.208 51.5904 31.92 53.4384 31.92C56.3904 31.92 58.5744 32.58 59.9904 33.9C61.4064 35.196 62.1144 36.948 62.1144 39.156V50.1C62.1144 50.34 62.0304 50.556 61.8624 50.748C61.6944 50.916 61.4784 51 61.2144 51H57.0384C56.7984 51 56.5824 50.916 56.3904 50.748C56.2224 50.556 56.1384 50.34 56.1384 50.1V48.84C55.6104 49.584 54.8664 50.196 53.9064 50.676C52.9704 51.132 51.8544 51.36 50.5584 51.36ZM52.2504 47.256C53.3544 47.256 54.2424 46.896 54.9144 46.176C55.6104 45.456 55.9584 44.4 55.9584 43.008V42.504L52.8984 43.044C50.7384 43.428 49.6584 44.184 49.6584 45.312C49.6584 45.912 49.9104 46.392 50.4144 46.752C50.9184 47.088 51.5304 47.256 52.2504 47.256ZM75.6121 51C70.6441 51 68.1601 48.636 68.1601 43.908V36.996H65.3521C65.0881 36.996 64.8601 36.912 64.6681 36.744C64.5001 36.576 64.4161 36.36 64.4161 36.096V33.18C64.4161 32.916 64.5001 32.7 64.6681 32.532C64.8601 32.364 65.0881 32.28 65.3521 32.28H68.1601V26.34C68.1601 26.076 68.2441 25.86 68.4121 25.692C68.6041 25.524 68.8201 25.44 69.0601 25.44H73.2361C73.5001 25.44 73.7161 25.524 73.8841 25.692C74.0521 25.86 74.1361 26.076 74.1361 26.34V32.28H78.6361C78.9001 32.28 79.1161 32.364 79.2841 32.532C79.4761 32.7 79.5721 32.916 79.5721 33.18V36.096C79.5721 36.36 79.4761 36.576 79.2841 36.744C79.1161 36.912 78.9001 36.996 78.6361 36.996H74.1361V43.404C74.1361 45.18 74.8201 46.068 76.1881 46.068H78.9601C79.2241 46.068 79.4401 46.152 79.6081 46.32C79.7761 46.488 79.8601 46.704 79.8601 46.968V50.1C79.8601 50.34 79.7761 50.556 79.6081 50.748C79.4401 50.916 79.2241 51 78.9601 51H75.6121ZM88.4568 51.36C87.1848 51.36 86.0208 51.12 84.9648 50.64C83.9328 50.136 83.1168 49.464 82.5168 48.624C81.9408 47.76 81.6528 46.812 81.6528 45.78C81.6528 44.124 82.3248 42.792 83.6688 41.784C85.0368 40.776 86.9088 40.08 89.2848 39.696L93.7848 39.012V38.508C93.7848 37.596 93.5928 36.924 93.2088 36.492C92.8248 36.06 92.1768 35.844 91.2648 35.844C90.7128 35.844 90.2568 35.94 89.8968 36.132C89.5368 36.324 89.1648 36.588 88.7808 36.924C88.4448 37.212 88.1928 37.404 88.0248 37.5C87.9528 37.692 87.8208 37.788 87.6288 37.788H83.7048C83.4648 37.788 83.2608 37.716 83.0928 37.572C82.9488 37.404 82.8888 37.212 82.9128 36.996C82.9368 36.348 83.2488 35.628 83.8488 34.836C84.4728 34.044 85.4088 33.36 86.6568 32.784C87.9288 32.208 89.4888 31.92 91.3368 31.92C94.2888 31.92 96.4728 32.58 97.8888 33.9C99.3048 35.196 100.013 36.948 100.013 39.156V50.1C100.013 50.34 99.9288 50.556 99.7608 50.748C99.5928 50.916 99.3768 51 99.1128 51H94.9368C94.6968 51 94.4808 50.916 94.2888 50.748C94.1208 50.556 94.0368 50.34 94.0368 50.1V48.84C93.5088 49.584 92.7648 50.196 91.8048 50.676C90.8688 51.132 89.7528 51.36 88.4568 51.36ZM90.1488 47.256C91.2528 47.256 92.1408 46.896 92.8128 46.176C93.5088 45.456 93.8568 44.4 93.8568 43.008V42.504L90.7968 43.044C88.6368 43.428 87.5568 44.184 87.5568 45.312C87.5568 45.912 87.8088 46.392 88.3128 46.752C88.8168 47.088 89.4288 47.256 90.1488 47.256Z" fill="#1D1D1D"/>
<path d="M32.3618 94.36C28.9298 94.36 26.2418 93.532 24.2978 91.876C22.3778 90.196 21.3578 87.772 21.2378 84.604C21.2138 83.956 21.2018 82.9 21.2018 81.436C21.2018 79.948 21.2138 78.868 21.2378 78.196C21.3578 75.076 22.4018 72.676 24.3698 70.996C26.3378 69.292 29.0018 68.44 32.3618 68.44C34.4738 68.44 36.3698 68.8 38.0498 69.52C39.7298 70.216 41.0498 71.224 42.0098 72.544C42.9938 73.84 43.4978 75.364 43.5218 77.116V77.188C43.5218 77.38 43.4378 77.548 43.2698 77.692C43.1258 77.812 42.9578 77.872 42.7658 77.872H37.9058C37.5938 77.872 37.3538 77.812 37.1858 77.692C37.0178 77.548 36.8738 77.296 36.7538 76.936C36.4178 75.712 35.8898 74.86 35.1698 74.38C34.4498 73.876 33.5018 73.624 32.3258 73.624C29.4938 73.624 28.0298 75.208 27.9338 78.376C27.9098 79.024 27.8978 80.02 27.8978 81.364C27.8978 82.708 27.9098 83.728 27.9338 84.424C28.0298 87.592 29.4938 89.176 32.3258 89.176C33.5018 89.176 34.4618 88.924 35.2058 88.42C35.9498 87.892 36.4658 87.04 36.7538 85.864C36.8498 85.504 36.9818 85.264 37.1498 85.144C37.3178 85 37.5698 84.928 37.9058 84.928H42.7658C42.9818 84.928 43.1618 85 43.3058 85.144C43.4738 85.288 43.5458 85.468 43.5218 85.684C43.4978 87.436 42.9938 88.972 42.0098 90.292C41.0498 91.588 39.7298 92.596 38.0498 93.316C36.3698 94.012 34.4738 94.36 32.3618 94.36ZM48.2071 94C47.9671 94 47.7511 93.916 47.5591 93.748C47.3911 93.556 47.3071 93.34 47.3071 93.1V69.7C47.3071 69.436 47.3911 69.22 47.5591 69.052C47.7511 68.884 47.9671 68.8 48.2071 68.8H57.9991C61.1431 68.8 63.5911 69.52 65.3431 70.96C67.1191 72.376 68.0071 74.392 68.0071 77.008C68.0071 78.688 67.6111 80.116 66.8191 81.292C66.0271 82.468 64.9351 83.368 63.5431 83.992L68.4751 92.848C68.5471 92.992 68.5831 93.124 68.5831 93.244C68.5831 93.436 68.4991 93.616 68.3311 93.784C68.1871 93.928 68.0191 94 67.8271 94H63.0391C62.3431 94 61.8511 93.676 61.5631 93.028L57.4591 85.108H53.7871V93.1C53.7871 93.364 53.6911 93.58 53.4991 93.748C53.3311 93.916 53.1151 94 52.8511 94H48.2071ZM57.9271 79.996C59.0311 79.996 59.8711 79.732 60.4471 79.204C61.0231 78.652 61.3111 77.896 61.3111 76.936C61.3111 75.976 61.0231 75.22 60.4471 74.668C59.8951 74.092 59.0551 73.804 57.9271 73.804H53.7871V79.996H57.9271ZM73.0977 94C72.8577 94 72.6417 93.916 72.4497 93.748C72.2817 93.556 72.1977 93.34 72.1977 93.1V69.7C72.1977 69.436 72.2817 69.22 72.4497 69.052C72.6417 68.884 72.8577 68.8 73.0977 68.8H76.9857C77.5617 68.8 77.9817 69.064 78.2457 69.592L84.5817 80.932L90.9177 69.592C91.1817 69.064 91.6017 68.8 92.1777 68.8H96.0297C96.2937 68.8 96.5097 68.884 96.6777 69.052C96.8697 69.22 96.9657 69.436 96.9657 69.7V93.1C96.9657 93.364 96.8697 93.58 96.6777 93.748C96.5097 93.916 96.2937 94 96.0297 94H91.7457C91.4817 94 91.2537 93.916 91.0617 93.748C90.8937 93.58 90.8097 93.364 90.8097 93.1V79.6L86.7777 87.124C86.4657 87.676 86.0457 87.952 85.5177 87.952H83.6457C83.3337 87.952 83.0817 87.88 82.8897 87.736C82.6977 87.592 82.5297 87.388 82.3857 87.124L78.3177 79.6V93.1C78.3177 93.34 78.2337 93.556 78.0657 93.748C77.8977 93.916 77.6817 94 77.4177 94H73.0977Z" fill="#246CAD"/>
</svg>
