<svg width="52" height="52" viewBox="0 0 52 52" fill="none" xmlns="http://www.w3.org/2000/svg">
<circle opacity="0.3" cx="26" cy="26" r="26" fill="#246CAD"/>
<g clip-path="url(#clip0)">
<path d="M40.049 30.5964C38.8498 29.3971 36.8983 29.3971 35.699 30.5965L32.5516 33.744C32.1137 32.5781 30.9878 31.7461 29.6709 31.7461H26.3432C25.871 31.7461 25.6624 31.4875 25.1841 31.0667C23.6929 29.7544 21.703 29.1149 19.7252 29.3132C17.8899 29.4969 16.2388 30.3551 15.0233 31.7461H11.0771C10.5109 31.7461 10.0518 32.2052 10.0518 32.7715V40.9746C10.0518 41.5409 10.5109 42 11.0771 42C11.9393 42 30.857 42 31.7217 42C32.5432 42 33.3156 41.6799 33.8967 41.0988L40.049 34.9465C41.2483 33.7472 41.2483 31.7957 40.049 30.5964ZM14.29 39.9492H12.1025V33.7969H14.29V39.9492ZM38.5989 33.4964L32.4466 39.6487C32.2556 39.8397 31.9914 39.9492 31.7217 39.9492C31.385 39.9492 16.6704 39.9492 16.3408 39.9492V33.3734C17.2296 32.2137 18.5028 31.4965 19.9294 31.3537C21.3424 31.2124 22.7642 31.6688 23.8294 32.6062C24.349 33.0635 25.0363 33.7969 26.3432 33.7969H29.6709C30.2363 33.7969 30.6963 34.2569 30.6963 34.8223C30.6963 35.3877 30.2363 35.8477 29.6709 35.8477H25.4819C24.4978 35.8477 23.566 36.3237 22.9893 37.1211C22.6574 37.58 22.7604 38.221 23.2193 38.5528C23.678 38.8847 24.3191 38.7818 24.6511 38.3229C24.8433 38.0571 25.1539 37.8984 25.4819 37.8984C26.5785 37.8984 29.7578 37.8984 30.8725 37.8984C31.1445 37.8984 31.4052 37.7904 31.5975 37.5981L37.1491 32.0465C37.5488 31.6468 38.1991 31.6468 38.5989 32.0465C38.9987 32.4463 38.9987 33.0967 38.5989 33.4964Z" fill="#0B487E"/>
<path d="M41.9756 25.5938H40.9159C40.451 18.4472 35.1387 12.618 28.3642 11.359C28.5443 10.9683 28.6455 10.5339 28.6455 10.0762C28.6455 8.37997 27.2655 7 25.5693 7C23.8731 7 22.4932 8.37997 22.4932 10.0762C22.4932 10.5334 22.5942 10.9672 22.7738 11.3576C16.0008 12.608 10.5621 18.4214 10.0867 25.5938H9.02637C8.46008 25.5938 8.00098 26.0529 8.00098 26.6191C8.00098 27.1854 8.46008 27.6445 9.02637 27.6445H41.9756C42.5419 27.6445 43.001 27.1854 43.001 26.6191C43.001 26.0529 42.5419 25.5938 41.9756 25.5938ZM25.5693 9.05078C26.1347 9.05078 26.5947 9.51077 26.5947 10.0762C26.5947 10.6416 26.1347 11.1016 25.5693 11.1016C25.0039 11.1016 24.5439 10.6416 24.5439 10.0762C24.5439 9.51077 25.0039 9.05078 25.5693 9.05078ZM12.1433 25.5938C12.6872 18.751 18.614 13.1387 25.5693 13.1387C32.5782 13.1387 38.3408 18.6453 38.8611 25.5938H12.1433Z" fill="#0B487E"/>
</g>
<defs>
<clipPath id="clip0">
<rect width="35" height="35" fill="white" transform="translate(8.00098 7)"/>
</clipPath>
</defs>
</svg>
