<svg width="72" height="72" viewBox="0 0 72 72" fill="none" xmlns="http://www.w3.org/2000/svg">
<circle opacity="0.3" cx="36" cy="36" r="36" fill="#246CAD"/>
<g clip-path="url(#clip0)">
<path d="M20.576 19.3992H17.6076C16.8049 19.3992 16.1543 18.7486 16.1543 17.946C16.1543 17.1433 16.8049 16.4927 17.6076 16.4927H20.576C21.3786 16.4927 22.0292 17.1433 22.0292 17.946C22.0292 18.7486 21.3786 19.3992 20.576 19.3992Z" fill="#FDFEFF"/>
<path d="M20.576 26.6207H17.6076C16.8049 26.6207 16.1543 25.9701 16.1543 25.1674C16.1543 24.3647 16.8049 23.7141 17.6076 23.7141H20.576C21.3786 23.7141 22.0292 24.3647 22.0292 25.1674C22.0292 25.9701 21.3786 26.6207 20.576 26.6207Z" fill="#FDFEFF"/>
<path d="M20.576 33.8425H17.6076C16.8049 33.8425 16.1543 33.1919 16.1543 32.3892C16.1543 31.5865 16.8049 30.9359 17.6076 30.9359H20.576C21.3786 30.9359 22.0292 31.5865 22.0292 32.3892C22.0292 33.1919 21.3786 33.8425 20.576 33.8425Z" fill="#FDFEFF"/>
<path d="M20.576 41.0639H17.6076C16.8049 41.0639 16.1543 40.4133 16.1543 39.6106C16.1543 38.8079 16.8049 38.1573 17.6076 38.1573H20.576C21.3786 38.1573 22.0292 38.8079 22.0292 39.6106C22.0292 40.4133 21.3786 41.0639 20.576 41.0639Z" fill="#FDFEFF"/>
<path d="M20.576 48.2854H17.6076C16.8049 48.2854 16.1543 47.6348 16.1543 46.8321C16.1543 46.0297 16.8049 45.3792 17.6076 45.3792H20.576C21.3786 45.3792 22.0292 46.0297 22.0292 46.8321C22.0292 47.6348 21.3786 48.2854 20.576 48.2854Z" fill="#FDFEFF"/>
<path d="M20.576 55.5073H17.6076C16.8049 55.5073 16.1543 54.8567 16.1543 54.054C16.1543 53.2513 16.8049 52.6007 17.6076 52.6007H20.576C21.3786 52.6007 22.0292 53.2513 22.0292 54.054C22.0292 54.8567 21.3786 55.5073 20.576 55.5073Z" fill="#FDFEFF"/>
<path d="M52.5561 58.5H19.9992C19.4117 58.5 18.9355 58.0238 18.9355 57.4367V14.5633C18.9359 13.9762 19.4117 13.5 19.9992 13.5H52.5558C53.1432 13.5 53.6194 13.9762 53.6194 14.5633V57.4367C53.6194 58.0238 53.1432 58.5 52.5561 58.5Z" fill="#0B487E"/>
<path d="M52.5559 13.5H48.333V58.5H52.5559C53.143 58.5 53.6191 58.0238 53.6191 57.4367V14.5633C53.6191 13.9762 53.143 13.5 52.5559 13.5V13.5Z" fill="#1C4161"/>
<path d="M37.5392 23.5412H35.0168L34.7641 21.1284C34.7157 20.6659 35.0786 20.2632 35.5434 20.2632H37.0122C37.4774 20.2632 37.8399 20.6659 37.7915 21.1284L37.5392 23.5412Z" fill="white"/>
<path d="M45.9234 33.4131H26.6328V32.5936C26.6328 27.2669 30.9511 22.9482 36.2781 22.9482C41.6051 22.9482 45.9234 27.2669 45.9234 32.5936V33.4131Z" fill="#E2E2E2"/>
<path d="M36.2777 22.9482C35.3613 22.9482 34.4745 23.0763 33.6348 23.3149C37.6767 24.464 40.6368 28.1832 40.6368 32.5936V33.4131H45.923V32.5936C45.923 27.2669 41.6047 22.9482 36.2777 22.9482Z" fill="#C9C9C9"/>
<path d="M47.2621 32.7136H25.2939C25.0825 32.7136 24.9111 32.8849 24.9111 33.0964V34.515C24.9111 34.7265 25.0825 34.8978 25.2939 34.8978H47.2621C47.4736 34.8978 47.6449 34.7265 47.6449 34.515V33.0964C47.6449 32.8849 47.4736 32.7136 47.2621 32.7136Z" fill="#FDFEFF"/>
<path d="M27.7619 47.2956C27.6723 47.4584 27.534 47.5075 27.4035 47.5075C27.2734 47.5075 27.1429 47.4584 27.0536 47.2956L26.1171 45.5371V49.1032C26.1171 49.323 25.8486 49.437 25.588 49.437C25.3192 49.437 25.0586 49.323 25.0586 49.1032V44.0145C25.0586 43.6235 25.3192 43.4851 25.588 43.4851C25.9705 43.4851 26.1414 43.5665 26.4103 44.0471L27.4117 45.8709L28.4132 44.0471C28.6817 43.5668 28.8609 43.4851 29.2437 43.4851C29.5122 43.4851 29.7728 43.6235 29.7728 44.0145V49.1032C29.7728 49.323 29.5043 49.437 29.2437 49.437C28.9749 49.437 28.7143 49.323 28.7143 49.1032V45.602L27.7619 47.2956Z" fill="white"/>
<path d="M32.7196 46.0418H33.9573C34.1691 46.0418 34.291 46.2454 34.291 46.4651C34.291 46.6523 34.1852 46.8723 33.9573 46.8723H32.7196V48.5086H35.024C35.2355 48.5086 35.3577 48.7287 35.3577 48.981C35.3577 49.2007 35.2519 49.437 35.024 49.437H32.1253C31.8891 49.437 31.6611 49.323 31.6611 49.1032V43.8188C31.6611 43.5991 31.8891 43.4851 32.1253 43.4851H35.024C35.2519 43.4851 35.3577 43.7213 35.3577 43.941C35.3577 44.1934 35.2355 44.4131 35.024 44.4131H32.7196V46.0418Z" fill="white"/>
<path d="M39.6971 49.1032L37.9465 45.83V49.1032C37.9465 49.323 37.6777 49.437 37.4171 49.437C37.1483 49.437 36.8877 49.323 36.8877 49.1032V43.8192C36.8877 43.5909 37.1483 43.4851 37.4171 43.4851C37.7999 43.4851 37.9544 43.5665 38.2071 44.0471L39.7785 47.0842V43.8109C39.7785 43.583 40.0391 43.4851 40.3075 43.4851C40.5681 43.4851 40.8369 43.583 40.8369 43.8109V49.1032C40.8369 49.323 40.5681 49.437 40.3075 49.437C40.0552 49.437 39.8355 49.3556 39.6971 49.1032Z" fill="white"/>
<path d="M45.5517 43.8109C45.5517 43.583 45.8123 43.4851 46.0811 43.4851C46.3417 43.4851 46.6102 43.583 46.6102 43.8109V47.6215C46.6102 48.981 45.7471 49.4857 44.656 49.4857C43.557 49.4857 42.7021 48.981 42.7021 47.6215V43.8109C42.7021 43.583 42.9627 43.4851 43.2312 43.4851C43.4918 43.4851 43.7606 43.583 43.7606 43.8109V47.6215C43.7606 48.2563 44.0943 48.5577 44.6563 48.5577C45.218 48.5577 45.5521 48.2563 45.5521 47.6215V43.8109H45.5517Z" fill="white"/>
<path d="M47.6451 40.5507H24.9113C24.5313 40.5507 24.2236 40.8583 24.2236 41.238C24.2236 41.6177 24.5316 41.9257 24.9113 41.9257H47.6451C48.0248 41.9257 48.3324 41.6177 48.3324 41.238C48.3324 40.8583 48.0248 40.5507 47.6451 40.5507Z" fill="#EFA335"/>
<path d="M47.6451 51.0492H24.9113C24.5313 51.0492 24.2236 51.3572 24.2236 51.7369C24.2236 52.1162 24.5316 52.4242 24.9113 52.4242H47.6451C48.0248 52.4242 48.3324 52.1162 48.3324 51.7369C48.3324 51.3572 48.0248 51.0492 47.6451 51.0492Z" fill="#EFA335"/>
</g>
<defs>
<clipPath id="clip0">
<rect width="45" height="45" fill="white" transform="translate(12.375 13.5)"/>
</clipPath>
</defs>
</svg>
