<svg width="359" height="304" viewBox="0 0 359 304" fill="none" xmlns="http://www.w3.org/2000/svg">
<path d="M352.495 173.147C334.338 231.139 214.899 304 121.923 304C31.3119 292.6 -13.1749 232.626 3.41981 162.243C22.2352 82.4423 138.045 0.65918 231.021 0.65918C323.997 0.65918 378.545 89.9407 352.495 173.147Z" fill="#F0F0F0"/>
<path d="M277.371 80.4553V140.925L261.398 173.183L260.893 174.204L218.618 171.408L202.367 170.328L164.647 167.839V95.5034L202.367 96.5641L219.232 97.0399L261.903 98.2493L277.371 80.4553Z" fill="#D40241"/>
<path opacity="0.1" d="M277.372 84.0237V140.925L273.46 148.806L269.469 156.885L261.398 173.182L262.3 112.712L262.478 100.509L270.152 92.0137L273.5 88.3062L277.372 84.0237Z" fill="black"/>
<path d="M279.529 64.396V85.5208L277.37 88.9805L273.488 95.1564L270.062 100.628L262.477 112.722L262.298 112.712L161.319 107.508V86.6807L161.577 86.4031L173.629 73.3376L177.996 68.6091L185.888 60.064L279.529 64.396Z" fill="#D40241"/>
<path opacity="0.1" d="M262.477 91.8848V112.722L161.319 107.508V86.6804L161.577 86.4028L262.477 91.8848Z" fill="black"/>
<path opacity="0.15" d="M279.529 64.3955V85.5203L262.477 112.722V91.8846L279.529 64.3955Z" fill="black"/>
<path d="M273.509 74.1206L273.499 88.3062L273.489 95.1562L273.459 148.806L269.468 156.885L270.063 100.628L270.152 92.0138L270.29 79.3051L173.629 73.3374L177.996 68.6089L273.509 74.1206Z" fill="#3F3D56"/>
<path d="M203.764 75.806C199.849 77.1147 195.64 77.2627 191.643 76.2323C190.866 76.0798 190.138 75.7395 189.523 75.241C188.859 74.5058 188.404 73.6053 188.206 72.6338C187.499 70.6281 187.109 68.5245 187.048 66.3985C187.024 65.3327 187.245 64.2758 187.695 63.3096C188.145 62.3435 188.811 61.494 189.642 60.8273C189.997 60.6139 190.329 60.3648 190.632 60.0838C190.991 59.6269 191.251 59.1003 191.395 58.5374C192.583 54.9984 194.871 51.2711 198.555 50.6961C201.951 50.1807 205.041 52.5499 207.665 54.7803L213.409 59.6774C214.045 57.9602 215.185 56.4759 216.68 55.4199C218.175 54.3638 219.954 53.7854 221.783 53.7607C223.612 53.736 225.406 54.2662 226.929 55.2816C228.451 56.297 229.631 57.75 230.313 59.4494C233.79 55.5198 238.176 52.5041 243.088 50.6664C243.604 50.3999 244.172 50.2503 244.752 50.228C245.332 50.2057 245.91 50.3114 246.445 50.5375C247.063 50.9853 247.529 51.6113 247.782 52.3318C249.348 55.758 250.197 59.469 250.277 63.2362C250.679 63.0986 251.115 63.0989 251.517 63.2371C251.919 63.3754 252.263 63.6436 252.495 63.9995C252.938 64.7247 253.19 65.5498 253.228 66.3985C253.383 67.7145 253.459 69.0386 253.456 70.3637C253.604 71.7611 253.253 73.1658 252.466 74.3289C251.297 75.697 249.267 75.8357 247.514 75.8754C248.386 76.6486 247.96 78.205 246.999 78.8493C245.972 79.4012 244.802 79.6293 243.642 79.5036C239.176 79.5036 234.423 79.3351 230.699 76.8568C229.234 75.8655 228.006 74.5669 226.53 73.5855C222.926 71.1964 218.39 71.0874 214.221 71.2856C210.339 71.474 207.348 74.5966 203.764 75.806Z" fill="#3F3D56"/>
<path d="M202.941 74.8246C202.941 74.8246 165.657 80.029 160.448 102.581L168.262 101.431L173.748 111.265C173.748 111.265 179.531 89.2779 196.584 84.0636C213.636 78.8493 219.707 77.9968 219.707 77.9968C219.707 77.9968 231.59 80.8816 242.245 115.32L248.316 106.923L259.011 109.243C259.011 109.243 251.207 82.3288 230.105 74.8147L202.941 74.8246Z" fill="#3F3D56"/>
<path d="M225.262 104.107V185.791L203.693 229.35V229.36L203.01 230.737L145.901 226.961L123.946 225.503L72.9961 222.133V124.429L123.946 125.867L146.732 126.511L204.377 128.137L225.262 104.107Z" fill="#246CAD"/>
<path opacity="0.1" d="M225.262 108.926V185.792L219.993 196.428V196.438L214.586 207.343L203.693 229.35L204.911 147.666L205.159 131.19L215.517 119.721V119.711L220.033 114.715L225.262 108.926Z" fill="black"/>
<path d="M228.194 82.408V110.948L225.262 115.617L220.034 123.954L215.399 131.349L205.16 147.686L204.912 147.666L68.5107 140.647V112.504L68.8475 112.137L85.1376 94.492L91.0297 88.0981L101.695 76.5493L228.194 82.408Z" fill="#246CAD"/>
<path opacity="0.1" d="M205.16 119.543V147.686L68.5107 140.648V112.504L68.8475 112.137L205.16 119.543Z" fill="black"/>
<path opacity="0.15" d="M228.193 82.4082V110.948L205.159 147.686V119.543L228.193 82.4082Z" fill="black"/>
<path d="M220.054 95.5429L220.034 114.715V123.954L219.994 196.429V196.438L214.587 207.343L215.399 131.349L215.518 119.721V119.711L215.706 102.542L85.1377 94.4921L91.0298 88.0981L220.054 95.5429Z" fill="#3F3D56"/>
<path d="M125.838 97.8223C120.551 99.5859 114.867 99.7856 109.469 98.3973C108.42 98.1962 107.438 97.74 106.607 97.0689C105.707 96.0777 105.092 94.862 104.824 93.5498C103.869 90.8359 103.341 87.9899 103.26 85.1137C103.329 82.2488 104.418 79.2551 106.765 77.5996C107.236 77.3093 107.68 76.9775 108.092 76.6083C108.567 75.9891 108.904 75.2761 109.083 74.5166C110.677 69.7385 113.777 64.6927 118.758 63.9294C123.343 63.2256 127.522 66.4275 131.057 69.4411L138.811 76.0531C139.674 73.7371 141.216 71.7362 143.234 70.3128C145.253 68.8894 147.655 68.1099 150.124 68.0767C152.593 68.0435 155.014 68.758 157.071 70.1265C159.127 71.4951 160.722 73.4538 161.647 75.7458C166.342 70.4273 172.269 66.3428 178.907 63.8501C180.383 63.2949 182.106 62.8588 183.453 63.6717C184.281 64.2803 184.908 65.1226 185.255 66.0905C187.367 70.7204 188.512 75.7329 188.622 80.8214C189.157 80.6367 189.738 80.6337 190.275 80.8129C190.812 80.9921 191.275 81.3435 191.593 81.8127C192.191 82.7957 192.532 83.9141 192.583 85.0642C192.793 86.8375 192.898 88.6216 192.9 90.4073C192.9 92.2908 192.722 94.3725 191.494 95.7604C189.909 97.6042 187.166 97.8025 184.74 97.8619C185.909 98.9028 185.334 100.995 184.037 101.877C182.649 102.624 181.068 102.931 179.502 102.759C173.461 102.7 167.044 102.531 162.023 99.1705C160.042 97.852 158.379 96.0875 156.388 94.7691C151.516 91.5374 145.396 91.3887 139.752 91.6564C134.721 91.9637 130.681 96.1966 125.838 97.8223Z" fill="#3F3D56"/>
<path d="M124.729 96.4844C124.729 96.4844 74.3636 103.523 67.293 134.005L77.8395 132.439L85.2567 145.733C85.2567 145.733 93.07 115.993 116.104 108.995C139.138 101.996 147.337 100.787 147.337 100.787C147.337 100.787 163.34 104.692 177.789 151.205L185.988 139.864L200.476 142.997C200.476 142.997 189.929 106.645 161.429 96.4844H124.729Z" fill="#3F3D56"/>
<path d="M307 144.682V195.239L293.651 222.202L293.225 223.055L257.882 220.715L244.295 219.813L212.765 217.732V157.262L244.295 158.144L258.397 158.54L294.077 159.552L307 144.682Z" fill="#3F3D56"/>
<path opacity="0.1" d="M307 147.656V195.239L303.742 201.821L300.395 208.572V208.582L293.651 222.203L294.404 171.646L294.562 161.445L300.97 154.337L303.772 151.245L307 147.656Z" fill="black"/>
<path d="M308.812 131.25V148.915L307 151.8L303.762 156.964L300.9 161.544L294.562 171.646H294.404L209.982 167.294V149.877L210.19 149.649L220.271 138.724L223.926 134.779L230.521 127.622L308.812 131.25Z" fill="#3F3D56"/>
<path opacity="0.1" d="M294.562 154.229V171.646L209.982 167.294V149.877L210.19 149.649L294.562 154.229Z" fill="black"/>
<path opacity="0.15" d="M308.813 131.25V148.915L294.562 171.645V154.228L308.813 131.25Z" fill="black"/>
<path d="M303.771 139.379V151.245L303.761 156.965L303.741 201.821L300.394 208.572L300.899 161.544L300.969 154.338L301.087 143.711L220.271 138.724L223.925 134.779L303.771 139.379Z" fill="#246CAD"/>
<path d="M264.11 139.963L258.446 152.275L258.397 158.54L257.882 220.715L244.295 219.813V151.452L251.544 139.963H264.11Z" fill="#246CAD"/>
<path d="M245.464 140.796C242.191 141.884 238.674 142.008 235.333 141.153C234.684 141.022 234.076 140.736 233.561 140.32C233.009 139.707 232.63 138.957 232.461 138.149C231.863 136.47 231.529 134.707 231.471 132.925C231.452 132.036 231.638 131.153 232.014 130.347C232.39 129.541 232.946 128.832 233.64 128.276C233.935 128.097 234.21 127.888 234.462 127.651C234.762 127.272 234.978 126.832 235.096 126.363C236.086 123.389 238.007 120.286 241.087 119.81C243.929 119.374 246.513 121.356 248.702 123.22L253.505 127.314C254.038 125.88 254.993 124.64 256.243 123.759C257.493 122.877 258.98 122.395 260.509 122.376C262.038 122.357 263.538 122.801 264.81 123.65C266.082 124.5 267.067 125.715 267.636 127.136C270.549 123.857 274.217 121.339 278.321 119.8C278.751 119.576 279.226 119.45 279.71 119.431C280.195 119.413 280.678 119.501 281.124 119.691C281.639 120.065 282.03 120.587 282.243 121.188C283.553 124.053 284.261 127.157 284.322 130.308C284.657 130.191 285.022 130.19 285.358 130.305C285.694 130.42 285.981 130.644 286.174 130.942C286.542 131.542 286.756 132.223 286.798 132.925C286.925 134.024 286.988 135.13 286.986 136.236C287.098 137.408 286.789 138.582 286.115 139.547C285.124 140.697 283.441 140.816 281.936 140.846C282.085 141.032 282.193 141.247 282.253 141.478C282.313 141.709 282.323 141.951 282.283 142.186C282.243 142.421 282.153 142.645 282.02 142.843C281.886 143.041 281.713 143.208 281.51 143.334C280.649 143.795 279.668 143.985 278.698 143.879C274.964 143.879 270.983 143.74 267.874 141.659C266.646 140.846 265.616 139.755 264.388 138.932C261.417 136.95 257.585 136.841 254.099 137.009C250.96 137.168 248.464 139.785 245.464 140.796Z" fill="#246CAD"/>
<path d="M244.781 139.963C244.781 139.963 213.607 144.315 209.26 163.19L215.786 162.198L220.371 170.426C220.371 170.426 225.203 152.037 239.463 147.685C253.723 143.334 258.794 142.61 258.794 142.61C258.794 142.61 268.696 145.029 277.609 173.806L282.689 166.798L291.602 168.781C291.602 168.781 285.076 146.288 267.439 140.033L244.781 139.963Z" fill="#246CAD"/>
<path d="M156.745 96.6775L147.595 116.563L147.516 126.704L146.684 227.154L124.729 225.697V115.245L136.444 96.6775H156.745Z" fill="#3F3D56"/>
<path d="M75.2161 255.426C101.468 255.426 122.75 234.122 122.75 207.843C122.75 181.564 101.468 160.26 75.2161 160.26C48.9641 160.26 27.6826 181.564 27.6826 207.843C27.6826 234.122 48.9641 255.426 75.2161 255.426Z" fill="#3F3D56"/>
<path opacity="0.1" d="M75.2158 248.487C97.6394 248.487 115.817 230.29 115.817 207.843C115.817 185.396 97.6394 167.199 75.2158 167.199C52.7922 167.199 34.6143 185.396 34.6143 207.843C34.6143 230.29 52.7922 248.487 75.2158 248.487Z" fill="#585858"/>
<path d="M73.4157 231.634V225.781C70.3442 225.723 67.1668 224.679 65.3135 223.231L66.5843 219.348C68.7868 220.938 71.4578 221.811 74.21 221.839C77.9699 221.839 80.5118 219.463 80.5118 216.16C80.5118 212.972 78.4465 211.002 74.5277 209.263C69.1262 206.945 65.79 204.278 65.79 199.236C65.79 194.426 68.9144 190.774 73.7865 189.905V184.052H77.0697V189.673C79.5179 189.706 81.9059 190.409 83.9541 191.702L82.63 195.527C80.6657 194.232 78.338 193.544 75.9576 193.556C71.8801 193.556 70.3443 196.222 70.3443 198.541C70.3443 201.555 72.3036 203.061 76.9109 205.148C82.3652 207.582 85.1191 210.596 85.1191 215.754C85.1191 220.333 82.2064 224.622 76.7519 225.606V231.634H73.4157Z" fill="#008968"/>
</svg>
