<svg width="72" height="72" viewBox="0 0 72 72" fill="none" xmlns="http://www.w3.org/2000/svg">
<circle opacity="0.3" cx="36" cy="36" r="36" fill="#246CAD"/>
<g clip-path="url(#clip0)">
<path d="M52.3888 55.6516C51.0068 57.1435 49.0475 58.0001 47.0136 58.0001H25.987C23.953 58.0001 21.9937 57.1435 20.6117 55.6516C19.2297 54.1598 18.5258 52.1407 18.6814 50.112L20.6916 24.7829C20.8164 23.1549 22.1967 21.8774 23.8326 21.8774H49.1679C50.8038 21.8774 52.1841 23.1549 52.3088 24.7864L54.3182 50.1085C54.4746 52.1407 53.7709 54.1598 52.3888 55.6516Z" fill="#246CAD"/>
<path d="M52.3892 55.6516C51.0072 57.1435 49.0479 58.0001 47.014 58.0001H36.4893V21.8774H49.1683C50.8042 21.8774 52.1845 23.1549 52.3092 24.7864L54.3186 50.1085C54.475 52.1407 53.7713 54.1598 52.3892 55.6516Z" fill="#1C4161"/>
<path d="M45.1981 21.699V27.7587C45.1981 28.487 44.6085 29.0766 43.8802 29.0766C43.1527 29.0766 42.5623 28.487 42.5623 27.7587V21.699C42.5623 18.3559 39.843 15.6358 36.4999 15.6358H36.4885C33.1507 15.6419 30.4376 18.3594 30.4376 21.699V27.7587C30.4376 28.487 29.8471 29.0766 29.1197 29.0766C28.3913 29.0766 27.8018 28.487 27.8018 27.7587V21.699C27.8018 16.9062 31.6974 13.0062 36.4884 13H36.4998C41.2963 13 45.1981 16.9027 45.1981 21.699Z" fill="#FDFEFF"/>
<path d="M42.438 37.2133L36.489 43.1623L35.6218 44.0295C35.3644 44.2869 35.027 44.416 34.6896 44.416C34.3522 44.416 34.0149 44.2869 33.7575 44.0295L30.5629 40.8349C30.048 40.3201 30.048 39.4862 30.5629 38.9714C31.0778 38.4565 31.9125 38.4565 32.4265 38.9714L34.6897 41.2338L36.4891 39.4344L40.5746 35.3489C41.0886 34.8349 41.9233 34.8349 42.4382 35.3489C42.9528 35.8638 42.9528 36.6984 42.438 37.2133Z" fill="#FFFCE5"/>
<path d="M42.4382 35.3489C42.9531 35.8637 42.9531 36.6984 42.4382 37.2133L36.4893 43.1623V39.4344L40.5748 35.3489C41.0887 34.8349 41.9234 34.8349 42.4382 35.3489Z" fill="#F0F0F0"/>
<path d="M45.1989 21.699V27.7587C45.1989 28.487 44.6093 29.0766 43.8809 29.0766C43.1535 29.0766 42.563 28.487 42.563 27.7587V21.699C42.563 18.3559 39.8438 15.6358 36.5007 15.6358H36.4893V13H36.5007C41.297 13 45.1989 16.9027 45.1989 21.699Z" fill="#F0F0F0"/>
</g>
<defs>
<clipPath id="clip0">
<rect width="45" height="45" fill="white" transform="translate(14 13)"/>
</clipPath>
</defs>
</svg>
