<svg width="72" height="72" viewBox="0 0 72 72" fill="none" xmlns="http://www.w3.org/2000/svg">
<circle opacity="0.3" cx="36" cy="36" r="36" fill="#246CAD"/>
<g clip-path="url(#clip0)">
<path d="M43.9102 29.4082C35.901 29.4082 29.4082 35.9009 29.4082 43.9102C29.4082 51.9193 35.901 58.5 43.9102 58.5C51.9193 58.5 58.5 51.9193 58.5 43.9102C58.5 35.9009 51.9193 29.4082 43.9102 29.4082Z" fill="#D40241"/>
<path d="M28.0898 13.5C20.0935 13.5 13.5 20.0935 13.5 28.0898C13.5 36.0862 20.0935 42.5918 28.0898 42.5918C36.0862 42.5918 42.5918 36.0862 42.5918 28.0898C42.5918 20.0935 36.0862 13.5 28.0898 13.5Z" fill="#246CAD"/>
<path d="M25.4531 24.1348H22.8164C22.0877 24.1348 21.498 23.5451 21.498 22.8164C21.498 22.0877 22.0877 21.498 22.8164 21.498H25.4531C26.1818 21.498 26.7715 22.0877 26.7715 22.8164C26.7715 23.5451 26.1818 24.1348 25.4531 24.1348Z" fill="white"/>
<path d="M33.3633 24.1348H30.7266C29.9979 24.1348 29.4082 23.5451 29.4082 22.8164C29.4082 22.0877 29.9979 21.498 30.7266 21.498H33.3633C34.092 21.498 34.6816 22.0877 34.6816 22.8164C34.6816 23.5451 34.092 24.1348 33.3633 24.1348Z" fill="white"/>
<path d="M41.2734 42.5918H38.6367C37.908 42.5918 37.3184 42.0021 37.3184 41.2734C37.3184 40.5447 37.908 39.9551 38.6367 39.9551H41.2734C42.0021 39.9551 42.5918 40.5447 42.5918 41.2734C42.5918 42.0021 42.0021 42.5918 41.2734 42.5918Z" fill="white"/>
<path d="M49.1836 42.5918H46.5469C45.8182 42.5918 45.2285 42.0021 45.2285 41.2734C45.2285 40.5447 45.8182 39.9551 46.5469 39.9551H49.1836C49.9123 39.9551 50.502 40.5447 50.502 41.2734C50.502 42.0021 49.9123 42.5918 49.1836 42.5918Z" fill="#F0F0F0"/>
<path d="M33.3212 28.0898H28.0894H22.0181L18.9941 29.4082C19.6408 33.8687 23.4527 37.3184 28.0894 37.3184C32.7261 37.3184 36.5381 33.8687 37.1847 29.4082L33.3212 28.0898Z" fill="#FF6673"/>
<path d="M37.1851 29.4082L33.3216 28.0898H28.0898V37.3184C32.7265 37.3184 36.5385 33.8687 37.1851 29.4082Z" fill="#E62E2E"/>
<path d="M36 26.7715H28.0898H20.1797C19.451 26.7715 18.8613 27.3611 18.8613 28.0898C18.8613 28.5412 18.9316 28.9738 18.9946 29.4082H28.0898H37.1851C37.248 28.9738 37.3184 28.5412 37.3184 28.0898C37.3184 27.3611 36.7287 26.7715 36 26.7715Z" fill="#F9F4F3"/>
<path d="M37.3184 28.0898C37.3184 27.3611 36.7287 26.7715 36 26.7715H28.0898V29.4082H37.1851C37.248 28.9738 37.3184 28.5412 37.3184 28.0898Z" fill="#F0F0F0"/>
<path d="M50.7825 48.3029C49.0316 46.3499 46.5262 45.2285 43.9101 45.2285C41.2939 45.2285 38.7886 46.3499 37.0376 48.3029C36.551 48.8463 36.5961 49.6792 37.1381 50.1646C37.6827 50.6538 38.5132 50.6062 38.9998 50.0642C40.2525 48.666 42.0813 47.9669 43.9102 47.9669C45.739 47.9669 47.5678 48.666 48.8205 50.0642C49.3074 50.6064 50.1406 50.6507 50.6822 50.1646C51.2242 49.6793 51.2692 48.8463 50.7825 48.3029Z" fill="white"/>
<path d="M50.6822 50.1646C51.2242 49.6793 51.2693 48.8463 50.7827 48.3029C49.0316 46.3499 46.5263 45.2285 43.9102 45.2285V47.9669C45.739 47.9669 47.5678 48.666 48.8205 50.0642C49.3073 50.6064 50.1406 50.6508 50.6822 50.1646Z" fill="#F0F0F0"/>
</g>
<defs>
<clipPath id="clip0">
<rect width="45" height="45" fill="white" transform="translate(13.5 13.5)"/>
</clipPath>
</defs>
</svg>
