<svg width="72" height="72" viewBox="0 0 72 72" fill="none" xmlns="http://www.w3.org/2000/svg">
<circle opacity="0.3" cx="36" cy="36" r="36" fill="#246CAD"/>
<g clip-path="url(#clip0)">
<path d="M50.9979 50.9457L51.1501 47.9406C51.1778 47.4005 51.5241 46.9159 52.0364 46.722L54.8407 45.6488C56.0663 45.1849 57.0011 44.1947 57.3957 42.9552C57.8042 41.7158 57.6311 40.3795 56.9111 39.2854L55.2769 36.7513C54.9722 36.2943 54.9723 35.7126 55.2769 35.2557L56.9179 32.7283C57.6242 31.6343 57.8042 30.291 57.4026 29.0446C56.9941 27.8052 56.0731 26.8289 54.8407 26.3581L52.0295 25.278C51.5241 25.091 51.1847 24.6132 51.157 24.0732L50.9908 21.068C50.9978 21.0056 50.984 20.9503 50.977 20.8879C50.8731 19.6485 50.2292 18.5337 49.2252 17.7929C48.1658 17.0381 46.8502 16.789 45.5762 17.1213L42.6611 17.9037C42.1418 18.049 41.5879 17.8691 41.2486 17.4466L39.3514 15.1063C38.5275 14.0885 37.3019 13.5 36.0002 13.5C34.6985 13.5 33.4728 14.0885 32.6559 15.0994L30.7518 17.4467C30.4126 17.869 29.8586 18.049 29.3393 17.9038L26.4243 17.1214C25.164 16.789 23.8346 17.0383 22.7752 17.793C21.7158 18.5754 21.0719 19.7595 21.0096 21.0681L20.8434 24.0732C20.8295 24.6133 20.4763 25.0909 19.9709 25.278L17.1596 26.3581C15.941 26.829 15.0062 27.8053 14.5977 29.0447C14.1961 30.2911 14.3761 31.6342 15.0893 32.7352L16.7372 35.2557C17.028 35.7127 17.028 36.2943 16.7304 36.7581L15.0894 39.2855C14.3762 40.3726 14.1961 41.716 14.6046 42.9553C14.9994 44.1947 15.941 45.1919 17.1596 45.6489L19.9777 46.7221C20.4763 46.916 20.8225 47.4007 20.8502 47.9407L21.0026 50.9459C21.0026 51.0704 21.0165 51.1951 21.0372 51.3128C21.1965 52.4692 21.8196 53.5217 22.7751 54.2003C23.8346 54.9827 25.1709 55.225 26.431 54.8788L29.3323 54.0964C29.8586 53.958 30.4125 54.1379 30.7587 54.5672L32.6559 56.9076C33.466 57.9254 34.6916 58.5001 36.0072 58.5001C37.3089 58.5001 38.5344 57.9254 39.3584 56.9076L41.2417 54.5672C41.588 54.138 42.1419 53.9579 42.6681 54.0964L45.5832 54.8788C46.8296 55.2251 48.1659 54.9827 49.2253 54.2002C50.2847 53.4452 50.9286 52.2613 50.9979 50.9457Z" fill="#0B487E"/>
<path d="M49.2252 54.2C48.1658 54.9824 46.8295 55.2247 45.5831 54.8786L42.6681 54.0962C42.1419 53.9578 41.5879 54.1377 41.2417 54.567L39.3584 56.9074C38.5344 57.9252 37.3087 58.4999 36.0071 58.4999C34.6915 58.4999 33.4659 57.9252 32.6558 56.9074L30.7586 54.567C30.4123 54.1378 29.8585 53.9577 29.3322 54.0962L26.431 54.8786C25.1708 55.2249 23.8345 54.9825 22.7751 54.2001C21.8194 53.5215 21.1964 52.469 21.0371 51.3126L51.0047 21.345L51.157 24.0731C51.1847 24.6131 51.524 25.0909 52.0295 25.2779L54.8406 26.3581C56.0731 26.8289 56.9941 27.8052 57.4026 29.0445C57.8041 30.2909 57.6241 31.6342 56.9179 32.7282L55.2768 35.2556C54.9722 35.7126 54.9721 36.2943 55.2768 36.7512L56.911 39.2854C57.6311 40.3795 57.8042 41.7158 57.3956 42.9552C57.001 44.1947 56.0662 45.1848 54.8406 45.6488L52.0363 46.722C51.5239 46.9159 51.1777 47.4006 51.15 47.9406L50.9978 50.9457C50.9285 52.2612 50.2847 53.4452 49.2252 54.2Z" fill="#1C4161"/>
<path d="M30.0607 33.9652C28.4408 33.9652 27.123 32.6474 27.123 31.0275C27.123 29.4076 28.4408 28.0898 30.0607 28.0898C31.6806 28.0898 32.9984 29.4076 32.9984 31.0275C32.9984 32.6474 31.6806 33.9652 30.0607 33.9652ZM30.0607 31.0293H30.0703H30.0607ZM30.0607 31.0293H30.0703H30.0607ZM30.0607 31.0281L30.0703 31.028L30.0607 31.0281ZM30.0607 31.0281L30.0703 31.028L30.0607 31.0281ZM30.0607 31.0281L30.0703 31.028L30.0607 31.0281ZM30.0607 31.0281L30.0703 31.028L30.0607 31.0281ZM30.0607 31.0281L30.0703 31.028L30.0607 31.0281Z" fill="white"/>
<path d="M40.8322 44.7366C39.2123 44.7366 37.8945 43.4189 37.8945 41.799C37.8945 40.1791 39.2123 38.8613 40.8322 38.8613C42.4521 38.8613 43.7698 40.1791 43.7698 41.799C43.7698 43.4189 42.4521 44.7366 40.8322 44.7366ZM40.8322 41.8008H40.8418H40.8322ZM40.8322 41.8008H40.8418H40.8322ZM40.8322 41.7996L40.8418 41.7995L40.8322 41.7996ZM40.8322 41.7996L40.8418 41.7995L40.8322 41.7996ZM40.8322 41.7996L40.8418 41.7995L40.8322 41.7996ZM40.8322 41.7996L40.8418 41.7995L40.8322 41.7996ZM40.8322 41.7996L40.8418 41.7995L40.8322 41.7996Z" fill="#F0F0F0"/>
<path d="M27.6909 44.6587C27.1175 44.0853 27.1172 43.1553 27.6909 42.5815L41.5391 28.7333C42.1129 28.1595 43.0429 28.1599 43.6163 28.7333C44.1897 29.3067 44.1901 30.2367 43.6163 30.8105L29.7681 44.6587C29.1945 45.2324 28.2643 45.2321 27.6909 44.6587Z" fill="white"/>
<path d="M29.7686 44.6586L43.6168 30.8104C44.1906 30.2366 44.1902 29.3066 43.6168 28.7332L27.6914 44.6586C28.2648 45.232 29.195 45.2322 29.7686 44.6586Z" fill="#F0F0F0"/>
</g>
<defs>
<clipPath id="clip0">
<rect width="45" height="45" fill="white" transform="translate(13.5 13.5)"/>
</clipPath>
</defs>
</svg>
