<svg width="72" height="72" viewBox="0 0 72 72" fill="none" xmlns="http://www.w3.org/2000/svg">
<circle opacity="0.3" cx="36" cy="36" r="36" fill="#246CAD"/>
<path d="M43.6201 56.3377V18.3647C43.6201 17.4466 42.8759 16.7024 41.9578 16.7024H18.7424C17.8242 16.7024 17.0801 17.4467 17.0801 18.3647V56.3377C17.0801 57.2558 17.8243 58 18.7424 58H41.9579C42.8759 58 43.6201 57.2557 43.6201 56.3377Z" fill="#1C4161"/>
<path d="M47.4081 16.7024H41.8447C42.7628 16.7024 43.5071 17.4467 43.5071 18.3647V56.3377C43.5071 57.2558 42.7628 58 41.8447 58H47.4081C48.3262 58 49.0705 57.2557 49.0705 56.3377V18.3648C49.0705 17.4467 48.3262 16.7024 47.4081 16.7024Z" fill="#0B487E"/>
<path d="M19.7969 54.6886V20.0133C19.7969 19.6851 20.0629 19.4192 20.391 19.4192H45.7591C46.0872 19.4192 46.3532 19.6852 46.3532 20.0133V54.6886C46.3532 55.0168 46.0872 55.2828 45.7591 55.2828H20.391C20.0628 55.2828 19.7969 55.0168 19.7969 54.6886Z" fill="white"/>
<path d="M45.7597 19.4192H40.1963C40.5245 19.4192 40.7904 19.6852 40.7904 20.0133V54.6886C40.7904 55.0168 40.5244 55.2828 40.1963 55.2828H45.7597C46.0879 55.2828 46.3538 55.0167 46.3538 54.6886V20.0133C46.3538 19.6852 46.0879 19.4192 45.7597 19.4192Z" fill="#EAEAEA"/>
<path d="M36.6064 15.0688V14.1936C36.6064 13.5345 36.0721 13 35.4128 13H30.7373C30.078 13 29.5436 13.5345 29.5436 14.1936V15.0688C29.5436 15.3383 29.3251 15.5569 29.0555 15.5569H27.1096C26.4623 15.5569 25.9375 16.0817 25.9375 16.729V19.4194H40.2126V16.729C40.2126 16.0817 39.6878 15.5569 39.0405 15.5569H37.0946C36.825 15.5569 36.6064 15.3383 36.6064 15.0688Z" fill="#F3F5F8"/>
<path d="M23.2529 29.0656V23.8327C23.2529 23.253 23.723 22.783 24.3027 22.783H29.5355C30.1153 22.783 30.5853 23.253 30.5853 23.8327V29.0656C30.5853 29.6453 30.1153 30.1153 29.5355 30.1153H24.3027C23.7229 30.1153 23.2529 29.6453 23.2529 29.0656Z" fill="#0B487E"/>
<path d="M23.2529 39.9674V34.7346C23.2529 34.1549 23.723 33.6848 24.3027 33.6848H29.5355C30.1153 33.6848 30.5853 34.1549 30.5853 34.7346V39.9674C30.5853 40.5471 30.1153 41.0172 29.5355 41.0172H24.3027C23.7229 41.0172 23.2529 40.5471 23.2529 39.9674Z" fill="#0B487E"/>
<path d="M23.2529 50.8693V45.6364C23.2529 45.0567 23.723 44.5867 24.3027 44.5867H29.5355C30.1153 44.5867 30.5853 45.0567 30.5853 45.6364V50.8693C30.5853 51.449 30.1153 51.919 29.5355 51.919H24.3027C23.7229 51.919 23.2529 51.4491 23.2529 50.8693Z" fill="#0B487E"/>
<path d="M26.4761 28.3231C26.4754 28.3231 26.4747 28.3231 26.4739 28.3231C26.1741 28.3224 25.8897 28.1772 25.7132 27.9349L24.9202 26.8459C24.6994 26.5427 24.7662 26.1179 25.0695 25.8971C25.3727 25.6764 25.7975 25.7432 26.0181 26.0464L26.4779 26.6779L27.8222 24.8515C28.0446 24.5494 28.4696 24.4849 28.7716 24.7072C29.0737 24.9295 29.1383 25.3546 28.9159 25.6567L27.2361 27.9387C27.059 28.1795 26.775 28.3231 26.4761 28.3231Z" fill="#F6F9F9"/>
<path d="M26.4761 39.4622C26.4752 39.4622 26.4744 39.4622 26.4736 39.4622C26.1738 39.4614 25.8895 39.3163 25.713 39.0738L24.9202 37.985C24.6994 37.6818 24.7662 37.257 25.0695 37.0363C25.3727 36.8156 25.7975 36.8824 26.0181 37.1855L26.4779 37.817L27.8222 35.9906C28.0446 35.6886 28.4696 35.624 28.7716 35.8463C29.0737 36.0686 29.1383 36.4937 28.9159 36.7958L27.2361 39.0779C27.059 39.3188 26.775 39.4622 26.4761 39.4622Z" fill="#F6F9F9"/>
<path d="M26.476 50.127C26.4752 50.127 26.4744 50.127 26.4737 50.1269C26.174 50.1262 25.8896 49.9811 25.7131 49.7389L24.9202 48.6498C24.6994 48.3465 24.7663 47.9218 25.0695 47.7011C25.3729 47.4803 25.7975 47.5472 26.0182 47.8504L26.4779 48.4818L27.8222 46.6554C28.0446 46.3534 28.4696 46.2888 28.7716 46.5111C29.0737 46.7334 29.1383 47.1585 28.916 47.4606L27.2362 49.7427C27.0589 49.9834 26.7749 50.127 26.476 50.127Z" fill="#F6F9F9"/>
<path d="M42.362 25.7094H33.9671C33.5921 25.7094 33.2881 25.4054 33.2881 25.0304C33.2881 24.6553 33.5921 24.3513 33.9671 24.3513H42.362C42.737 24.3513 43.0411 24.6553 43.0411 25.0304C43.0411 25.4054 42.737 25.7094 42.362 25.7094Z" fill="#246CAD"/>
<path d="M38.1645 28.547H33.9671C33.5921 28.547 33.2881 28.243 33.2881 27.868C33.2881 27.493 33.5921 27.189 33.9671 27.189H38.1645C38.5395 27.189 38.8436 27.493 38.8436 27.868C38.8436 28.243 38.5395 28.547 38.1645 28.547Z" fill="#246CAD"/>
<path d="M39.5997 36.6115H33.9671C33.5921 36.6115 33.2881 36.3075 33.2881 35.9325C33.2881 35.5574 33.5921 35.2534 33.9671 35.2534H39.5997C39.9747 35.2534 40.2787 35.5574 40.2787 35.9325C40.2787 36.3075 39.9747 36.6115 39.5997 36.6115Z" fill="#246CAD"/>
<path d="M38.1645 39.4491H33.9671C33.5921 39.4491 33.2881 39.1451 33.2881 38.7701C33.2881 38.3951 33.5921 38.0911 33.9671 38.0911H38.1645C38.5395 38.0911 38.8436 38.3951 38.8436 38.7701C38.8436 39.1451 38.5395 39.4491 38.1645 39.4491Z" fill="#246CAD"/>
<path d="M53.2792 30.7292L52.6124 29.8508L50.1176 28.271L49.1587 28.1199L36.3842 48.306C36.076 48.7927 35.8498 49.3268 35.7148 49.8869C37.2691 49.9061 38.6798 50.7994 39.3618 52.1963C39.8104 51.8348 40.1965 51.402 40.5047 50.9153L53.2792 30.7292Z" fill="#D40241"/>
<path d="M55.0827 24.513L54.0047 23.8304C53.1644 23.2982 52.0517 23.5483 51.5198 24.3888L50.5312 25.9508L50.8466 26.5866L53.8463 28.4861L54.6518 28.5601L55.6409 26.9971C56.1725 26.157 55.9226 25.045 55.0827 24.513Z" fill="#8C9BA6"/>
<path d="M49.1602 28.114L50.5334 25.945L54.6547 28.5543L53.2814 30.7233L49.1602 28.114Z" fill="#C9E2E7"/>
<path d="M39.3618 52.1966L35.7244 55.1278C35.2113 55.5413 34.4658 55.0692 34.6203 54.4286L35.7149 49.8872C37.2691 49.9064 38.6799 50.7998 39.3618 52.1966Z" fill="#7C8B96"/>
<path d="M38.4072 50.9381L51.7981 29.7918L50.6507 29.0652L37.2598 50.2115C37.6799 50.3885 38.0675 50.634 38.4072 50.9381Z" fill="#FB636F"/>
</svg>
