<svg width="359" height="304" viewBox="0 0 359 304" fill="none" xmlns="http://www.w3.org/2000/svg">
<path d="M352.495 172.488C334.338 230.48 214.899 303.341 121.923 303.341C31.3119 291.941 -13.1749 231.967 3.41981 161.584C22.2352 81.7831 138.045 0 231.021 0C323.997 0 378.545 89.2815 352.495 172.488Z" fill="#F0F0F0"/>
<g clip-path="url(#clip0)">
<path d="M261.173 251.985L187.914 252.227C168.478 246.404 152.555 226.177 152.454 195.852C152.434 191.283 152.78 186.721 153.489 182.207L212.496 168.988L258.016 158.791C261.371 161.786 264.496 165.026 267.367 168.485L223.839 191.405L203.305 202.217L226.379 194.279L274.271 177.804C277.257 182.357 279.918 187.115 282.234 192.041L267.784 206.933L284.13 196.262C284.2 196.425 284.27 196.589 284.339 196.753C294.699 221.278 281.845 251.917 261.173 251.985Z" fill="#F3F5F8"/>
<path d="M249.134 151.927C238.056 155.1 224.435 159.108 210.431 163.275C190.183 169.301 169.135 175.661 153.811 180.309L153.821 180.255C154.387 176.993 155.719 173.91 157.707 171.259C169.059 156.542 183.513 146.26 199.601 142.442H199.602C204.126 141.366 208.759 140.815 213.41 140.799C226.209 140.757 238.332 144.76 249.134 151.927Z" fill="#F3F5F8"/>
<path d="M175.129 258.873C215.375 258.873 248 256.447 248 253.455C248 250.462 215.375 248.037 175.129 248.037C134.883 248.037 102.258 250.462 102.258 253.455C102.258 256.447 134.883 258.873 175.129 258.873Z" fill="#3F3D56"/>
<path d="M164.262 163.662C164.262 202.812 140.922 216.482 112.131 216.482C83.3399 216.482 60 202.812 60 163.662C60 124.512 112.131 74.707 112.131 74.707C112.131 74.707 164.262 124.512 164.262 163.662Z" fill="#F3F5F8"/>
<path d="M110.232 210.493L110.766 177.728L132.985 137.193L110.85 172.588L111.09 157.855L126.403 128.529L111.153 153.957V153.957L111.585 127.46L127.983 104.112L111.652 123.293L111.922 74.7065L110.227 139.026L110.367 136.373L93.6944 110.925L110.099 141.466L108.546 171.059L108.499 170.274L89.2793 143.494L108.441 173.049L108.247 176.749L108.212 176.805L108.228 177.109L104.287 252.188H109.553L110.184 213.408L129.299 183.926L110.232 210.493Z" fill="#3F3D56"/>
<path d="M226.487 36.284V242.872C226.484 245.332 225.503 247.692 223.757 249.431C222.011 251.171 219.645 252.148 217.177 252.149H133.071C131.848 252.151 130.637 251.913 129.507 251.447C128.377 250.982 127.35 250.299 126.485 249.437C125.62 248.575 124.934 247.552 124.467 246.425C123.999 245.298 123.759 244.091 123.761 242.872V36.284C123.761 35.0648 124.001 33.8575 124.469 32.7311C124.937 31.6046 125.623 30.5811 126.487 29.719C127.352 28.8569 128.378 28.173 129.508 27.7065C130.638 27.24 131.848 26.9999 133.071 27H145.657V28.6095C145.657 30.6368 146.464 32.5812 147.902 34.0151C149.339 35.4489 151.288 36.2547 153.322 36.2553H196.098C197.735 36.2588 199.329 35.7357 200.643 34.7638C200.909 34.571 201.161 34.3602 201.397 34.1327C202.146 33.4198 202.742 32.5626 203.148 31.6132C203.555 30.6637 203.764 29.6418 203.763 28.6095V27H217.177C218.399 26.9996 219.61 27.2395 220.74 27.7059C221.87 28.1724 222.896 28.8562 223.761 29.7184C224.625 30.5806 225.311 31.6042 225.779 32.7307C226.247 33.8573 226.487 35.0647 226.487 36.284Z" fill="#3F3D56"/>
<path d="M171.297 107.889C171.3 113.654 167.864 115.669 163.625 115.671C163.526 115.671 163.428 115.67 163.331 115.668C163.134 115.663 162.94 115.655 162.747 115.641C158.921 115.373 155.947 113.258 155.944 107.896C155.942 102.348 163.05 95.342 163.583 94.824L163.584 94.8236C163.604 94.8038 163.614 94.7939 163.614 94.7939C163.614 94.7939 171.295 102.124 171.297 107.889Z" fill="#246CAD"/>
<path d="M163.344 114.789L166.15 110.876L163.337 115.218L163.33 115.668C163.134 115.663 162.939 115.655 162.747 115.641L163.046 109.873L163.044 109.829L163.049 109.82L163.078 109.275L160.254 104.925L163.086 108.867L163.093 108.982L163.32 104.625L160.902 100.129L163.349 103.859L163.582 94.824L163.583 94.7939V94.8235L163.547 101.948L165.95 99.1227L163.537 102.562L163.475 106.464L165.72 102.718L163.467 107.038L163.433 109.207L166.689 103.994L163.42 109.964L163.344 114.789Z" fill="#3F3D56"/>
<path d="M211.559 181.479H138.688V188.579V199.392V205.475L144.789 199.392H211.559V181.479Z" fill="#246CAD"/>
<path d="M195.941 185.828H154.945V189.143H195.941V185.828Z" fill="white"/>
<path d="M195.941 190.8H154.945V194.115H195.941V190.8Z" fill="white"/>
<path d="M138.688 148.811H211.559V155.911V166.724V172.808L205.458 166.724H138.688V148.811Z" fill="#246CAD"/>
<path d="M192.106 153.479H151.11V156.794H192.106V153.479Z" fill="white"/>
<path d="M192.106 158.451H151.11V161.766H192.106V158.451Z" fill="white"/>
<path d="M135.812 73.6733V132.186H214.436V73.6733H135.812ZM145.943 74.41C146.193 74.41 146.438 74.4841 146.647 74.6228C146.855 74.7616 147.017 74.9588 147.113 75.1896C147.209 75.4204 147.234 75.6743 147.185 75.9192C147.136 76.1642 147.016 76.3892 146.838 76.5658C146.661 76.7425 146.436 76.8627 146.19 76.9115C145.944 76.9602 145.69 76.9352 145.458 76.8396C145.227 76.744 145.029 76.5821 144.89 76.3745C144.751 76.1668 144.677 75.9226 144.677 75.6729C144.677 75.507 144.709 75.3428 144.773 75.1896C144.837 75.0364 144.93 74.8972 145.047 74.7799C145.165 74.6626 145.305 74.5696 145.458 74.5061C145.612 74.4427 145.777 74.41 145.943 74.41V74.41ZM138.344 76.9357C138.094 76.9357 137.849 76.8617 137.641 76.7229C137.433 76.5841 137.27 76.3869 137.174 76.1561C137.079 75.9254 137.053 75.6715 137.102 75.4265C137.151 75.1815 137.272 74.9565 137.449 74.7799C137.626 74.6033 137.852 74.483 138.097 74.4343C138.343 74.3855 138.598 74.4106 138.829 74.5061C139.06 74.6017 139.258 74.7636 139.397 74.9713C139.537 75.1789 139.611 75.4231 139.611 75.6729C139.611 76.0078 139.477 76.329 139.24 76.5658C139.002 76.8027 138.68 76.9357 138.344 76.9357V76.9357ZM140.877 75.6729C140.877 75.4231 140.952 75.1789 141.091 74.9713C141.23 74.7636 141.428 74.6017 141.659 74.5061C141.89 74.4106 142.145 74.3855 142.391 74.4343C142.636 74.483 142.862 74.6033 143.039 74.7799C143.216 74.9565 143.337 75.1815 143.386 75.4265C143.435 75.6715 143.41 75.9254 143.314 76.1561C143.218 76.3869 143.056 76.5841 142.847 76.7229C142.639 76.8617 142.394 76.9357 142.144 76.9357C141.977 76.9357 141.813 76.9031 141.659 76.8396C141.505 76.7761 141.366 76.6831 141.248 76.5658C141.131 76.4486 141.037 76.3094 140.974 76.1561C140.91 76.0029 140.877 75.8387 140.877 75.6729V75.6729ZM184.464 115.769H142.144V84.4076H184.464V115.769Z" fill="#F3F5F8"/>
<path d="M212.747 74.7261H210.214V75.0418H212.747V74.7261Z" fill="white"/>
<path d="M212.747 75.6733H210.214V75.9891H212.747V75.6733Z" fill="white"/>
<path d="M212.747 76.6206H210.214V76.9363H212.747V76.6206Z" fill="white"/>
<path d="M210.214 83.8818H191.112V84.829H210.214V83.8818Z" fill="white"/>
<path d="M210.214 87.144H191.112V88.0912H210.214V87.144Z" fill="white"/>
<path d="M210.214 90.4067H191.112V91.3539H210.214V90.4067Z" fill="white"/>
<path d="M210.214 93.6689H191.112V94.6161H210.214V93.6689Z" fill="white"/>
<path d="M210.214 96.9316H191.112V97.8788H210.214V96.9316Z" fill="white"/>
<path d="M210.214 100.193H191.112V101.141H210.214V100.193Z" fill="white"/>
<path d="M210.214 103.456H191.112V104.403H210.214V103.456Z" fill="white"/>
<path d="M210.214 106.718H191.112V107.665H210.214V106.718Z" fill="white"/>
<path d="M210.214 109.981H191.112V110.928H210.214V109.981Z" fill="white"/>
<path d="M210.214 113.243H191.112V114.19H210.214V113.243Z" fill="white"/>
<path d="M144.676 119.242C145.375 119.242 145.942 118.676 145.942 117.979C145.942 117.281 145.375 116.716 144.676 116.716C143.976 116.716 143.409 117.281 143.409 117.979C143.409 118.676 143.976 119.242 144.676 119.242Z" fill="white"/>
<path d="M149.003 119.242C149.702 119.242 150.269 118.676 150.269 117.979C150.269 117.281 149.702 116.716 149.003 116.716C148.303 116.716 147.736 117.281 147.736 117.979C147.736 118.676 148.303 119.242 149.003 119.242Z" fill="white"/>
<path d="M153.33 119.242C154.029 119.242 154.596 118.676 154.596 117.979C154.596 117.281 154.029 116.716 153.33 116.716C152.63 116.716 152.063 117.281 152.063 117.979C152.063 118.676 152.63 119.242 153.33 119.242Z" fill="white"/>
<path d="M210.214 124.188H191.112V129.555H210.214V124.188Z" fill="#246CAD"/>
<path d="M106.314 197.675L105.614 222.114L98.1448 250.742C98.1448 250.742 99.7786 255.63 98.6116 256.794C97.4446 257.958 92.0762 260.052 92.0762 260.052L96.5109 199.072L106.314 197.675Z" fill="#3E3E3E"/>
<path d="M90.0974 256.675C90.0974 256.675 87.4339 262.518 91.1629 263.049C94.8919 263.581 112.116 264.997 111.051 261.987C109.986 258.977 97.0227 256.144 97.0227 256.144L90.0974 256.675Z" fill="#1D1D1D"/>
<path d="M80.1719 176.03C80.1719 176.03 82.9728 191.158 84.84 193.719C86.7073 196.279 83.9064 214.899 83.9064 214.899C83.9064 214.899 79.7051 241.665 81.5723 245.855C83.4396 250.044 82.9728 248.648 82.7394 250.975C82.506 253.303 82.0391 255.165 82.7394 257.259C83.4396 259.354 83.4396 259.121 83.673 260.285C83.9064 261.449 83.673 267.733 83.673 267.733C83.673 267.733 93.7095 271.224 95.3434 266.104C95.3434 266.104 93.0093 262.845 93.7096 260.285C94.4397 257.709 94.8319 255.049 94.8766 252.372V247.484L105.613 207.451L108.181 193.02C108.181 193.02 107.481 178.357 104.913 176.961C102.346 175.564 80.1719 176.03 80.1719 176.03Z" fill="#3E3E3E"/>
<path d="M84.3736 266.569C84.3736 266.569 80.8724 274.25 85.774 274.948C90.6756 275.647 113.316 277.509 111.916 273.552C110.515 269.595 93.4765 265.871 93.4765 265.871L84.3736 266.569Z" fill="#1D1D1D"/>
<path d="M88.8109 109.008C93.9672 109.008 98.1472 104.839 98.1472 99.6977C98.1472 94.5559 93.9672 90.3877 88.8109 90.3877C83.6546 90.3877 79.4746 94.5559 79.4746 99.6977C79.4746 104.839 83.6546 109.008 88.8109 109.008Z" fill="#FFB9B9"/>
<path d="M82.25 103.811L82.4238 115.701L93.8703 115.74C93.8703 115.74 90.9653 106.432 92.2665 104.486C93.5677 102.54 82.25 103.811 82.25 103.811Z" fill="#FFB9B9"/>
<path d="M99.3115 122.265C99.3115 122.265 91.1422 111.791 84.8402 116.213C78.5382 120.635 76.2041 131.109 76.2041 131.109L77.6046 160.436C77.6046 160.436 81.1057 164.625 79.005 167.418C76.9043 170.211 75.7373 169.513 77.3711 171.608C79.005 173.702 80.8723 175.332 80.1721 176.03C79.4718 176.728 80.8723 177.194 80.8723 177.194L105.614 177.892C105.614 177.892 104.913 176.961 107.014 174.168C109.115 171.375 106.547 167.651 107.014 166.254C107.481 164.858 107.948 166.487 108.181 163.229C108.414 159.97 99.3115 122.265 99.3115 122.265Z" fill="#3F3D56"/>
<path d="M96.9775 182.314C96.9775 182.314 97.4444 188.133 100.945 189.064C102.258 189.413 103.243 188.747 103.961 187.779C104.632 186.851 105.007 185.744 105.04 184.601C105.073 183.457 104.761 182.331 104.144 181.366L103.28 179.986L96.9775 182.314Z" fill="#FFB9B9"/>
<path d="M75.3877 110.51C75.3877 110.51 75.1543 115.165 75.3877 115.864C75.6211 116.562 75.8545 117.26 75.3877 117.958C74.9209 118.657 75.1543 120.984 75.6211 121.217C76.0879 121.45 74.6875 123.544 75.1543 124.941C75.6211 126.337 76.0879 126.803 76.3213 127.268C76.5547 127.734 76.9307 128.568 76.9307 128.568C76.9307 128.568 83.7904 114.002 89.3922 117.493C94.994 120.984 99.4288 122.148 99.4288 122.148C99.4288 122.148 96.3944 105.855 75.3877 110.51Z" fill="#3F3D56"/>
<path d="M85.5404 121.333C85.5404 121.333 78.0713 122.032 78.5381 131.807C79.0049 141.583 77.8379 156.944 77.8379 156.944C77.8379 156.944 90.6753 176.495 92.776 177.892C94.8767 179.288 95.1101 179.055 94.8767 180.219C94.6433 181.383 94.4099 182.314 95.3435 183.245C95.8947 183.798 96.5237 184.269 97.2108 184.641C97.2108 184.641 104.68 182.081 103.98 179.754C103.279 177.426 100.012 173.702 100.012 173.702C100.012 173.702 94.4099 164.625 94.1765 163.228C93.9431 161.832 93.9431 162.065 93.2428 161.366C92.5426 160.668 90.6753 157.875 90.6753 156.479V152.056L92.6322 128.424C92.721 127.461 92.6046 126.491 92.2905 125.576C91.9765 124.662 91.472 123.824 90.8101 123.118C89.6993 121.959 88.0203 121.037 85.5404 121.333Z" fill="#3F3D56"/>
<path d="M94.8316 92.5176C95.44 92.6857 96.0809 92.7001 96.6963 92.5596C97.3117 92.4191 97.8824 92.128 98.3569 91.7127C99.2692 90.8482 99.5759 89.3503 98.9267 88.2751C98.3661 87.3467 97.2758 86.8926 96.2383 86.5698C93.9498 85.8585 91.5666 85.496 89.1694 85.4946C88.0266 85.4943 86.8332 85.5914 85.8553 86.1811C85.3714 86.4729 84.9616 86.8736 84.4831 87.1742C83.6035 87.7269 82.5472 87.9106 81.5813 88.2946C80.5938 88.6949 79.7039 89.302 78.972 90.0749C78.2401 90.8478 77.6833 91.7684 77.3391 92.7745C77.1175 93.4568 76.9791 94.1633 76.9268 94.8787C76.7689 96.8382 77.1162 98.8054 77.9355 100.593C79.2379 103.425 81.7167 105.806 82.0669 108.902C83.4012 107.785 83.7924 105.911 84.8259 104.513C85.5952 103.479 86.6936 102.735 87.9414 102.404C88.2901 102.358 88.6179 102.212 88.8848 101.984C89.0645 101.736 89.1671 101.441 89.1801 101.136L89.8207 96.5365C89.951 95.6005 90.1272 94.5775 90.8475 93.9634C91.2993 93.6281 91.8228 93.4016 92.377 93.3015C93.6878 92.9765 95.0231 92.7594 96.3696 92.6523" fill="#1D1D1D"/>
<path opacity="0.1" d="M78.9727 160.269L92.0753 177.225C92.0753 177.225 80.0104 167.168 78.9727 160.269Z" fill="black"/>
<path opacity="0.1" d="M91.5498 141.496L91.4258 157.509L99.0357 168.892L92.8094 156.13L91.5498 141.496Z" fill="black"/>
<path d="M233.161 247.63L231.645 246.506C231.645 246.506 230.641 252.098 231.761 252.935C232.881 253.773 237.082 255.169 237.082 256.845C237.082 258.52 246.603 260.754 246.883 258.241C247.163 255.728 246.043 254.332 246.043 254.332C246.043 254.332 241.562 249.864 241.002 249.026C240.442 248.188 239.042 246.513 239.042 246.513L233.161 247.63Z" fill="#1D1D1D"/>
<path d="M255.564 178.099C255.564 178.099 255.522 178.345 255.449 178.794C255.382 179.194 255.29 179.758 255.178 180.453C254.001 187.61 250.571 208.679 250.803 209.374C251.083 210.212 253.044 213.283 250.803 214.121C250.5 214.297 250.256 214.561 250.106 214.878C249.625 215.768 249.229 216.701 248.922 217.665C247.586 221.529 246.158 227.714 245.332 231.998C244.97 233.88 244.724 235.394 244.651 236.187C244.626 236.37 244.623 236.556 244.643 236.74C244.923 237.857 242.963 241.766 242.122 242.883C241.282 244 239.882 245.117 240.162 246.234C240.442 247.351 233.162 250.422 232.321 248.468C231.481 246.513 231.481 245.396 231.201 244.838C230.921 244.279 230.641 240.37 232.041 239.811C233.442 239.253 232.601 229.479 234.002 227.525C234.469 226.874 235.183 224.671 235.931 222.021C236.225 220.982 236.522 219.876 236.813 218.768C237.995 214.224 239.042 209.653 239.042 209.653L238.762 176.982L254.164 175.027L254.559 175.896L255.346 177.619L255.564 178.099Z" fill="#3E3E3E"/>
<path d="M256.405 231.714C256.405 231.714 258.645 229.48 259.765 231.714C260.885 233.947 262.005 242.604 263.965 244.559C265.926 246.513 268.446 256.287 265.646 256.845C262.845 257.404 259.765 256.008 259.485 254.332C259.205 252.657 253.324 244 253.324 243.162C253.324 242.325 257.245 239.253 257.245 239.253L256.405 231.714Z" fill="#1D1D1D"/>
<path d="M221.96 162.741C221.96 162.741 225.6 195.412 226.44 198.484C227.281 201.556 231.761 213.284 233.161 215.238C234.561 217.193 243.522 233.11 244.642 233.947C245.763 234.785 248.003 237.019 248.003 237.019C248.003 237.019 252.203 241.208 252.763 242.045C253.323 242.883 258.084 240.37 258.364 238.695C258.644 237.019 258.084 234.227 257.804 233.11C257.524 231.993 258.364 230.317 257.524 229.48C256.684 228.642 252.483 224.453 252.483 222.499C252.483 220.544 245.202 209.095 242.402 206.582C239.602 204.069 240.162 199.88 240.162 199.88V182.846L255.564 178.099C255.564 178.099 254.723 164.696 252.763 164.696C250.803 164.696 225.04 160.228 221.96 162.741Z" fill="#3E3E3E"/>
<path d="M244.642 116.108C249.746 116.108 253.883 111.982 253.883 106.893C253.883 101.804 249.746 97.6782 244.642 97.6782C239.539 97.6782 235.401 101.804 235.401 106.893C235.401 111.982 239.539 116.108 244.642 116.108Z" fill="#FFB9B9"/>
<path d="M241.562 114.153C241.562 114.153 240.442 118.342 239.042 119.459C237.641 120.576 242.682 125.323 242.682 125.323L252.203 125.881L253.883 120.576C253.883 120.576 250.803 114.432 251.643 110.523C252.483 106.614 241.562 114.153 241.562 114.153Z" fill="#FFB9B9"/>
<path d="M237.642 118.9C237.642 118.9 240.163 119.18 240.723 120.017C241.283 120.855 245.203 123.368 248.284 122.81C251.364 122.251 253.324 121.414 253.884 121.693C254.444 121.972 255.564 127.836 255.564 127.836L252.484 136.772L253.044 161.345L253.884 168.047C253.884 168.047 255.564 165.813 248.844 167.209C242.123 168.605 233.442 166.092 230.642 165.813C227.841 165.534 223.081 164.696 222.801 163.02C222.521 161.345 223.641 155.202 223.641 155.202L228.121 136.493L230.922 126.44L237.642 118.9Z" fill="#3F3D56"/>
<path d="M240.29 117.64C240.29 117.64 237.922 116.387 237.082 117.504C236.242 118.621 225.6 120.296 225.6 121.134C225.6 121.972 223.36 144.59 223.92 146.545C224.48 148.5 222.8 150.734 222.8 150.734L220.84 159.111C220.84 159.111 215.519 175.028 217.76 175.586C220 176.145 221.96 175.586 222.8 175.586C223.64 175.586 223.36 164.975 225.6 162.183C227.841 159.39 230.921 152.409 231.481 151.013C232.041 149.617 239.042 130.349 238.762 128.115C238.482 125.881 240.29 117.64 240.29 117.64Z" fill="#D0CDE1"/>
<path d="M251.923 118.9C251.923 118.9 254.163 118.9 254.443 119.459C254.723 120.017 257.523 123.647 258.643 124.485C259.764 125.323 263.684 128.953 263.684 129.791C263.684 130.628 255.563 136.772 255.563 136.772C255.563 136.772 252.203 153.247 253.883 158.832C255.563 164.417 258.083 177.82 256.963 178.658C255.843 179.496 253.323 179.775 253.323 178.658C253.323 177.541 251.643 165.534 250.243 163.02C248.842 160.507 244.642 144.591 246.322 140.123C248.002 135.655 251.923 118.9 251.923 118.9Z" fill="#D0CDE1"/>
<path d="M214.96 146.545C214.96 146.545 214.68 155.201 217.76 159.669C219.758 162.656 221.447 165.837 222.801 169.163C222.801 169.163 227.841 167.767 228.681 166.092C229.521 164.416 234.842 165.813 234.842 165.254C234.842 164.696 228.401 161.903 227.841 161.345C227.281 160.786 225.321 160.786 224.201 159.669C223.081 158.552 222.801 156.039 222.801 156.039L221.68 148.779L214.96 146.545Z" fill="#FFB9B9"/>
<path d="M238.278 101.211C237.562 101.194 236.857 101.033 236.205 100.738C234.797 99.9808 234.424 97.8248 235.496 96.6408C235.791 96.3395 236.122 96.0745 236.48 95.8514L238.609 94.4067C239.55 93.7677 240.514 93.1182 241.612 92.817C242.619 92.5886 243.656 92.5276 244.682 92.6363C246.684 92.7067 248.665 93.0659 250.563 93.7025C252.44 94.3896 254.191 95.5391 255.328 97.1794C257.13 99.7798 257.155 103.287 256.162 106.289C255.17 109.291 253.284 111.905 251.426 114.466L250.462 109.776C250.376 109.358 250.265 108.9 249.917 108.653C249.051 108.038 247.992 109.3 246.929 109.292C246.246 109.287 245.672 108.726 245.414 108.096C245.202 107.448 245.088 106.771 245.078 106.09C244.951 104.653 244.447 102.653 243.083 101.861C241.811 101.122 239.707 101.34 238.278 101.211Z" fill="#1D1D1D"/>
<path opacity="0.1" d="M238.796 178.325C238.796 178.325 239.742 205.604 240.302 206.442C240.862 207.28 240.302 178.239 240.302 178.239L238.796 178.325Z" fill="black"/>
<path d="M227.841 121.134H225.6C225.6 121.134 216.079 133.979 217.199 134.817C218.32 135.655 217.199 137.889 217.199 137.889L214.959 142.077C214.959 142.077 212.159 144.59 212.999 145.149C213.839 145.707 214.959 147.941 214.959 147.941C214.959 147.941 220.56 147.104 222.24 150.455L225.872 145.882L227.841 121.134Z" fill="#D0CDE1"/>
<path d="M253.323 145.149C253.323 145.149 247.162 145.428 240.162 140.96L233.161 137.889C233.161 137.889 227 128.394 226.44 130.07C225.88 131.745 227.28 135.096 227.28 135.096C227.28 135.096 218.106 136.839 218.612 139.511C218.716 140.061 223.36 138.726 223.36 138.726C223.36 138.726 222.52 144.032 227.28 144.311C232.041 144.59 233.441 143.473 233.441 143.473C233.441 143.473 253.603 160.228 256.964 154.922C260.324 149.617 253.323 145.149 253.323 145.149Z" fill="#FFB9B9"/>
<path d="M260.605 128.674L263.685 129.791V138.168L264.805 139.843C264.805 139.843 264.525 143.194 263.685 144.032C262.845 144.87 261.165 144.591 261.725 146.545C262.061 147.82 262.156 149.145 262.005 150.455C262.005 150.455 256.964 156.877 256.684 156.039C256.404 155.202 252.484 144.87 251.924 144.87C251.364 144.87 257.524 128.674 257.524 128.674L260.605 128.674Z" fill="#D0CDE1"/>
<path d="M223.781 170.979C223.781 170.979 220.885 168.186 222.333 168.047C223.781 167.907 228.821 165.115 229.661 166.511C230.501 167.907 223.781 170.979 223.781 170.979Z" fill="#3E3E3E"/>
<path d="M127.339 245.204C127.339 252.365 123.07 254.865 117.804 254.865C117.682 254.865 117.56 254.864 117.438 254.861C117.194 254.856 116.953 254.844 116.714 254.828C111.961 254.493 108.269 251.864 108.269 245.204C108.269 238.312 117.101 229.615 117.764 228.971L117.765 228.97C117.791 228.945 117.804 228.933 117.804 228.933C117.804 228.933 127.339 238.043 127.339 245.204Z" fill="#246CAD"/>
<path d="M117.457 253.769L120.944 248.91L117.448 254.303L117.439 254.861C117.195 254.855 116.953 254.844 116.714 254.828L117.09 247.663L117.087 247.608L117.094 247.597L117.129 246.92L113.624 241.514L117.14 246.413L117.148 246.557L117.432 241.144L114.432 235.557L117.469 240.193L117.765 228.971L117.766 228.933V228.97L117.716 237.819L120.704 234.311L117.704 238.582L117.625 243.428L120.414 238.777L117.613 244.141L117.569 246.836L121.619 240.362L117.554 247.776L117.457 253.769Z" fill="#3F3D56"/>
</g>
<defs>
<clipPath id="clip0">
<rect width="228" height="249" fill="white" transform="translate(60 27)"/>
</clipPath>
</defs>
</svg>
