<svg width="387" height="327" viewBox="0 0 387 327" fill="none" xmlns="http://www.w3.org/2000/svg">
<path d="M379.987 185.873C360.415 248.197 231.659 326.5 131.432 326.5C33.754 314.249 -14.2024 249.795 3.68653 174.154C23.9694 88.3926 148.812 0.500488 249.04 0.500488C349.267 0.500488 408.07 96.4511 379.987 185.873Z" fill="#F0F0F0"/>
<g clip-path="url(#clip0)">
<g opacity="0.8">
<path opacity="0.1" d="M267.272 246.963C271.051 246.963 274.114 242.954 274.114 238.008C274.114 233.063 271.051 229.054 267.272 229.054C263.494 229.054 260.431 233.063 260.431 238.008C260.431 242.954 263.494 246.963 267.272 246.963Z" fill="#3F3D56"/>
<path opacity="0.1" d="M272.686 199.7C273.644 198.036 274.141 196.147 274.126 194.227C274.126 189.271 271.063 185.272 267.284 185.272C263.506 185.272 260.446 189.28 260.446 194.227C260.427 196.145 260.919 198.035 261.874 199.7C260.937 201.371 260.446 203.255 260.446 205.171C260.446 207.087 260.937 208.971 261.874 210.643C260.937 212.315 260.446 214.199 260.446 216.116C260.446 218.032 260.937 219.917 261.874 221.589C260.919 223.254 260.427 225.143 260.446 227.062C260.446 232.018 263.509 236.017 267.284 236.017C271.06 236.017 274.126 232.009 274.126 227.062C274.145 225.143 273.652 223.254 272.698 221.589C273.634 219.917 274.126 218.032 274.126 216.116C274.126 214.199 273.634 212.315 272.698 210.643C273.634 208.971 274.126 207.087 274.126 205.171C274.126 203.255 273.634 201.371 272.698 199.7H272.686Z" fill="#3F3D56"/>
<path opacity="0.1" d="M267.272 192.238C271.051 192.238 274.114 188.229 274.114 183.284C274.114 178.338 271.051 174.329 267.272 174.329C263.494 174.329 260.431 178.338 260.431 183.284C260.431 188.229 263.494 192.238 267.272 192.238Z" fill="#3F3D56"/>
<path opacity="0.1" d="M267.272 181.292C271.051 181.292 274.114 177.283 274.114 172.337C274.114 167.392 271.051 163.383 267.272 163.383C263.494 163.383 260.431 167.392 260.431 172.337C260.431 177.283 263.494 181.292 267.272 181.292Z" fill="#3F3D56"/>
<path opacity="0.1" d="M292.879 97.436C293.813 96.2456 294.663 94.9923 295.425 93.6851L277.462 90.7332L296.902 90.8788C298.765 86.8209 299.781 82.4255 299.888 77.9615C299.994 73.4975 299.189 69.0586 297.522 64.9164L271.438 78.4397L295.496 60.7659C293.241 56.8747 290.21 53.4891 286.591 50.8201C282.971 48.1511 278.841 46.2557 274.458 45.2519C270.074 44.2482 265.531 44.1575 261.111 44.9856C256.691 45.8137 252.489 47.5428 248.766 50.0653C245.043 52.5878 241.879 55.8496 239.471 59.6479C237.063 63.4461 235.462 67.6994 234.769 72.143C234.075 76.5866 234.304 81.1253 235.44 85.4767C236.577 89.8281 238.597 93.899 241.374 97.436C239.918 99.2879 238.666 101.291 237.639 103.411L260.969 115.534L236.093 107.171C234.343 112.333 233.908 117.85 234.827 123.223C235.747 128.596 237.991 133.654 241.359 137.941C237.557 142.774 235.192 148.58 234.535 154.694C233.877 160.808 234.953 166.983 237.639 172.515C240.326 178.046 244.514 182.71 249.726 185.973C254.938 189.236 260.962 190.966 267.111 190.966C273.26 190.966 279.284 189.236 284.496 185.973C289.708 182.71 293.896 178.046 296.583 172.515C299.269 166.983 300.345 160.808 299.687 154.694C299.03 148.58 296.665 142.774 292.863 137.941C297.406 132.165 299.876 125.03 299.876 117.682C299.876 110.334 297.406 103.199 292.863 97.4236L292.879 97.436Z" fill="#246CAD"/>
<path opacity="0.1" d="M234.362 117.696C234.351 125.046 236.822 132.184 241.374 137.953C237.573 142.787 235.208 148.592 234.55 154.706C233.893 160.82 234.968 166.996 237.655 172.527C240.341 178.059 244.53 182.722 249.741 185.985C254.953 189.248 260.978 190.979 267.127 190.979C273.275 190.979 279.3 189.248 284.512 185.985C289.724 182.722 293.912 178.059 296.599 172.527C299.285 166.996 300.361 160.82 299.703 154.706C299.045 148.592 296.681 142.787 292.879 137.953C297.271 132.378 234.362 114.016 234.362 117.696Z" fill="black"/>
</g>
<path opacity="0.1" d="M75.3871 237.386C77.686 237.386 79.5497 234.945 79.5497 231.934C79.5497 228.924 77.686 226.483 75.3871 226.483C73.0882 226.483 71.2246 228.924 71.2246 231.934C71.2246 234.945 73.0882 237.386 75.3871 237.386Z" fill="#246CAD"/>
<path opacity="0.1" d="M78.6985 208.614C79.2795 207.6 79.5799 206.45 79.5688 205.281C79.5688 202.27 77.7105 199.83 75.4031 199.83C73.0958 199.83 71.2406 202.27 71.2406 205.281C71.2285 206.449 71.5278 207.6 72.1078 208.614C71.5393 209.632 71.2408 210.779 71.2408 211.945C71.2408 213.111 71.5393 214.258 72.1078 215.276C71.5393 216.295 71.2408 217.441 71.2408 218.608C71.2408 219.774 71.5393 220.921 72.1078 221.939C71.5274 222.952 71.228 224.101 71.2406 225.268C71.2406 228.282 73.0989 230.723 75.4031 230.723C77.7074 230.723 79.5688 228.282 79.5688 225.268C79.5804 224.101 79.28 222.951 78.6985 221.939C79.2687 220.921 79.5682 219.774 79.5682 218.608C79.5682 217.441 79.2687 216.294 78.6985 215.276C79.2687 214.259 79.5682 213.112 79.5682 211.945C79.5682 210.779 79.2687 209.631 78.6985 208.614Z" fill="#246CAD"/>
<path opacity="0.1" d="M75.3871 204.07C77.686 204.07 79.5497 201.629 79.5497 198.618C79.5497 195.608 77.686 193.167 75.3871 193.167C73.0882 193.167 71.2246 195.608 71.2246 198.618C71.2246 201.629 73.0882 204.07 75.3871 204.07Z" fill="#246CAD"/>
<path opacity="0.1" d="M75.3871 197.407C77.686 197.407 79.5497 194.967 79.5497 191.956C79.5497 188.945 77.686 186.504 75.3871 186.504C73.0882 186.504 71.2246 188.945 71.2246 191.956C71.2246 194.967 73.0882 197.407 75.3871 197.407Z" fill="#246CAD"/>
<path opacity="0.1" d="M59.8056 146.356C59.2371 145.632 58.7197 144.869 58.257 144.073L69.1991 142.277L57.3651 142.367C56.2321 139.898 55.614 137.224 55.5485 134.508C55.483 131.792 55.9715 129.091 56.9841 126.57L72.8506 134.812L58.2106 124.033C59.5837 121.666 61.4292 119.607 63.6324 117.983C65.8355 116.36 68.3491 115.207 71.0167 114.597C73.6844 113.987 76.449 113.932 79.1387 114.437C81.8283 114.941 84.3855 115.994 86.6509 117.529C88.9164 119.064 90.8418 121.049 92.3073 123.36C93.7729 125.671 94.7471 128.259 95.1696 130.963C95.592 133.667 95.4535 136.429 94.7628 139.077C94.0721 141.726 92.8439 144.203 91.1545 146.356C92.0407 147.482 92.8029 148.7 93.4278 149.989L79.2245 157.374L94.3694 152.291C95.433 155.434 95.696 158.794 95.1347 162.065C94.5734 165.336 93.2054 168.415 91.1545 171.024C93.4684 173.966 94.9078 177.5 95.308 181.222C95.7082 184.944 95.0532 188.704 93.4178 192.071C91.7824 195.438 89.2327 198.277 86.06 200.263C82.8874 202.249 79.22 203.302 75.477 203.302C71.734 203.302 68.0665 202.249 64.8939 200.263C61.7213 198.277 59.1715 195.438 57.5361 192.071C55.9007 188.704 55.2457 184.944 55.6459 181.222C56.0462 177.5 57.4855 173.966 59.7994 171.024C57.0344 167.507 55.5312 163.164 55.5312 158.69C55.5312 154.217 57.0344 149.873 59.7994 146.356H59.8056Z" fill="#246CAD"/>
<path opacity="0.1" d="M95.4221 158.69C95.4287 163.165 93.9249 167.511 91.1543 171.024C93.4682 173.966 94.9075 177.501 95.3077 181.222C95.708 184.944 95.0529 188.704 93.4175 192.071C91.7821 195.438 89.2324 198.277 86.0597 200.263C82.8871 202.249 79.2197 203.303 75.4767 203.303C71.7337 203.303 68.0662 202.249 64.8936 200.263C61.721 198.277 59.1712 195.438 57.5358 192.071C55.9004 188.704 55.2454 184.944 55.6456 181.222C56.0458 177.501 57.4852 173.966 59.7991 171.024C57.1263 167.645 95.4221 156.451 95.4221 158.69Z" fill="#246CAD"/>
<path opacity="0.1" d="M169.23 242.131C172.307 242.131 174.802 238.865 174.802 234.836C174.802 230.808 172.307 227.542 169.23 227.542C166.153 227.542 163.658 230.808 163.658 234.836C163.658 238.865 166.153 242.131 169.23 242.131Z" fill="#3F3D56"/>
<path opacity="0.1" d="M173.641 203.627C174.417 202.27 174.818 200.73 174.802 199.167C174.802 195.14 172.325 191.873 169.228 191.873C166.131 191.873 163.653 195.14 163.653 199.167C163.636 200.731 164.039 202.271 164.817 203.627C164.054 204.989 163.653 206.524 163.653 208.086C163.653 209.647 164.054 211.183 164.817 212.545C164.054 213.906 163.653 215.441 163.653 217.002C163.653 218.563 164.054 220.097 164.817 221.459C164.039 222.815 163.636 224.355 163.653 225.919C163.653 229.946 166.149 233.213 169.228 233.213C172.306 233.213 174.802 229.946 174.802 225.919C174.818 224.356 174.417 222.816 173.641 221.459C174.403 220.097 174.803 218.562 174.803 217.002C174.803 215.441 174.403 213.907 173.641 212.545C174.403 211.182 174.803 209.647 174.803 208.086C174.803 206.525 174.403 204.99 173.641 203.627Z" fill="#3F3D56"/>
<path opacity="0.1" d="M169.23 197.547C172.307 197.547 174.802 194.281 174.802 190.252C174.802 186.224 172.307 182.958 169.23 182.958C166.153 182.958 163.658 186.224 163.658 190.252C163.658 194.281 166.153 197.547 169.23 197.547Z" fill="#3F3D56"/>
<path opacity="0.1" d="M169.23 188.63C172.307 188.63 174.802 185.364 174.802 181.335C174.802 177.307 172.307 174.041 169.23 174.041C166.153 174.041 163.658 177.307 163.658 181.335C163.658 185.364 166.153 188.63 169.23 188.63Z" fill="#3F3D56"/>
<path opacity="0.1" d="M148.384 120.316C147.622 119.348 146.929 118.327 146.309 117.262L160.949 114.859L145.116 114.977C143.597 111.671 142.768 108.09 142.68 104.453C142.592 100.816 143.247 97.1996 144.605 93.8244L165.851 104.845L146.256 90.4421C148.087 87.2603 150.554 84.4903 153.503 82.3052C156.453 80.1201 159.821 78.5668 163.398 77.7424C166.975 76.918 170.683 76.8403 174.292 77.514C177.9 78.1877 181.331 79.5983 184.369 81.6579C187.408 83.7174 189.989 86.3815 191.951 89.4837C193.914 92.5859 195.215 96.0596 195.775 99.6876C196.334 103.316 196.14 107.02 195.203 110.57C194.266 114.119 192.608 117.437 190.331 120.316C191.517 121.826 192.536 123.458 193.372 125.186L174.368 135.06L194.633 128.246C196.056 132.452 196.409 136.948 195.657 141.324C194.906 145.701 193.076 149.822 190.331 153.313C193.427 157.25 195.353 161.98 195.889 166.96C196.425 171.941 195.548 176.972 193.36 181.478C191.171 185.983 187.759 189.783 183.513 192.44C179.268 195.098 174.36 196.508 169.351 196.508C164.342 196.508 159.435 195.098 155.189 192.44C150.943 189.783 147.531 185.983 145.343 181.478C143.154 176.972 142.278 171.941 142.813 166.96C143.349 161.98 145.275 157.25 148.371 153.313C144.672 148.607 142.66 142.795 142.66 136.809C142.66 130.822 144.672 125.01 148.371 120.304L148.384 120.316Z" fill="#246CAD"/>
<path d="M361 241.474C361 243.602 345.447 245.547 319.731 247.05C315.055 247.319 310.043 247.576 304.729 247.818C300.137 248.024 295.324 248.219 290.29 248.403C285.413 248.577 280.349 248.738 275.099 248.886C258.517 249.36 240.185 249.701 220.71 249.871C215.984 249.915 211.195 249.948 206.343 249.97C201.288 249.993 196.176 250.004 191.006 250.001C97.12 250.001 21.0146 246.189 21.0146 241.484C21.0146 236.779 97.12 232.966 191.006 232.966C231.426 232.966 268.545 233.675 297.72 234.852L300.91 234.982H300.929C337.679 236.54 361 238.885 361 241.474Z" fill="#3F3D56"/>
<path opacity="0.15" d="M361 241.474C361 243.602 345.447 245.547 319.731 247.05C315.055 247.319 310.043 247.576 304.729 247.818C300.137 248.024 295.324 248.219 290.29 248.403C285.413 248.577 280.349 248.738 275.099 248.886C258.517 249.36 240.185 249.701 220.71 249.871C215.984 249.915 211.195 249.948 206.343 249.97C201.288 249.993 196.176 250.004 191.006 250.001C97.12 250.001 21.0146 246.189 21.0146 241.484C21.0146 236.779 97.12 232.966 191.006 232.966C231.426 232.966 268.545 233.675 297.72 234.852L300.91 234.982H300.929C337.679 236.54 361 238.885 361 241.474Z" fill="black"/>
<path d="M346.986 239.975C346.986 241.753 331.432 243.382 305.717 244.621C301.043 244.847 296.029 245.061 290.717 245.262C286.123 245.436 281.31 245.599 276.278 245.752C271.402 245.896 266.338 246.032 261.087 246.158C244.502 246.554 226.17 246.839 206.696 246.981C201.974 247.017 197.184 247.043 192.328 247.062C187.274 247.081 182.162 247.09 176.994 247.09C83.1084 247.09 7 243.903 7 239.966C7 236.029 83.1084 232.842 176.994 232.842C217.412 232.842 254.531 233.433 283.705 234.418L286.895 234.527H286.917C323.68 235.849 346.986 237.798 346.986 239.975Z" fill="#3F3D56"/>
<path d="M50.9045 175.261L46.6367 162.193L148.841 161.075L153.029 174.013L50.9045 175.261Z" fill="#3F3D56"/>
<path opacity="0.15" d="M50.9045 175.261L46.6367 162.193L148.841 161.075L153.029 174.013L50.9045 175.261Z" fill="black"/>
<path d="M44.0911 175.261L39.8232 162.193L142.028 161.075L146.215 174.013L44.0911 175.261Z" fill="#3F3D56"/>
<path d="M218.567 155.181C208 155.181 199.672 150.986 193.583 142.596C187.494 134.206 184.449 124.042 184.449 112.105C184.449 100.087 187.394 89.9442 193.282 81.6762C199.171 73.4082 207.477 69.2784 218.202 69.2866C229.574 69.2866 238.143 73.6426 243.908 82.3546C249.672 91.0665 252.556 101.15 252.558 112.604C252.558 123.975 249.574 133.916 243.607 142.425C237.64 150.935 229.293 155.187 218.567 155.181ZM218.877 145.743C225.829 145.743 231.025 142.713 234.464 136.652C237.904 130.591 239.624 122.951 239.624 113.731C239.624 103.468 237.864 95.0652 234.344 88.5215C230.823 81.9777 225.424 78.7048 218.146 78.7027C204.312 78.7027 197.395 89.6923 197.395 111.671C197.395 134.388 204.554 145.745 218.871 145.743H218.877ZM222.358 236.122H207.074L307.135 70.9685H322.131L222.358 236.122ZM310.88 237.816C300.153 237.816 291.791 233.583 285.793 225.117C279.795 216.65 276.783 206.486 276.759 194.623C276.759 182.685 279.682 172.583 285.53 164.315C291.377 156.047 299.704 151.917 310.511 151.925C321.803 151.925 330.312 156.281 336.037 164.993C341.763 173.705 344.627 183.787 344.629 195.239C344.629 206.536 341.665 216.458 335.737 225.005C329.809 233.552 321.521 237.822 310.873 237.816H310.88ZM311.059 228.137C317.978 228.137 323.146 225.158 326.563 219.201C329.98 213.243 331.689 205.634 331.689 196.373C331.689 186.461 329.96 178.149 326.501 171.436C323.043 164.723 317.655 161.361 310.338 161.351C296.423 161.351 289.466 172.34 289.466 194.319C289.462 216.866 296.658 228.139 311.053 228.137H311.059Z" fill="#3F3D56"/>
<path d="M218.567 155.181C208 155.181 199.672 150.986 193.583 142.596C187.494 134.206 184.449 124.042 184.449 112.105C184.449 100.087 187.394 89.9442 193.282 81.6762C199.171 73.4082 207.477 69.2784 218.202 69.2866C229.574 69.2866 238.143 73.6426 243.908 82.3546C249.672 91.0665 252.556 101.15 252.558 112.604C252.558 123.975 249.574 133.916 243.607 142.425C237.64 150.935 229.293 155.187 218.567 155.181ZM218.877 145.743C225.829 145.743 231.025 142.713 234.464 136.652C237.904 130.591 239.624 122.951 239.624 113.731C239.624 103.468 237.864 95.0652 234.344 88.5215C230.823 81.9777 225.424 78.7048 218.146 78.7027C204.312 78.7027 197.395 89.6923 197.395 111.671C197.395 134.388 204.554 145.745 218.871 145.743H218.877ZM222.358 236.122H207.074L307.135 70.9685H322.131L222.358 236.122ZM310.88 237.816C300.153 237.816 291.791 233.583 285.793 225.117C279.795 216.65 276.783 206.486 276.759 194.623C276.759 182.685 279.682 172.583 285.53 164.315C291.377 156.047 299.704 151.917 310.511 151.925C321.803 151.925 330.312 156.281 336.037 164.993C341.763 173.705 344.627 183.787 344.629 195.239C344.629 206.536 341.665 216.458 335.737 225.005C329.809 233.552 321.521 237.822 310.873 237.816H310.88ZM311.059 228.137C317.978 228.137 323.146 225.158 326.563 219.201C329.98 213.243 331.689 205.634 331.689 196.373C331.689 186.461 329.96 178.149 326.501 171.436C323.043 164.723 317.655 161.361 310.338 161.351C296.423 161.351 289.466 172.34 289.466 194.319C289.462 216.866 296.658 228.139 311.053 228.137H311.059Z" fill="#3F3D56"/>
<path opacity="0.15" d="M218.567 155.181C208 155.181 199.672 150.986 193.583 142.596C187.494 134.206 184.449 124.042 184.449 112.105C184.449 100.087 187.394 89.9442 193.282 81.6762C199.171 73.4082 207.477 69.2784 218.202 69.2866C229.574 69.2866 238.143 73.6426 243.908 82.3546C249.672 91.0665 252.556 101.15 252.558 112.604C252.558 123.975 249.574 133.916 243.607 142.425C237.64 150.935 229.293 155.187 218.567 155.181ZM218.877 145.743C225.829 145.743 231.025 142.713 234.464 136.652C237.904 130.591 239.624 122.951 239.624 113.731C239.624 103.468 237.864 95.0652 234.344 88.5215C230.823 81.9777 225.424 78.7048 218.146 78.7027C204.312 78.7027 197.395 89.6923 197.395 111.671C197.395 134.388 204.554 145.745 218.871 145.743H218.877ZM222.358 236.122H207.074L307.135 70.9685H322.131L222.358 236.122ZM310.88 237.816C300.153 237.816 291.791 233.583 285.793 225.117C279.795 216.65 276.783 206.486 276.759 194.623C276.759 182.685 279.682 172.583 285.53 164.315C291.377 156.047 299.704 151.917 310.511 151.925C321.803 151.925 330.312 156.281 336.037 164.993C341.763 173.705 344.627 183.787 344.629 195.239C344.629 206.536 341.665 216.458 335.737 225.005C329.809 233.552 321.521 237.822 310.873 237.816H310.88ZM311.059 228.137C317.978 228.137 323.146 225.158 326.563 219.201C329.98 213.243 331.689 205.634 331.689 196.373C331.689 186.461 329.96 178.149 326.501 171.436C323.043 164.723 317.655 161.361 310.338 161.351C296.423 161.351 289.466 172.34 289.466 194.319C289.462 216.866 296.658 228.139 311.053 228.137H311.059Z" fill="black"/>
<path d="M208.965 155.181C198.398 155.181 190.07 150.986 183.981 142.596C177.892 134.206 174.848 124.042 174.848 112.105C174.848 100.087 177.792 89.9442 183.681 81.6762C189.569 73.4082 197.876 69.2784 208.6 69.2866C219.973 69.2866 228.541 73.6426 234.306 82.3546C240.071 91.0665 242.954 101.15 242.956 112.604C242.956 123.975 239.973 133.916 234.006 142.425C228.038 150.935 219.692 155.187 208.965 155.181ZM209.275 145.743C216.227 145.743 221.423 142.713 224.863 136.652C228.303 130.591 230.023 122.951 230.023 113.731C230.023 103.468 228.263 95.0652 224.742 88.5215C221.222 81.9777 215.822 78.7048 208.544 78.7027C194.71 78.7027 187.794 89.6923 187.794 111.671C187.794 134.388 194.952 145.745 209.269 145.743H209.275ZM212.756 236.122H197.472L297.534 70.9685H312.53L212.756 236.122ZM301.278 237.816C290.552 237.816 282.189 233.583 276.191 225.117C270.193 216.65 267.182 206.486 267.157 194.623C267.157 182.685 270.081 172.583 275.928 164.315C281.775 156.047 290.103 151.917 300.909 151.925C312.201 151.925 320.71 156.281 326.436 164.993C332.161 173.705 335.025 183.787 335.027 195.239C335.027 206.536 332.063 216.458 326.135 225.005C320.208 233.552 311.92 237.822 301.272 237.816H301.278ZM301.458 228.137C308.377 228.137 313.545 225.158 316.962 219.201C320.379 213.243 322.087 205.634 322.087 196.373C322.087 186.461 320.358 178.149 316.9 171.436C313.441 164.723 308.051 161.361 300.73 161.351C286.815 161.351 279.858 172.34 279.858 194.319C279.858 216.866 287.056 228.139 301.451 228.137H301.458Z" fill="#3F3D56"/>
<path d="M242.402 240.266C243.678 237.9 242.229 235 240.562 232.888C238.896 230.776 236.865 228.583 236.908 225.891C236.97 222.029 241.07 219.746 244.341 217.695C246.773 216.176 249.017 214.373 251.025 212.324C251.865 211.535 252.56 210.604 253.078 209.574C253.756 208.062 253.735 206.343 253.697 204.689C253.555 199.172 253.282 193.663 252.88 188.162" stroke="#3F3D56" stroke-width="4" stroke-miterlimit="10"/>
<path d="M259.111 187.858C259.064 186.849 258.764 185.867 258.239 185.005C257.713 184.142 256.979 183.425 256.104 182.921L254.753 185.591L254.793 182.357C254.149 182.169 253.479 182.088 252.808 182.119C251.618 182.174 250.47 182.582 249.511 183.29C248.552 183.998 247.825 184.974 247.42 186.096C247.016 187.217 246.954 188.434 247.241 189.591C247.528 190.748 248.151 191.794 249.033 192.596C249.914 193.399 251.014 193.922 252.192 194.1C253.371 194.277 254.576 194.101 255.655 193.594C256.733 193.087 257.637 192.271 258.253 191.25C258.868 190.229 259.166 189.049 259.111 187.858Z" fill="#246CAD"/>
<path d="M248.364 228.663C247.732 229.892 246.696 230.866 245.431 231.422C244.166 231.978 242.748 232.082 241.415 231.716C240.083 231.351 238.916 230.538 238.111 229.415C237.307 228.291 236.912 226.925 236.995 225.546C237.078 224.166 237.632 222.857 238.566 221.838C239.499 220.818 240.754 220.151 242.121 219.948C243.488 219.744 244.883 220.017 246.073 220.72C247.263 221.423 248.175 222.514 248.656 223.81L244.889 226.873L249.04 225.906C249.038 226.866 248.806 227.811 248.364 228.663Z" fill="#246CAD"/>
<path d="M245.388 216.952C244.597 216.989 243.807 216.87 243.063 216.602C242.318 216.333 241.633 215.921 241.048 215.388C240.463 214.855 239.988 214.212 239.652 213.496C239.315 212.779 239.122 212.003 239.085 211.213C239.039 210.269 239.217 209.327 239.606 208.465C239.966 207.66 240.498 206.944 241.165 206.366C241.831 205.789 242.616 205.364 243.465 205.123L243.431 207.601L244.797 204.9C246.393 204.825 247.954 205.388 249.136 206.464C250.318 207.541 251.024 209.043 251.099 210.64C251.174 212.237 250.611 213.798 249.535 214.98C248.459 216.162 246.957 216.868 245.36 216.943L245.388 216.952Z" fill="#246CAD"/>
<path d="M260.019 207.217C259.218 207.27 258.416 207.163 257.658 206.902C256.899 206.641 256.201 206.232 255.603 205.698C255.005 205.164 254.519 204.516 254.174 203.792C253.83 203.068 253.633 202.282 253.595 201.481C253.558 200.68 253.681 199.88 253.956 199.127C254.232 198.374 254.655 197.683 255.2 197.096C255.746 196.508 256.403 196.035 257.134 195.705C257.864 195.374 258.653 195.193 259.455 195.171C260.581 195.116 261.7 195.382 262.682 195.936L261.617 198.854L263.809 196.751C264.986 197.824 265.689 199.32 265.764 200.911C265.791 201.469 265.739 202.028 265.609 202.571C265.309 203.848 264.601 204.992 263.592 205.831C262.583 206.669 261.329 207.156 260.019 207.217Z" fill="#246CAD"/>
<path opacity="0.1" d="M258.299 189.466C256.909 189.618 255.559 190.051 254.162 190.138C252.765 190.225 251.232 189.89 250.349 188.803C249.872 188.221 249.637 187.481 249.234 186.842C248.854 186.248 248.333 185.758 247.717 185.415C247.33 186.179 247.11 187.016 247.072 187.872C247.034 188.727 247.179 189.581 247.498 190.376C247.816 191.171 248.299 191.89 248.917 192.483C249.534 193.077 250.271 193.532 251.078 193.818C251.885 194.105 252.744 194.216 253.597 194.144C254.45 194.073 255.279 193.82 256.027 193.403C256.775 192.986 257.425 192.415 257.935 191.727C258.445 191.039 258.803 190.25 258.984 189.413C258.755 189.426 258.529 189.441 258.299 189.466Z" fill="black"/>
<path opacity="0.1" d="M260.019 207.217C258.98 207.264 257.947 207.042 257.019 206.573C256.092 206.103 255.301 205.402 254.724 204.537C254.148 203.672 253.804 202.672 253.727 201.635C253.651 200.598 253.843 199.559 254.286 198.619C254.763 198.942 255.175 199.354 255.497 199.833C255.927 200.48 256.188 201.23 256.692 201.824C257.622 202.93 259.235 203.29 260.688 203.224C262.14 203.159 263.546 202.744 264.996 202.605C265.197 202.586 265.402 202.574 265.615 202.568C265.316 203.847 264.607 204.992 263.597 205.832C262.587 206.671 261.331 207.157 260.019 207.217Z" fill="black"/>
<path opacity="0.1" d="M245.388 216.952C244.597 216.989 243.807 216.87 243.063 216.602C242.318 216.333 241.633 215.921 241.048 215.388C240.463 214.855 239.988 214.212 239.652 213.496C239.315 212.779 239.122 212.003 239.085 211.213C239.039 210.269 239.217 209.327 239.606 208.465C240.103 208.796 240.534 209.216 240.879 209.704C241.346 210.364 241.641 211.126 242.189 211.736C243.205 212.867 244.914 213.266 246.454 213.229C247.993 213.192 249.383 212.833 250.867 212.718C250.499 213.901 249.776 214.942 248.796 215.7C247.815 216.458 246.626 216.895 245.388 216.952Z" fill="black"/>
<path opacity="0.1" d="M248.364 228.663C247.663 230.042 246.459 231.098 245.001 231.613C243.543 232.128 241.942 232.063 240.531 231.431C239.119 230.8 238.004 229.649 237.417 228.219C236.83 226.788 236.815 225.186 237.376 223.745C237.872 224.071 238.318 224.469 238.698 224.925C239.271 225.625 239.649 226.418 240.312 227.068C241.551 228.276 243.533 228.775 245.304 228.821C246.327 228.83 247.348 228.777 248.364 228.663Z" fill="black"/>
<path d="M335.625 239.956C336.901 237.59 335.451 234.691 333.785 232.578C332.119 230.466 330.087 228.273 330.131 225.581C330.193 221.719 334.293 219.436 337.564 217.386C339.996 215.866 342.24 214.063 344.247 212.015C345.088 211.226 345.783 210.295 346.301 209.264C346.979 207.753 346.957 206.034 346.92 204.38C346.778 198.862 346.505 193.353 346.102 187.852" stroke="#3F3D56" stroke-width="4" stroke-miterlimit="10"/>
<path d="M352.334 187.548C352.288 186.539 351.988 185.558 351.462 184.695C350.937 183.832 350.203 183.116 349.327 182.611L347.977 185.281L348.017 182.047C347.373 181.859 346.702 181.779 346.032 181.809C344.841 181.865 343.694 182.272 342.735 182.98C341.776 183.688 341.048 184.665 340.644 185.786C340.24 186.908 340.177 188.124 340.464 189.281C340.751 190.438 341.375 191.484 342.256 192.287C343.138 193.089 344.237 193.612 345.416 193.79C346.595 193.968 347.799 193.792 348.878 193.285C349.957 192.778 350.861 191.962 351.476 190.941C352.091 189.92 352.39 188.739 352.334 187.548Z" fill="#246CAD"/>
<path d="M341.587 228.354C340.955 229.582 339.919 230.556 338.654 231.112C337.389 231.668 335.971 231.772 334.638 231.407C333.305 231.041 332.139 230.229 331.334 229.105C330.529 227.982 330.135 226.616 330.218 225.236C330.301 223.856 330.855 222.547 331.788 221.528C332.722 220.509 333.977 219.841 335.344 219.638C336.711 219.434 338.106 219.707 339.296 220.41C340.485 221.113 341.397 222.204 341.878 223.5L338.112 226.563L342.262 225.597C342.261 226.557 342.029 227.502 341.587 228.354Z" fill="#246CAD"/>
<path d="M338.612 216.643C337.821 216.68 337.031 216.561 336.286 216.292C335.541 216.024 334.857 215.611 334.272 215.078C333.686 214.545 333.212 213.902 332.875 213.186C332.538 212.47 332.346 211.694 332.309 210.903C332.262 209.959 332.441 209.017 332.829 208.156C333.189 207.35 333.722 206.634 334.388 206.057C335.055 205.479 335.84 205.055 336.688 204.814L336.654 207.292L338.02 204.591H338.036C338.826 204.554 339.616 204.673 340.361 204.941C341.106 205.209 341.79 205.622 342.375 206.155C342.961 206.688 343.435 207.331 343.772 208.047C344.109 208.764 344.301 209.539 344.338 210.33C344.375 211.121 344.256 211.911 343.988 212.656C343.719 213.401 343.307 214.085 342.774 214.67C342.241 215.256 341.598 215.73 340.882 216.067C340.166 216.404 339.39 216.596 338.599 216.633L338.612 216.643Z" fill="#246CAD"/>
<path d="M353.242 206.907C352.442 206.96 351.639 206.854 350.881 206.593C350.123 206.332 349.425 205.922 348.826 205.388C348.228 204.854 347.743 204.206 347.398 203.482C347.053 202.758 346.857 201.973 346.819 201.172C346.782 200.371 346.904 199.57 347.18 198.817C347.455 198.064 347.878 197.374 348.424 196.786C348.97 196.199 349.627 195.726 350.357 195.395C351.088 195.065 351.877 194.883 352.678 194.862C353.805 194.807 354.924 195.072 355.906 195.627L354.84 198.544L357.033 196.441C358.21 197.514 358.913 199.01 358.987 200.601C359.015 201.159 358.963 201.718 358.832 202.261C358.533 203.538 357.825 204.683 356.816 205.521C355.807 206.36 354.552 206.846 353.242 206.907Z" fill="#246CAD"/>
<path opacity="0.1" d="M351.523 189.156C350.132 189.308 348.782 189.741 347.385 189.828C345.989 189.915 344.455 189.58 343.573 188.493C343.096 187.911 342.86 187.17 342.458 186.532C342.078 185.938 341.556 185.448 340.94 185.104C340.553 185.869 340.334 186.706 340.296 187.562C340.258 188.417 340.403 189.271 340.721 190.066C341.039 190.861 341.523 191.58 342.14 192.173C342.758 192.767 343.494 193.222 344.301 193.508C345.108 193.795 345.967 193.906 346.821 193.834C347.674 193.763 348.502 193.51 349.25 193.093C349.998 192.676 350.649 192.105 351.159 191.417C351.669 190.729 352.026 189.94 352.208 189.103C351.978 189.116 351.752 189.131 351.523 189.156Z" fill="black"/>
<path opacity="0.1" d="M353.241 206.907C352.203 206.955 351.17 206.733 350.242 206.263C349.314 205.794 348.524 205.092 347.947 204.227C347.37 203.362 347.027 202.363 346.95 201.326C346.873 200.289 347.066 199.25 347.509 198.309C347.986 198.633 348.397 199.045 348.72 199.523C349.15 200.171 349.41 200.92 349.915 201.515C350.844 202.621 352.458 202.98 353.91 202.915C355.363 202.85 356.769 202.435 358.219 202.295C358.42 202.277 358.624 202.264 358.838 202.258C358.539 203.537 357.83 204.683 356.82 205.522C355.81 206.361 354.553 206.848 353.241 206.907Z" fill="black"/>
<path opacity="0.1" d="M338.612 216.642C337.821 216.679 337.031 216.56 336.286 216.292C335.541 216.023 334.857 215.611 334.272 215.078C333.686 214.545 333.212 213.902 332.875 213.186C332.538 212.469 332.346 211.693 332.309 210.903C332.262 209.959 332.441 209.017 332.829 208.155C333.326 208.486 333.758 208.906 334.102 209.394C334.57 210.054 334.864 210.816 335.412 211.426C336.428 212.557 338.138 212.956 339.677 212.919C341.17 212.888 342.607 212.523 344.09 212.408C343.723 213.591 343 214.632 342.019 215.39C341.039 216.147 339.849 216.585 338.612 216.642Z" fill="black"/>
<path opacity="0.1" d="M341.587 228.354C340.886 229.732 339.681 230.788 338.223 231.303C336.765 231.819 335.165 231.754 333.753 231.122C332.342 230.49 331.227 229.34 330.64 227.909C330.053 226.478 330.038 224.876 330.598 223.435C331.095 223.762 331.54 224.159 331.921 224.615C332.494 225.315 332.872 226.108 333.535 226.759C334.773 227.967 336.756 228.465 338.527 228.512C339.549 228.52 340.571 228.467 341.587 228.354Z" fill="black"/>
<path d="M41.0465 235.93C39.7705 233.563 41.22 230.664 42.8862 228.552C44.5525 226.439 46.5842 224.246 46.5408 221.555C46.4789 217.692 42.3783 215.409 39.1077 213.359C36.6753 211.839 34.4318 210.036 32.4242 207.988C31.5834 207.199 30.8883 206.268 30.3708 205.238C29.6925 203.726 29.7142 202.007 29.7514 200.353C29.8938 194.835 30.1664 189.326 30.569 183.825" stroke="#3F3D56" stroke-width="4" stroke-miterlimit="10"/>
<path d="M24.3376 183.522C24.3842 182.513 24.6841 181.532 25.2097 180.669C25.7352 179.806 26.4696 179.089 27.3449 178.585L28.6953 181.255L28.655 178.021C29.2991 177.833 29.9699 177.752 30.6403 177.783C31.8309 177.838 32.9783 178.246 33.9373 178.954C34.8964 179.662 35.6239 180.638 36.0281 181.76C36.4322 182.881 36.4947 184.098 36.2077 185.255C35.9208 186.412 35.2972 187.458 34.4158 188.26C33.5345 189.063 32.4349 189.586 31.2562 189.764C30.0776 189.941 28.8727 189.766 27.7939 189.258C26.7152 188.751 25.8111 187.936 25.1959 186.914C24.5806 185.893 24.282 184.713 24.3376 183.522Z" fill="#246CAD"/>
<path d="M35.0844 224.327C35.7167 225.556 36.7524 226.53 38.0176 227.086C39.2828 227.642 40.7007 227.746 42.0334 227.38C43.3661 227.015 44.5327 226.202 45.3375 225.079C46.1423 223.955 46.5363 222.589 46.4536 221.21C46.3708 219.83 45.8163 218.521 44.883 217.502C43.9497 216.482 42.6943 215.815 41.3275 215.612C39.9606 215.408 38.5654 215.681 37.3757 216.384C36.186 217.087 35.2742 218.178 34.7932 219.474L38.5593 222.537L34.4092 221.571C34.4109 222.53 34.6424 223.475 35.0844 224.327Z" fill="#246CAD"/>
<path d="M38.0604 212.616C38.8511 212.653 39.6413 212.534 40.386 212.265C41.1307 211.997 41.8152 211.584 42.4004 211.052C42.9857 210.519 43.4603 209.875 43.797 209.159C44.1338 208.443 44.3261 207.667 44.3631 206.876C44.41 205.932 44.2316 204.99 43.8428 204.129C43.4827 203.324 42.9506 202.607 42.2839 202.03C41.6172 201.452 40.8321 201.028 39.9838 200.787L40.0178 203.265L38.652 200.564C37.0552 200.489 35.4941 201.052 34.3121 202.128C33.1301 203.204 32.4241 204.706 32.3494 206.303C32.2746 207.9 32.8373 209.461 33.9135 210.643C34.9898 211.826 36.4915 212.532 38.0883 212.606L38.0604 212.616Z" fill="#246CAD"/>
<path d="M23.43 202.881C24.23 202.934 25.0326 202.827 25.7908 202.566C26.549 202.305 27.2476 201.896 27.8457 201.362C28.4438 200.828 28.9294 200.18 29.274 199.456C29.6187 198.732 29.8155 197.946 29.853 197.145C29.8905 196.344 29.7679 195.544 29.4923 194.791C29.2168 194.038 28.7938 193.347 28.2482 192.76C27.7026 192.172 27.0453 191.699 26.3148 191.369C25.5843 191.038 24.7952 190.857 23.9937 190.835C22.8725 190.783 21.7593 191.048 20.7819 191.6L21.8474 194.518L19.6391 192.424C18.4645 193.495 17.7618 194.987 17.6848 196.574C17.6574 197.132 17.7095 197.691 17.8397 198.235C18.1394 199.512 18.8474 200.656 19.8562 201.495C20.865 202.333 22.1197 202.82 23.43 202.881Z" fill="#246CAD"/>
<path opacity="0.1" d="M25.1493 185.13C26.5399 185.281 27.8902 185.715 29.287 185.802C30.6838 185.888 32.2169 185.554 33.0996 184.467C33.5765 183.884 33.8119 183.144 34.2146 182.506C34.5948 181.912 35.1162 181.421 35.7321 181.078C36.119 181.842 36.3387 182.68 36.3764 183.535C36.4142 184.391 36.2693 185.245 35.9512 186.04C35.6332 186.835 35.1494 187.553 34.532 188.147C33.9147 188.74 33.178 189.195 32.3709 189.482C31.5639 189.768 30.7051 189.879 29.8518 189.808C28.9985 189.736 28.1702 189.484 27.4221 189.067C26.6741 188.65 26.0234 188.079 25.5135 187.391C25.0035 186.703 24.6461 185.914 24.4648 185.077C24.694 185.089 24.9201 185.105 25.1493 185.13Z" fill="black"/>
<path opacity="0.1" d="M23.4305 202.881C24.4691 202.928 25.5023 202.706 26.4299 202.236C27.3575 201.767 28.148 201.066 28.7247 200.2C29.3015 199.335 29.645 198.336 29.7218 197.299C29.7986 196.262 29.6062 195.223 29.1632 194.282C28.6857 194.606 28.2747 195.018 27.9523 195.496C27.5218 196.144 27.2616 196.893 26.7568 197.488C25.8276 198.594 24.214 198.953 22.7615 198.888C21.3089 198.823 19.9029 198.408 18.4534 198.269C18.2521 198.25 18.0477 198.238 17.834 198.231C18.1334 199.51 18.842 200.656 19.8522 201.495C20.8623 202.334 22.1187 202.821 23.4305 202.881Z" fill="black"/>
<path opacity="0.1" d="M38.0608 212.616C38.8515 212.653 39.6417 212.534 40.3864 212.265C41.1311 211.997 41.8156 211.585 42.4008 211.052C42.9861 210.519 43.4607 209.876 43.7974 209.159C44.1341 208.443 44.3265 207.667 44.3635 206.876C44.4103 205.932 44.232 204.99 43.8431 204.129C43.3462 204.46 42.9147 204.88 42.5702 205.368C42.1026 206.028 41.8083 206.79 41.2601 207.4C40.2443 208.53 38.5347 208.93 36.9954 208.893C35.5026 208.862 34.0655 208.496 32.582 208.382C32.9497 209.565 33.6729 210.606 34.6532 211.363C35.6335 212.121 36.8233 212.558 38.0608 212.616Z" fill="black"/>
<path opacity="0.1" d="M35.085 224.327C35.7863 225.705 36.9906 226.761 38.4487 227.277C39.9068 227.792 41.5072 227.727 42.9187 227.095C44.3302 226.463 45.4449 225.313 46.0321 223.882C46.6193 222.451 46.6342 220.85 46.0735 219.408C45.5773 219.735 45.1318 220.132 44.751 220.588C44.1781 221.288 43.8002 222.081 43.1375 222.732C41.8986 223.94 39.9165 224.438 38.1449 224.485C37.1227 224.493 36.1009 224.44 35.085 224.327Z" fill="black"/>
<path d="M215.59 206.904C215.596 206.153 215.426 205.411 215.093 204.738C214.761 204.064 214.276 203.478 213.676 203.026C213.602 200.186 211.576 197.866 208.972 197.506C208.77 196.541 208.319 195.646 207.662 194.911C207.005 194.176 206.166 193.627 205.23 193.319C205.002 193.247 204.769 193.192 204.533 193.155H204.465L204.344 193.139H204.242H204.14H204.007H203.926H203.706C201.049 193.139 198.838 195.171 198.383 197.85C196.664 197.454 195.087 197.968 194.805 199.055C194.733 199.343 194.749 199.647 194.852 199.926C195.143 200.768 196.091 201.573 197.376 201.973L197.543 202.022C197.627 202.047 197.71 202.066 197.794 202.084H197.85C197.377 203.092 197.31 204.243 197.662 205.298C198.015 206.354 198.759 207.234 199.742 207.756C199.703 207.777 199.666 207.801 199.631 207.827C199.472 207.973 199.345 208.15 199.259 208.347C198.948 208.892 198.707 209.474 198.54 210.079C198.417 210.596 198.395 211.138 198.231 211.649C197.949 212.578 197.224 213.393 197.141 214.381C197.103 214.821 197.175 215.338 196.862 215.639C196.784 215.706 196.701 215.767 196.614 215.821C196.395 215.971 196.209 216.166 196.069 216.391C195.978 216.578 195.855 216.748 195.707 216.893C195.425 217.107 194.96 217.085 194.821 217.413C194.681 217.742 195.041 218.129 194.957 218.488C194.889 218.779 194.57 218.913 194.338 219.108C194.078 219.39 193.896 219.734 193.811 220.108C193.348 220.197 192.872 220.183 192.415 220.067C191.959 219.951 191.533 219.736 191.169 219.436C191.294 219.755 191.385 220.086 191.442 220.424C191.073 220.031 190.466 219.916 190.017 219.712C189.438 219.446 188.921 219.062 188.5 218.584L189.311 218.473L185.718 213.021L184.659 212.805L185.61 214.629C185.532 214.666 185.464 214.721 185.41 214.788C185.357 214.856 185.319 214.935 185.3 215.019C185.249 215.221 185.236 215.432 185.263 215.639C185.313 216.128 185.395 216.613 185.508 217.091L185.783 218.374C185.807 218.494 185.837 218.613 185.873 218.73C185.514 218.717 185.155 218.758 184.808 218.851C184.096 218.587 183.354 218.411 182.6 218.327C182.434 218.298 182.263 218.307 182.101 218.352C181.917 218.437 181.757 218.567 181.636 218.73C181.017 219.446 180.467 220.22 179.995 221.04C178.065 224.398 175.489 227.328 173.076 230.364C171.41 231.042 169.731 231.686 168.049 232.324L164.435 233.703C163.713 233.978 162.964 234.26 162.196 234.211C161.849 234.189 161.428 234.136 161.233 234.431C161.138 234.576 161.064 234.735 161.013 234.901C160.886 234.901 160.759 234.932 160.641 234.938H160.619C160.39 234.369 160.192 233.758 159.752 233.343C159.664 233.357 159.58 233.392 159.509 233.446C159.437 233.501 159.38 233.572 159.343 233.653C159.257 233.814 159.204 233.991 159.105 234.139C158.91 234.424 158.572 234.564 158.331 234.805C158.089 235.047 157.937 235.425 157.677 235.66C157.313 235.925 156.886 236.09 156.438 236.14C155.768 236.298 155.121 236.544 154.515 236.871C154.291 237.009 154.052 237.119 153.803 237.2C153.528 237.252 153.247 237.262 152.97 237.227L151.056 237.088C150.885 237.066 150.712 237.073 150.545 237.11C150.347 237.182 150.18 237.318 150.068 237.495C149.956 237.673 149.905 237.883 149.925 238.092C149.948 238.299 150.014 238.5 150.118 238.681C150.222 238.862 150.362 239.02 150.529 239.145C150.861 239.388 151.229 239.58 151.619 239.712C153.282 240.356 154.997 240.858 156.745 241.214V241.601C157.956 242.211 159.294 242.529 160.65 242.53C160.75 242.538 160.851 242.52 160.942 242.478C161.067 242.383 161.154 242.247 161.186 242.093C161.592 240.879 161.849 239.619 161.951 238.343C162.19 238.327 162.425 238.267 162.642 238.166C163.302 237.986 163.955 238.439 164.633 238.513C165.469 238.603 166.247 238.116 167.037 237.816C167.151 237.773 167.266 237.735 167.38 237.698C167.155 237.99 166.889 238.247 166.591 238.463C166.262 238.699 165.894 238.872 165.572 239.117C165.304 239.361 165.017 239.584 164.714 239.783C164.5 239.882 164.28 239.967 164.054 240.037C163.727 240.156 163.415 240.313 163.125 240.505C162.865 240.658 162.644 240.87 162.481 241.124C162.398 241.243 162.348 241.38 162.334 241.524C162.32 241.667 162.343 241.812 162.4 241.945C162.458 242.077 162.549 242.192 162.664 242.279C162.779 242.367 162.914 242.423 163.057 242.443C163.316 242.489 163.58 242.497 163.84 242.465C164.875 242.388 165.906 242.292 166.938 242.199C167.374 242.17 167.808 242.108 168.235 242.013C168.461 241.957 168.684 241.883 168.91 241.824C169.296 241.722 169.692 241.663 170.09 241.647C170.206 241.638 170.322 241.65 170.434 241.682C170.676 241.759 170.846 241.991 171.091 242.053C171.25 242.069 171.41 242.046 171.558 241.988C172.313 241.824 173.084 241.742 173.856 241.743C174.194 241.725 174.59 241.66 174.748 241.347C174.94 240.96 174.618 240.526 174.491 240.108C174.427 239.842 174.391 239.57 174.386 239.297C174.327 238.622 174.133 237.965 173.816 237.367C173.648 237.088 173.506 236.793 173.392 236.487C174.872 235.924 176.288 235.206 177.616 234.344C178.378 233.87 179.165 233.359 180.026 233.185C181.029 232.984 182.064 233.25 183.052 233.535C185.405 234.216 187.72 235.024 189.986 235.954C191.07 236.397 192.154 236.868 193.263 237.193C193.587 237.631 193.979 238.014 194.424 238.327C195.168 238.807 196.075 238.947 196.949 239.015C198.128 239.122 199.313 239.167 200.498 239.148C201.402 239.132 202.334 239.07 203.143 238.658C203.34 238.557 203.526 238.435 203.697 238.293C204.317 238.404 204.951 238.073 205.438 237.649C206.081 237.101 206.545 236.373 206.769 235.558C207.054 234.44 206.835 233.136 207.522 232.222C207.705 231.977 207.943 231.779 208.123 231.531C208.344 231.2 208.453 230.805 208.433 230.407L208.464 230.361C208.619 230.001 208.723 229.622 208.773 229.233C208.855 228.93 208.958 228.633 209.083 228.344C209.432 227.48 209.736 226.598 209.994 225.702C210.173 225.108 210.313 224.502 210.415 223.89C210.489 223.401 210.532 222.908 210.573 222.416C210.622 221.645 210.772 220.884 211.019 220.152C211.63 218.404 211.976 216.575 212.044 214.725C212.044 214.688 212.044 214.654 212.044 214.616C212.943 214.518 213.773 214.087 214.372 213.409C214.97 212.731 215.294 211.854 215.28 210.949C215.281 210.404 215.167 209.865 214.946 209.366C215.373 208.616 215.595 207.767 215.59 206.904ZM198.076 228.186C198.129 228.375 198.19 228.564 198.252 228.753C197.968 228.471 197.686 228.18 197.398 227.901C197.512 227.935 197.627 227.972 197.738 228.013C197.857 228.06 197.971 228.118 198.079 228.186H198.076ZM196.688 227.257C194.997 225.789 193.04 224.649 191.309 223.23C192.238 223.698 193.167 224.24 194.096 224.76C195.178 225.38 196.272 225.973 197.379 226.538C197.198 226.814 196.966 227.053 196.698 227.245L196.688 227.257ZM197.41 223.559L197.491 223.475C197.491 223.683 197.491 223.878 197.491 224.054C197.339 224.005 197.181 223.955 197.035 223.899C197.169 223.79 197.295 223.672 197.413 223.546L197.41 223.559ZM182.522 227.536C183.219 226.748 183.824 225.885 184.328 224.962C184.997 226.136 186.087 226.981 187.016 227.963C185.523 227.753 184.027 227.588 182.525 227.523L182.522 227.536Z" fill="url(#paint0_linear)"/>
<path d="M184.938 213.257L186.007 213.474L189.646 218.851L188.039 219.068L184.938 213.257Z" fill="#2F2E41"/>
<path d="M159.062 235.081C159.35 236.034 159.705 236.966 160.124 237.869C161.33 237.617 162.516 237.278 163.673 236.856C163.449 236.507 163.203 236.173 162.936 235.856C162.652 235.539 162.311 235.278 161.933 235.084C161.564 234.923 161.109 235.044 160.715 235.066C160.164 235.086 159.613 235.092 159.062 235.081Z" fill="#FBBEBE"/>
<path d="M161.939 236.518C161.338 236.329 160.969 235.722 160.725 235.137C160.48 234.552 160.282 233.913 159.817 233.483C159.729 233.497 159.645 233.532 159.574 233.586C159.502 233.64 159.446 233.711 159.408 233.793C159.319 233.948 159.266 234.124 159.164 234.273C158.972 234.552 158.631 234.688 158.386 234.926C158.142 235.165 157.99 235.527 157.727 235.766C157.361 236.028 156.935 236.193 156.488 236.243C155.813 236.396 155.161 236.637 154.549 236.961C154.323 237.093 154.081 237.197 153.83 237.271C153.554 237.324 153.271 237.333 152.991 237.299L151.062 237.16C150.89 237.138 150.716 237.147 150.548 237.184C150.351 237.253 150.183 237.385 150.071 237.56C149.958 237.736 149.908 237.944 149.928 238.151C149.954 238.357 150.022 238.556 150.129 238.735C150.235 238.913 150.378 239.068 150.548 239.188C150.883 239.428 151.253 239.616 151.644 239.746C153.325 240.378 155.055 240.872 156.816 241.223V241.604C158.04 242.21 159.387 242.528 160.753 242.534C160.859 242.543 160.965 242.525 161.062 242.481C161.188 242.389 161.276 242.255 161.31 242.103C161.773 240.75 162.043 239.338 162.112 237.909C162.148 237.548 162.12 237.183 162.032 236.831C161.926 236.484 162.286 236.63 161.951 236.494" fill="#2F2E41"/>
<path d="M198.931 229.246C193.211 229.592 187.562 227.914 181.832 227.734C181.121 227.691 180.407 227.737 179.708 227.87C178.978 228.066 178.272 228.34 177.602 228.688C174.532 230.116 171.355 231.299 168.18 232.482L164.538 233.839C163.807 234.109 163.054 234.384 162.277 234.338C161.93 234.316 161.506 234.263 161.308 234.555C160.716 235.431 160.998 236.723 161.388 237.708C161.515 238.017 161.729 238.374 162.07 238.411C162.311 238.394 162.547 238.334 162.766 238.234C163.429 238.058 164.092 238.504 164.773 238.575C165.619 238.665 166.402 238.185 167.198 237.89C168.518 237.404 169.961 237.42 171.349 237.187C173.678 236.8 175.833 235.719 177.852 234.486C178.621 234.019 179.401 233.517 180.281 233.347C181.293 233.148 182.337 233.408 183.331 233.69C185.701 234.361 188.035 235.156 190.321 236.072C191.512 236.589 192.732 237.034 193.976 237.404C196.687 238.118 199.555 237.951 202.165 236.927C203.094 236.565 204.073 235.927 204.125 234.939C204.156 234.375 203.72 233.879 203.428 233.39C203.239 233.08 203.054 232.77 202.849 232.476C201.864 231.039 200.669 229.14 198.931 229.246Z" fill="#2F2E41"/>
<path opacity="0.1" d="M198.931 229.246C193.211 229.592 187.562 227.914 181.832 227.734C181.121 227.691 180.407 227.737 179.708 227.87C178.978 228.066 178.272 228.34 177.602 228.688C174.532 230.116 171.355 231.299 168.18 232.482L164.538 233.839C163.807 234.109 163.054 234.384 162.277 234.338C161.93 234.316 161.506 234.263 161.308 234.555C160.716 235.431 160.998 236.723 161.388 237.708C161.515 238.017 161.729 238.374 162.07 238.411C162.311 238.394 162.547 238.334 162.766 238.234C163.429 238.058 164.092 238.504 164.773 238.575C165.619 238.665 166.402 238.185 167.198 237.89C168.518 237.404 169.961 237.42 171.349 237.187C173.678 236.8 175.833 235.719 177.852 234.486C178.621 234.019 179.401 233.517 180.281 233.347C181.293 233.148 182.337 233.408 183.331 233.69C185.701 234.361 188.035 235.156 190.321 236.072C191.512 236.589 192.732 237.034 193.976 237.404C196.687 238.118 199.555 237.951 202.165 236.927C203.094 236.565 204.073 235.927 204.125 234.939C204.156 234.375 203.72 233.879 203.428 233.39C203.239 233.08 203.054 232.77 202.849 232.476C201.864 231.039 200.669 229.14 198.931 229.246Z" fill="black"/>
<path d="M170.041 235.36C170.937 235.664 171.839 235.945 172.748 236.203C173.259 235.363 174.213 234.781 174.43 233.824C174.442 233.782 174.442 233.738 174.43 233.697C174.406 233.656 174.37 233.624 174.327 233.604C173.675 233.244 172.95 233.032 172.206 232.985C171.617 232.947 171.351 233.561 171.085 233.991C170.992 234.165 170.279 235.441 170.041 235.36Z" fill="#FBBEBE"/>
<path d="M171.302 234.747C171.035 234.702 170.78 234.603 170.553 234.454C170.326 234.305 170.133 234.11 169.986 233.883C169.859 233.663 169.726 233.365 169.472 233.381C169.218 233.396 169.131 233.675 169.078 233.908C168.907 234.775 168.659 235.626 168.338 236.45C168.015 237.277 167.466 237.997 166.756 238.529C166.424 238.758 166.056 238.931 165.731 239.173C165.459 239.415 165.169 239.634 164.863 239.83C164.648 239.928 164.425 240.011 164.197 240.078C163.864 240.194 163.545 240.349 163.247 240.539C162.985 240.692 162.764 240.904 162.599 241.159C162.52 241.288 162.474 241.434 162.464 241.585C162.454 241.736 162.481 241.888 162.544 242.026C162.61 242.138 162.7 242.235 162.807 242.31C162.913 242.385 163.035 242.437 163.163 242.463C163.424 242.506 163.69 242.512 163.953 242.481C164.997 242.404 166.037 242.311 167.078 242.218C167.518 242.191 167.956 242.131 168.388 242.038C168.617 241.982 168.84 241.908 169.066 241.849C169.456 241.75 169.856 241.692 170.258 241.676C170.375 241.667 170.493 241.678 170.605 241.71C170.847 241.787 171.017 242.02 171.265 242.075C171.425 242.092 171.586 242.071 171.736 242.013C172.497 241.852 173.274 241.771 174.052 241.772C174.393 241.753 174.796 241.688 174.951 241.382C175.146 241.001 174.824 240.573 174.694 240.164C174.629 239.902 174.593 239.635 174.585 239.365C174.527 238.7 174.331 238.053 174.012 237.466C173.746 236.977 173.393 236.438 173.569 235.918C173.664 235.755 173.724 235.575 173.746 235.388C173.702 234.549 171.773 234.858 171.302 234.747Z" fill="#2F2E41"/>
<path d="M190.355 220.071C189.342 219.624 188.53 218.817 188.075 217.807C187.982 217.59 187.902 217.364 187.812 217.144C187.511 216.417 187.044 215.77 186.449 215.255C186.386 215.185 186.308 215.129 186.22 215.092C186.133 215.055 186.039 215.038 185.945 215.041C185.853 215.068 185.77 215.119 185.705 215.189C185.64 215.258 185.594 215.344 185.573 215.437C185.52 215.639 185.506 215.85 185.533 216.057C185.586 216.537 185.668 217.014 185.78 217.485L186.059 218.748C186.094 218.943 186.153 219.132 186.233 219.312C186.352 219.524 186.509 219.712 186.697 219.867C186.951 220.102 187.208 220.328 187.468 220.548C187.612 220.678 187.769 220.792 187.936 220.889C188.211 221.019 188.505 221.105 188.806 221.143C189.943 221.353 191.098 221.657 192.055 222.382C192.055 222.382 192.055 221.536 192.034 221.452C192.022 221.207 191.938 220.971 191.792 220.774C191.433 220.387 190.813 220.272 190.355 220.071Z" fill="#FBBEBE"/>
<path opacity="0.1" d="M190.355 220.071C189.342 219.624 188.53 218.817 188.075 217.807C187.982 217.59 187.902 217.364 187.812 217.144C187.511 216.417 187.044 215.77 186.449 215.255C186.386 215.185 186.308 215.129 186.22 215.092C186.133 215.055 186.039 215.038 185.945 215.041C185.853 215.068 185.77 215.119 185.705 215.189C185.64 215.258 185.594 215.344 185.573 215.437C185.52 215.639 185.506 215.85 185.533 216.057C185.586 216.537 185.668 217.014 185.78 217.485L186.059 218.748C186.094 218.943 186.153 219.132 186.233 219.312C186.352 219.524 186.509 219.712 186.697 219.867C186.951 220.102 187.208 220.328 187.468 220.548C187.612 220.678 187.769 220.792 187.936 220.889C188.211 221.019 188.505 221.105 188.806 221.143C189.943 221.353 191.098 221.657 192.055 222.382C192.055 222.382 192.055 221.536 192.034 221.452C192.022 221.207 191.938 220.971 191.792 220.774C191.433 220.387 190.813 220.272 190.355 220.071Z" fill="black"/>
<path d="M202.001 210.407C202.769 210.407 203.392 209.781 203.392 209.007C203.392 208.234 202.769 207.607 202.001 207.607C201.233 207.607 200.61 208.234 200.61 209.007C200.61 209.781 201.233 210.407 202.001 210.407Z" fill="#2F2E41"/>
<path d="M201.139 208.162C200.766 208.077 200.374 208.133 200.04 208.32C199.879 208.462 199.751 208.637 199.665 208.834C199.352 209.369 199.109 209.941 198.94 210.537C198.817 211.049 198.795 211.581 198.631 212.086C198.346 213.015 197.615 213.805 197.531 214.775C197.494 215.208 197.565 215.719 197.249 216.014C197.171 216.079 197.087 216.139 196.999 216.19C196.779 216.338 196.592 216.53 196.45 216.754C196.356 216.955 196.224 217.137 196.063 217.29C195.778 217.5 195.311 217.479 195.171 217.804C195.032 218.129 195.391 218.507 195.308 218.86C195.239 219.148 194.917 219.281 194.688 219.48C194.427 219.756 194.244 220.097 194.158 220.468C193.693 220.555 193.215 220.541 192.755 220.426C192.296 220.311 191.867 220.098 191.498 219.802C191.885 220.759 191.894 221.815 191.91 222.847C191.955 223.176 191.867 223.511 191.665 223.776C192.774 223.801 193.852 224.086 194.933 224.343C195.395 224.497 195.895 224.497 196.357 224.343C196.605 224.209 196.826 224.033 197.011 223.822C197.599 223.224 198.216 222.583 198.358 221.75C198.396 221.281 198.404 220.811 198.383 220.341C198.44 219.761 198.559 219.188 198.739 218.634C199.05 217.483 199.257 216.307 199.359 215.119C199.424 214.384 200.055 213.796 200.39 213.139C201.009 211.9 201.66 210.615 201.709 209.227C201.753 208.775 201.598 208.221 201.139 208.162Z" fill="#2F2E41"/>
<path opacity="0.1" d="M201.139 208.162C200.766 208.077 200.374 208.133 200.04 208.32C199.879 208.462 199.751 208.637 199.665 208.834C199.352 209.369 199.109 209.941 198.94 210.537C198.817 211.049 198.795 211.581 198.631 212.086C198.346 213.015 197.615 213.805 197.531 214.775C197.494 215.208 197.565 215.719 197.249 216.014C197.171 216.079 197.087 216.139 196.999 216.19C196.779 216.338 196.592 216.53 196.45 216.754C196.356 216.955 196.224 217.137 196.063 217.29C195.778 217.5 195.311 217.479 195.171 217.804C195.032 218.129 195.391 218.507 195.308 218.86C195.239 219.148 194.917 219.281 194.688 219.48C194.427 219.756 194.244 220.097 194.158 220.468C193.693 220.555 193.215 220.541 192.755 220.426C192.296 220.311 191.867 220.098 191.498 219.802C191.885 220.759 191.894 221.815 191.91 222.847C191.955 223.176 191.867 223.511 191.665 223.776C192.774 223.801 193.852 224.086 194.933 224.343C195.395 224.497 195.895 224.497 196.357 224.343C196.605 224.209 196.826 224.033 197.011 223.822C197.599 223.224 198.216 222.583 198.358 221.75C198.396 221.281 198.404 220.811 198.383 220.341C198.44 219.761 198.559 219.188 198.739 218.634C199.05 217.483 199.257 216.307 199.359 215.119C199.424 214.384 200.055 213.796 200.39 213.139C201.009 211.9 201.66 210.615 201.709 209.227C201.753 208.775 201.598 208.221 201.139 208.162Z" fill="black"/>
<path d="M199.838 230.451C198.646 229.884 197.776 228.828 196.812 227.923C194.973 226.195 192.724 224.975 190.792 223.355C189.513 222.283 188.367 221.035 186.957 220.136C185.718 219.346 184.312 218.853 182.851 218.696C182.684 218.667 182.512 218.675 182.349 218.721C182.164 218.804 182.003 218.931 181.881 219.093C181.257 219.796 180.702 220.559 180.224 221.369C177.775 225.526 174.296 229.023 171.413 232.892C171.321 232.983 171.266 233.105 171.259 233.235C171.253 233.365 171.296 233.492 171.379 233.592L171.964 234.741C172.293 235.382 172.819 236.131 173.513 236.004C173.831 235.913 174.116 235.731 174.334 235.481L176.966 232.963L179.726 230.324C181.342 228.775 182.987 227.195 184.043 225.219C184.867 226.647 186.329 227.583 187.332 228.893C187.713 229.388 188.023 229.937 188.364 230.463C188.912 231.309 189.531 232.102 190.151 232.892L193.319 236.934C193.719 237.509 194.214 238.012 194.784 238.42C195.533 238.894 196.447 239.021 197.33 239.099C198.519 239.207 199.713 239.251 200.907 239.229C201.817 239.213 202.765 239.155 203.57 238.749C204.376 238.343 205.06 237.51 205.017 236.602C204.967 236.127 204.812 235.668 204.561 235.261C203.443 233.186 201.963 231.451 199.838 230.451Z" fill="#2F2E41"/>
<path d="M202.856 211.051C203.446 211.051 203.924 210.57 203.924 209.977C203.924 209.383 203.446 208.902 202.856 208.902C202.266 208.902 201.787 209.383 201.787 209.977C201.787 210.57 202.266 211.051 202.856 211.051Z" fill="#E8E8F0"/>
<path d="M202.62 209.168C202.862 209.649 202.904 210.205 202.738 210.717C202.573 211.22 202.342 211.699 202.05 212.142C201.8 212.599 201.5 213.027 201.155 213.418C202.806 213.498 204.407 212.851 205.863 212.064C207.037 211.445 208.207 210.655 208.833 209.475C208.647 209.519 208.453 209.524 208.265 209.49C208.077 209.455 207.898 209.381 207.74 209.273C207.425 209.054 207.142 208.791 206.9 208.493L206.073 207.564C205.878 207.36 205.707 207.134 205.562 206.892C205.381 206.562 205.305 206.185 205.343 205.811C205.013 206.155 204.645 206.461 204.246 206.721C203.655 207.108 203.007 207.387 202.41 207.768C202.199 207.904 201.731 208.124 201.852 208.388C201.973 208.651 202.453 208.871 202.62 209.168Z" fill="#FBBEBE"/>
<path opacity="0.1" d="M202.62 209.168C202.862 209.649 202.904 210.205 202.738 210.717C202.573 211.22 202.342 211.699 202.05 212.142C201.8 212.599 201.5 213.027 201.155 213.418C202.806 213.498 204.407 212.851 205.863 212.064C207.037 211.445 208.207 210.655 208.833 209.475C208.647 209.519 208.453 209.524 208.265 209.49C208.077 209.455 207.898 209.381 207.74 209.273C207.425 209.054 207.142 208.791 206.9 208.493L206.073 207.564C205.878 207.36 205.707 207.134 205.562 206.892C205.381 206.562 205.305 206.185 205.343 205.811C205.013 206.155 204.645 206.461 204.246 206.721C203.655 207.108 203.007 207.387 202.41 207.768C202.199 207.904 201.731 208.124 201.852 208.388C201.973 208.651 202.453 208.871 202.62 209.168Z" fill="black"/>
<path d="M202.641 209.329C202.474 209.565 202.385 209.847 202.385 210.136C202.385 210.425 202.474 210.707 202.641 210.943C202.688 211.002 202.864 211.371 202.951 211.374C203.024 211.368 203.092 211.333 203.14 211.278C203.514 210.887 203.864 210.473 204.187 210.039C204.513 209.599 204.985 209.289 205.519 209.165C206.166 209.063 206.788 209.407 207.355 209.735C207.599 209.856 207.811 210.032 207.975 210.249C208.094 210.465 208.165 210.704 208.182 210.949C208.345 212.426 208.407 213.912 208.368 215.397C208.398 216.468 208.328 217.539 208.157 218.597C208.052 219.142 207.894 219.675 207.82 220.226C207.765 220.711 207.744 221.2 207.755 221.688V223.732C207.741 224.107 207.768 224.482 207.835 224.851C207.963 225.29 208.113 225.724 208.284 226.148C208.435 226.654 208.539 227.172 208.594 227.697L208.873 229.813C208.963 230.482 209.028 231.209 208.622 231.745C208.442 231.99 208.201 232.182 208.002 232.424C207.306 233.31 207.538 234.595 207.228 235.695C206.999 236.501 206.53 237.22 205.884 237.754C205.392 238.172 204.754 238.504 204.116 238.374C203.258 238.213 202.74 237.318 202.505 236.472C202.27 235.626 202.195 234.703 201.678 233.994C201.263 233.409 200.622 233.043 200.043 232.625C199.464 232.207 198.894 231.671 198.767 230.965C198.711 230.655 198.745 230.345 198.714 230.036C198.668 229.641 198.517 229.266 198.276 228.95C198.035 228.634 197.714 228.388 197.345 228.239C196.906 228.069 196.36 228.007 196.106 227.62C196.737 227.224 197.197 226.606 197.395 225.888C197.587 225.181 197.691 224.453 197.705 223.72L197.853 221.261C197.918 220.161 197.949 219.071 198.432 218.083C198.649 217.643 198.919 217.228 199.142 216.791C199.44 216.178 199.695 215.545 199.903 214.895C200.253 213.889 200.607 212.879 200.919 211.86C201.045 211.367 201.232 210.891 201.477 210.445C201.765 209.98 202.146 209.422 202.641 209.329Z" fill="#E8E8F0"/>
<path d="M197.181 225.309L197.832 225.331L197.971 224.349C197.99 224.153 198.035 223.96 198.107 223.776C198.215 223.582 198.341 223.399 198.482 223.228C199.123 222.323 199.077 221.121 199.235 220.022C199.445 218.557 200.059 217.182 200.666 215.831L201.929 213.016C202.042 212.784 202.132 212.542 202.199 212.294C202.254 212.02 202.28 211.74 202.276 211.461C202.276 211.027 202.419 209.444 202.428 209.008C202.428 208.846 202.075 208.936 202 208.794C201.842 208.484 201.626 209.327 201.328 209.512C201.048 209.727 200.844 210.025 200.746 210.364C200.474 211.073 200.306 211.82 200.052 212.532C199.83 213.262 199.423 213.922 198.872 214.45C198.615 214.679 198.315 214.859 198.07 215.1C197.284 215.878 197.209 217.104 197.181 218.198C197.163 218.876 197.036 225.309 197.181 225.309Z" fill="#2F2E41"/>
<path d="M206.55 208.155C205.93 208.403 205.571 209.085 205.394 209.747C205.218 210.41 205.144 211.11 204.803 211.699C204.01 213.08 201.988 213.483 201.427 214.976C201.284 215.48 201.208 216.001 201.201 216.524C201.102 217.593 200.749 218.628 200.643 219.696C200.589 220.527 200.608 221.362 200.702 222.19L201.412 230.624C201.549 231.866 201.477 233.122 201.198 234.341C201.925 234.445 202.667 234.323 203.322 233.991C203.988 233.681 204.595 233.272 205.233 232.919C206.333 232.3 207.547 231.881 208.507 231.061C208.681 230.925 208.831 230.76 208.95 230.574C209.104 230.22 209.208 229.845 209.26 229.462C209.341 229.164 209.445 228.872 209.569 228.589C209.925 227.739 210.235 226.87 210.498 225.987C210.679 225.401 210.821 224.804 210.923 224.2C211 223.72 211.04 223.233 211.084 222.75C211.133 221.99 211.284 221.24 211.533 220.52C212.147 218.802 212.495 217 212.564 215.177C212.586 214.914 212.568 214.649 212.512 214.39C212.405 214.077 212.261 213.778 212.084 213.498C211.79 212.944 211.613 212.334 211.335 211.773C210.715 210.503 209.603 209.54 208.442 208.731C207.847 208.338 207.194 207.911 206.55 208.155Z" fill="#2F2E41"/>
<path d="M191.764 221.917C191.261 221.654 190.806 221.308 190.417 220.895C190.241 220.687 190.107 220.455 189.915 220.251C189.46 219.766 188.87 219.429 188.221 219.284C187.577 219.142 186.917 219.079 186.258 219.095C185.817 219.065 185.374 219.118 184.954 219.253C184.743 219.322 184.552 219.444 184.401 219.606C184.249 219.769 184.141 219.967 184.087 220.182C183.991 220.709 184.334 221.22 184.746 221.555C185.129 221.868 185.58 222.087 186.062 222.196C186.456 222.264 186.853 222.31 187.252 222.335C189.593 222.58 191.684 223.853 193.734 225.014C195.537 226.032 197.374 226.985 199.247 227.873C199.321 227.313 199.352 226.747 199.34 226.182C199.34 225.761 199.309 225.117 198.909 224.869C198.445 224.578 197.671 224.513 197.156 224.339C195.949 223.945 194.771 223.469 193.629 222.914C192.981 222.601 192.362 222.27 191.764 221.917Z" fill="#FBBEBE"/>
<path d="M202 208.688C204.304 208.688 206.172 206.809 206.172 204.491C206.172 202.173 204.304 200.294 202 200.294C199.696 200.294 197.828 202.173 197.828 204.491C197.828 206.809 199.696 208.688 202 208.688Z" fill="#FBBEBE"/>
<path d="M207.742 212.913C207.41 213.38 207.138 213.887 206.934 214.422C206.416 215.484 205.608 216.395 205.205 217.519C204.778 218.687 204.794 220.078 203.967 220.998C203.8 221.137 203.675 221.319 203.604 221.524C203.599 221.652 203.585 221.779 203.561 221.905C203.443 222.24 202.895 222.255 202.793 222.596C202.765 222.695 202.793 222.803 202.743 222.906C202.66 223.125 202.372 223.156 202.176 223.29C201.771 223.565 201.867 224.203 201.557 224.6C201.431 224.747 201.269 224.858 201.086 224.923C200.903 224.987 200.707 225.001 200.516 224.965C200.137 224.885 199.771 224.749 199.432 224.56C199.313 224.493 199.181 224.451 199.045 224.439C198.884 224.442 198.727 224.495 198.596 224.591C197.825 225.08 197.463 226.053 197.469 226.969C197.523 227.886 197.74 228.786 198.11 229.627C198.154 229.772 198.226 229.907 198.324 230.023C198.578 230.293 199.024 230.25 199.364 230.098C199.683 229.909 200.023 229.757 200.377 229.646C201.021 229.528 201.653 229.974 202.307 229.937C202.785 229.864 203.235 229.665 203.61 229.361C204.274 228.958 204.868 228.45 205.37 227.858C205.655 227.484 205.865 227.056 206.116 226.657C206.436 226.166 206.788 225.696 207.169 225.25L209.575 222.305C209.817 222.026 210.034 221.726 210.223 221.41C210.44 220.981 210.609 220.53 210.728 220.065C210.985 219.289 211.153 218.486 211.226 217.671C211.239 216.997 211.179 216.323 211.05 215.661C210.969 215.002 210.795 214.359 210.532 213.75C209.997 212.666 208.724 211.767 207.742 212.913Z" fill="#2F2E41"/>
<path d="M216.123 207.446C216.126 206.702 215.953 205.968 215.617 205.304C215.281 204.64 214.792 204.065 214.19 203.627C214.172 202.306 213.685 201.035 212.817 200.039C211.948 199.043 210.755 198.389 209.449 198.191C209.196 196.94 208.51 195.818 207.511 195.023C206.513 194.228 205.266 193.811 203.99 193.845C202.714 193.88 201.491 194.363 200.536 195.211C199.582 196.059 198.957 197.216 198.773 198.479C197.038 198.089 195.453 198.597 195.165 199.666C194.855 200.784 196.094 202.091 197.927 202.587C198.502 202.749 199.1 202.809 199.696 202.763C200.122 203.389 200.675 203.919 201.318 204.319C201.961 204.719 202.681 204.981 203.431 205.086C203.651 206.097 204.149 207.025 204.869 207.768C205.588 208.51 206.501 209.037 207.504 209.289C207.781 209.96 208.212 210.556 208.761 211.03C208.761 211.16 208.739 211.293 208.739 211.43C208.719 211.906 208.796 212.381 208.964 212.827C209.133 213.273 209.39 213.68 209.719 214.024C210.049 214.368 210.445 214.641 210.884 214.828C211.322 215.015 211.793 215.112 212.27 215.112C212.747 215.112 213.218 215.015 213.656 214.828C214.095 214.641 214.491 214.368 214.821 214.024C215.15 213.68 215.407 213.273 215.576 212.827C215.744 212.381 215.821 211.906 215.801 211.43C215.801 210.895 215.686 210.367 215.463 209.881C215.898 209.144 216.126 208.303 216.123 207.446Z" fill="#F86D70"/>
<path opacity="0.1" d="M196.342 199.879C196.63 198.81 198.2 198.302 199.95 198.693C200.154 197.41 200.804 196.24 201.786 195.39C202.768 194.54 204.019 194.064 205.318 194.047C205.438 194.047 205.559 194.047 205.677 194.047C205.175 193.893 204.653 193.816 204.128 193.817C202.83 193.835 201.579 194.311 200.597 195.161C199.615 196.011 198.965 197.181 198.761 198.464C197.027 198.073 195.441 198.581 195.153 199.65C194.843 200.768 196.082 202.075 197.916 202.571C198.257 202.665 198.606 202.725 198.959 202.75C197.219 202.242 196.048 200.972 196.342 199.879Z" fill="black"/>
<path opacity="0.1" d="M209.916 211.646C209.916 211.51 209.916 211.377 209.938 211.244C209.388 210.771 208.958 210.176 208.68 209.506C207.678 209.251 206.767 208.723 206.048 207.981C205.328 207.238 204.83 206.31 204.608 205.3C203.858 205.195 203.138 204.934 202.494 204.534C201.851 204.134 201.299 203.603 200.873 202.977C200.526 203.004 200.177 202.995 199.832 202.949C200.26 203.526 200.799 204.012 201.417 204.379C202.035 204.746 202.719 204.986 203.431 205.086C203.651 206.096 204.149 207.025 204.869 207.768C205.588 208.51 206.501 209.037 207.504 209.289C207.781 209.96 208.212 210.556 208.761 211.03C208.761 211.16 208.739 211.293 208.739 211.429C208.724 212.379 209.084 213.296 209.742 213.981C210.4 214.666 211.302 215.062 212.251 215.084C211.559 214.817 210.964 214.345 210.546 213.73C210.129 213.116 209.909 212.389 209.916 211.646Z" fill="black"/>
<path d="M203.91 206.029C204.193 205.814 204.19 205.334 203.904 204.956C203.617 204.579 203.155 204.447 202.871 204.662C202.588 204.878 202.591 205.358 202.877 205.736C203.164 206.113 203.626 206.245 203.91 206.029Z" fill="#FBBEBE"/>
<path d="M104.187 226.913L108.313 224.488C107.755 223.535 107.042 222.682 106.204 221.964L98.4236 224.383L104.519 220.799C103.009 219.973 101.311 219.553 99.5903 219.582C97.8698 219.612 96.1864 220.088 94.706 220.966C93.2256 221.843 91.9991 223.091 91.1473 224.586C90.2954 226.081 89.8475 227.773 89.8477 229.494C89.8477 234.967 94.2858 235.156 99.7584 235.156C105.231 235.156 109.669 234.967 109.669 229.494C109.672 228.106 109.382 226.734 108.817 225.467L104.187 226.913Z" fill="#246CAD"/>
<path opacity="0.1" d="M105.237 232.234C104.798 231.794 104.307 231.408 103.775 231.085C103.029 230.587 102.252 230.079 101.369 229.911C100.595 229.763 99.7956 229.89 99.0058 229.843C97.6345 229.759 96.3436 229.167 95.3853 228.183C94.8216 227.601 94.3787 226.885 93.7005 226.439C92.9424 225.989 92.0479 225.825 91.1794 225.978C90.9277 226.013 90.6784 226.063 90.433 226.129C90.0448 227.208 89.8467 228.346 89.8477 229.493C89.8477 234.966 94.2858 235.155 99.7584 235.155C102.416 235.155 104.825 235.112 106.606 234.44L106.296 233.885C106.015 233.292 105.659 232.737 105.237 232.234Z" fill="black"/>
</g>
<defs>
<linearGradient id="paint0_linear" x1="182.761" y1="242.533" x2="182.761" y2="193.087" gradientUnits="userSpaceOnUse">
<stop stop-color="#808080" stop-opacity="0.25"/>
<stop offset="0.54" stop-color="#808080" stop-opacity="0.12"/>
<stop offset="1" stop-color="#808080" stop-opacity="0.1"/>
</linearGradient>
<clipPath id="clip0">
<rect width="354" height="205.583" fill="white" transform="translate(7 44.4116)"/>
</clipPath>
</defs>
</svg>
