<svg width="72" height="72" viewBox="0 0 72 72" fill="none" xmlns="http://www.w3.org/2000/svg">
<circle opacity="0.3" cx="36" cy="36" r="36" fill="#246CAD"/>
<g clip-path="url(#clip0)">
<path d="M45.7651 25.5334C45.7651 18.6225 40.1425 13 33.2316 13C26.3206 13 20.6982 18.6225 20.6982 25.5334V43.4183C20.6982 44.1105 21.2594 44.6716 21.9516 44.6716L44.5121 44.6717C44.8445 44.6717 45.1633 44.5397 45.3983 44.3046C45.6334 44.0695 45.7654 43.7506 45.7654 43.4183L45.7651 25.5334Z" fill="#516591"/>
<path d="M45.7648 25.5333C45.7648 18.6691 40.2179 13.077 33.3711 13.0017V44.6716L44.5119 44.6717C44.8443 44.6717 45.163 44.5397 45.3981 44.3046C45.6332 44.0695 45.7652 43.7506 45.7652 43.4183L45.7648 25.5333Z" fill="#1C4161"/>
<path d="M47.1295 42.2306L42.453 40.5335L41.1346 40.8393L39.8168 39.5769L39.0495 39.2984L27.4115 39.2979L26.6462 39.5756L25.3279 41.081L24.0095 40.5328C24.0095 40.5328 19.3825 42.2134 19.3339 42.2331L19.3329 42.2306C17.4667 42.9263 16.0049 45.0316 16.0049 47.0233V56.6816C16.0049 57.4096 16.5952 57.9999 17.3232 57.9999H22.3487L50.4576 47.0233C50.4576 45.0316 48.9958 42.9263 47.1295 42.2306Z" fill="#EDF4FE"/>
<path d="M33.3711 53.6956L50.4577 47.0233C50.4577 45.0316 48.9958 42.9263 47.1297 42.2306L42.4532 40.5335L41.1347 40.8393L39.817 39.5769L39.0497 39.2984L33.3712 39.2981V53.6956H33.3711Z" fill="#D7E9FE"/>
<path d="M39.0703 34.7364C39.0703 34.2289 38.7511 33.776 38.2732 33.6054C37.7952 33.4348 37.2614 33.5829 36.9399 33.9757C36.0214 35.0975 34.6675 35.7416 33.2273 35.7427C31.7899 35.7416 30.439 35.1013 29.521 33.9861C29.1987 33.5947 28.6657 33.4476 28.1882 33.6189C27.7109 33.79 27.3926 34.2425 27.3926 34.7495V39.2935L27.4123 39.2976C28.3843 40.2442 30.4297 41.8277 33.2316 41.8277C36.0332 41.8277 38.0783 40.2447 39.0503 39.2981L39.0703 39.294V34.7364H39.0703Z" fill="#FFCBBA"/>
<path d="M38.2726 33.6054C37.7946 33.4348 37.2608 33.5829 36.9393 33.9757C36.0516 35.0598 34.757 35.6959 33.3711 35.7387V41.8253C36.1005 41.7737 38.0941 40.2289 39.0496 39.2982L39.0697 39.2941V34.7365C39.0697 34.2289 38.7505 33.7761 38.2726 33.6054Z" fill="#FFBCA4"/>
<path d="M39.6724 24.4135L31.5069 21.144C31.0928 20.978 30.6207 21.0556 30.2812 21.3449L26.4463 24.6144C26.1787 24.8427 26.0244 25.1766 26.0244 25.5284V31.0269C26.0244 34.9971 29.2545 38.2298 33.2247 38.2332H33.2267C37.1971 38.2298 40.4271 34.9971 40.4271 31.0269V25.5284C40.4271 25.0375 40.1283 24.596 39.6724 24.4135Z" fill="#FFDDCC"/>
<path d="M39.6723 24.4135L33.3711 21.8904V38.2294C37.2747 38.1486 40.427 34.9487 40.427 31.0269V25.5284C40.427 25.0375 40.1282 24.5959 39.6723 24.4135Z" fill="#FFCBBA"/>
<path d="M25.3271 48.6736C26.0552 48.6736 26.6455 48.0833 26.6455 47.3552V39.5757C26.0059 39.8079 25.0359 40.1599 24.0088 40.5329V47.3552C24.0088 48.0833 24.5991 48.6736 25.3271 48.6736Z" fill="#1C4161"/>
<path d="M41.1348 48.6735C41.8629 48.6735 42.4531 48.0832 42.4531 47.3552V40.5335L39.8164 39.5767V47.3552C39.8164 48.0832 40.4067 48.6735 41.1348 48.6735Z" fill="#0B487E"/>
<path d="M43.0752 46.9158H23.667C22.9389 46.9158 22.3486 47.506 22.3486 48.2341V57.9999H38.6015L44.3935 52.0183V48.234C44.3935 47.506 43.8032 46.9158 43.0752 46.9158Z" fill="#516591"/>
<path d="M43.0752 46.9158H33.3711V57.9999H38.6015L44.3935 52.0183V48.234C44.3935 47.506 43.8032 46.9158 43.0752 46.9158Z" fill="#1C4161"/>
<path d="M49.1387 47.4621C48.4106 47.4621 47.8203 46.8718 47.8203 46.1437V43.2927C47.8203 42.5646 48.4106 41.9744 49.1387 41.9744C49.8668 41.9744 50.457 42.5646 50.457 43.2927V46.1437C50.457 46.8718 49.8668 47.4621 49.1387 47.4621Z" fill="#FDFEFF"/>
<path d="M49.1395 44.8252C42.6019 44.8252 37.2832 50.1439 37.2832 56.6814C37.2832 57.4095 37.8735 57.9997 38.6016 57.9997H59.6775C60.4056 57.9997 60.9958 57.4095 60.9958 56.6814C60.9958 50.1438 55.677 44.8252 49.1395 44.8252Z" fill="#FAFAFA"/>
</g>
<defs>
<clipPath id="clip0">
<rect width="45" height="45" fill="white" transform="translate(16 13)"/>
</clipPath>
</defs>
</svg>
