<svg width="72" height="72" viewBox="0 0 72 72" fill="none" xmlns="http://www.w3.org/2000/svg">
<circle opacity="0.3" cx="36" cy="36" r="36" fill="#246CAD"/>
<g clip-path="url(#clip0)">
<path d="M58.4349 34.3057C58.7734 38.7454 57.7851 43.1855 55.5954 47.0625C55.4646 47.2913 55.3953 47.5502 55.3942 47.8137V58.496L49.6057 55.0256C49.0932 54.7246 48.4548 54.7382 47.9555 55.0606C39.3977 60.4287 28.3111 59.4347 20.8446 52.6299C13.3782 45.825 11.3626 34.8781 15.9158 25.8603C20.469 16.8426 30.4745 11.9651 40.3831 13.9331C50.2917 15.9012 57.6738 24.2323 58.4349 34.3057Z" fill="#1C4161"/>
<path d="M36.0007 53.8413C45.8543 53.8413 53.8423 45.8534 53.8423 35.9997C53.8423 26.1461 45.8543 18.1582 36.0007 18.1582C26.1471 18.1582 18.1592 26.1461 18.1592 35.9997C18.1592 45.8534 26.1471 53.8413 36.0007 53.8413Z" fill="#246CAD"/>
<path d="M36.0013 29.0183C37.715 29.0183 39.1041 27.6291 39.1041 25.9155C39.1041 24.2018 37.715 22.8126 36.0013 22.8126C34.2876 22.8126 32.8984 24.2018 32.8984 25.9155C32.8984 27.6291 34.2876 29.0183 36.0013 29.0183Z" fill="white"/>
<path d="M34.4496 35.9997V42.2055C34.4496 42.6339 34.1023 42.9813 33.6739 42.9813H32.1224C31.694 42.9813 31.3467 43.3285 31.3467 43.757V46.8599C31.3467 47.2883 31.694 47.6356 32.1224 47.6356H41.4311C41.8595 47.6356 42.2068 47.2884 42.2068 46.8599V43.757C42.2068 43.3286 41.8596 42.9813 41.4311 42.9813H39.8797C39.4513 42.9813 39.1039 42.634 39.1039 42.2055V32.8969C39.1039 32.4685 38.7566 32.1211 38.3281 32.1211H32.8982C32.4698 32.1211 32.1224 32.4684 32.1224 32.8969V34.4483C32.1224 34.8767 32.4697 35.224 32.8982 35.224H33.674C34.1023 35.224 34.4496 35.5713 34.4496 35.9997Z" fill="white"/>
</g>
<defs>
<clipPath id="clip0">
<rect width="45" height="45" fill="white" transform="translate(13.5 13.5)"/>
</clipPath>
</defs>
</svg>
