<svg width="72" height="72" viewBox="0 0 72 72" fill="none" xmlns="http://www.w3.org/2000/svg">
<circle opacity="0.3" cx="36" cy="36" r="36" fill="#246CAD"/>
<g clip-path="url(#clip0)">
<path d="M47.3583 50.2508V50.2607C47.3558 53.0161 45.1216 55.2485 42.3662 55.2485H42.3506C42.2356 55.2485 42.121 55.2439 42.0078 55.2368C39.3898 55.0542 37.3599 52.8755 37.3628 50.2508V47.0219H20.6309V46.9782L20.8074 20.7598H39.4144L39.4279 20.7644C38.6259 23.4592 39.042 26.3698 40.5667 28.7322C42.0914 31.0945 44.5723 32.6723 47.3583 33.0511V50.2508ZM27.6126 29.9497C28.4983 29.9497 29.2163 29.2644 29.2163 28.4196C29.2163 27.5749 28.4983 26.8885 27.6126 26.8885C26.7265 26.8885 26.0077 27.5741 26.0077 28.4196C26.0077 29.2655 26.7258 29.9497 27.6126 29.9497ZM27.6126 36.2874C28.4983 36.2874 29.2163 35.6021 29.2163 34.7563C29.2163 33.9104 28.4983 33.2262 27.6126 33.2262C26.7265 33.2262 26.0077 33.9115 26.0077 34.7563C26.0077 35.601 26.7258 36.2874 27.6126 36.2874ZM27.6126 42.6237C28.4983 42.6237 29.2163 41.9395 29.2163 41.0936C29.2163 40.2478 28.4983 39.5636 27.6126 39.5636C26.7265 39.5636 26.0077 40.2489 26.0077 41.0936C26.0077 41.9384 26.7258 42.6237 27.6126 42.6237Z" fill="white"/>
<path d="M42.0077 55.2368L42.007 55.2486H19.7401C16.9847 55.2486 14.7505 53.0161 14.748 50.2608V47.022H37.3627V50.2508C37.3599 52.8755 39.3897 55.0542 42.0077 55.2368Z" fill="white"/>
<path d="M29.2164 28.4195C29.2164 29.2643 28.4983 29.9496 27.6126 29.9496C26.7266 29.9496 26.0078 29.2643 26.0078 28.4195C26.0078 27.5748 26.7258 26.8884 27.6126 26.8884C28.4994 26.8884 29.2164 27.5741 29.2164 28.4195Z" fill="white"/>
<path d="M29.2164 34.7564C29.2164 35.6022 28.4983 36.2875 27.6126 36.2875C26.7266 36.2875 26.0078 35.6022 26.0078 34.7564C26.0078 33.9105 26.7258 33.2263 27.6126 33.2263C28.4994 33.2263 29.2164 33.9116 29.2164 34.7564Z" fill="white"/>
<path d="M29.2164 41.0935C29.2164 41.9394 28.4983 42.6236 27.6126 42.6236C26.7266 42.6236 26.0078 41.9394 26.0078 41.0935C26.0078 40.2477 26.7258 39.5635 27.6126 39.5635C28.4994 39.5635 29.2164 40.2488 29.2164 41.0935Z" fill="white"/>
<path d="M42.0112 28H32.2916C31.8889 28 31.5625 28.3264 31.5625 28.7291C31.5625 29.1317 31.8889 29.4581 32.2916 29.4581H42.0112C42.4138 29.4581 42.7403 29.1317 42.7403 28.7291C42.7403 28.3264 42.4138 28 42.0112 28Z" fill="#246CAD"/>
<path fill-rule="evenodd" clip-rule="evenodd" d="M42.4084 15.2373C44.2044 13.8792 46.398 13.1505 48.65 13.1648C54.3665 13.1655 59.0005 17.8001 59.0001 23.5166C58.9994 29.2335 54.3648 33.8674 48.6483 33.8667C48.4606 33.8667 48.2663 33.8603 48.084 33.8503V50.2608C48.0808 53.4188 45.5241 55.9794 42.3664 55.9876H42.3508C42.2939 55.9876 42.2443 55.9838 42.1838 55.9792C42.1289 55.9749 42.0648 55.97 41.9781 55.9666V55.9876H19.468V55.9713C16.4606 55.8346 14 53.3262 14 50.2615V47.022C14 46.619 14.3457 46.3275 14.7483 46.3275H19.9066L20.0785 20.752C20.0814 20.3511 20.4068 19.9898 20.8076 19.9898H38.9037C39.6025 18.108 40.8172 16.4612 42.4084 15.2373ZM15.4581 47.7856V50.2608C15.4713 52.6182 17.383 54.5242 19.7404 54.5295H38.547C37.3697 53.4359 36.6012 51.935 36.6012 50.2501V47.7856H15.4581ZM42.3508 54.5295H42.3607C44.716 54.5245 46.6234 52.6153 46.6259 50.2601V33.6684C43.8936 33.1423 41.4928 31.5271 39.976 29.1943L39.1842 27.7362C38.6146 26.3692 38.2992 24.9943 38.2992 23.518C38.3024 22.8235 38.3694 22.1304 38.4997 21.448H21.5317L21.3647 46.3275H37.363C37.5492 46.3211 37.73 46.3919 37.8621 46.5236C37.9938 46.6553 38.0654 46.8358 38.0593 47.022V50.2508C38.0693 52.4943 39.8044 54.3519 42.0418 54.5145C42.0543 54.5153 42.0669 54.5162 42.0795 54.517C42.1733 54.5231 42.2705 54.5295 42.3508 54.5295ZM47.4568 32.3288C47.8523 32.3822 48.251 32.4089 48.65 32.4086C53.5613 32.4086 57.5427 28.4275 57.5427 23.5163C57.5427 18.6047 53.5613 14.6233 48.65 14.6233C43.7384 14.6233 39.757 18.6047 39.757 23.5163C39.757 27.9516 43.0667 31.7404 47.4557 32.3288H47.4568Z" fill="#1C4161"/>
<path d="M27.6122 32.4973C26.3249 32.4973 25.2783 33.5108 25.2783 34.7564C25.2783 36.002 26.3249 37.0166 27.6122 37.0166C28.8991 37.0166 29.945 36.0028 29.945 34.7564C29.945 33.5101 28.8984 32.4973 27.6122 32.4973ZM27.6122 35.5585C27.1291 35.5585 26.7365 35.1986 26.7365 34.7564C26.7365 34.3143 27.1291 33.9555 27.6122 33.9555C28.0949 33.9555 28.4869 34.3146 28.4869 34.7564C28.4869 35.1982 28.0946 35.5585 27.6122 35.5585Z" fill="#246CAD"/>
<path d="M42.0112 34.0244H32.2916C31.8889 34.0244 31.5625 34.3509 31.5625 34.7535C31.5625 35.1561 31.8889 35.4825 32.2916 35.4825H42.0112C42.4138 35.4825 42.7403 35.1561 42.7403 34.7535C42.7403 34.3509 42.4138 34.0244 42.0112 34.0244Z" fill="#246CAD"/>
<path d="M27.6122 26.1594C26.3249 26.1594 25.2783 27.1733 25.2783 28.4196C25.2783 29.6659 26.3249 30.6787 27.6122 30.6787C28.8991 30.6787 29.945 29.6656 29.945 28.4196C29.945 27.174 28.8984 26.1594 27.6122 26.1594ZM27.6122 29.2206C27.1291 29.2206 26.7365 28.8614 26.7365 28.4196C26.7365 27.9778 27.1291 27.6176 27.6122 27.6176C28.0949 27.6176 28.4869 27.9775 28.4869 28.4196C28.4869 28.8618 28.0946 29.2206 27.6122 29.2206Z" fill="#246CAD"/>
<path d="M27.6122 38.8345C26.3249 38.8345 25.2783 39.848 25.2783 41.0936C25.2783 42.3396 26.3249 43.3527 27.6122 43.3527C28.8991 43.3527 29.945 42.3392 29.945 41.0936C29.945 39.848 28.8984 38.8345 27.6122 38.8345ZM27.6122 41.8946C27.1291 41.8946 26.7365 41.5354 26.7365 41.0936C26.7365 40.6518 27.1291 40.2926 27.6122 40.2926C28.0949 40.2926 28.4869 40.6518 28.4869 41.0936C28.4869 41.5354 28.0946 41.8946 27.6122 41.8946Z" fill="#246CAD"/>
<path d="M42.0112 40.4036H32.2916C31.8889 40.4036 31.5625 40.73 31.5625 41.1326C31.5625 41.5353 31.8889 41.8617 32.2916 41.8617H42.0112C42.4138 41.8617 42.7403 41.5353 42.7403 41.1326C42.7403 40.73 42.4138 40.4036 42.0112 40.4036Z" fill="#246CAD"/>
<path d="M48.65 13.8938C52.793 13.8966 56.4686 16.5531 57.7712 20.4864C59.0738 24.4194 57.7103 28.7447 54.3879 31.2199C51.0657 33.6951 46.5311 33.7641 43.1353 31.3904C39.7392 29.017 38.2454 24.7351 39.428 20.7644C40.6448 16.6873 44.3948 13.8931 48.65 13.8938Z" fill="#1C4161"/>
<path d="M49.0003 19.5293C49.0063 19.5293 49.0124 19.5303 49.0184 19.5303C49.0455 19.5303 49.0726 19.5285 49.0996 19.5253C49.9935 19.5335 50.714 20.2598 50.7155 21.1533C50.7155 21.5559 51.0419 21.8824 51.4445 21.8824C51.8472 21.8824 52.1736 21.5559 52.1736 21.1533C52.1715 19.704 51.1629 18.4506 49.7475 18.1388V17.4378C49.7475 17.0352 49.4211 16.7087 49.0184 16.7087C48.6158 16.7087 48.2894 17.0352 48.2894 17.4378V18.1704C46.7928 18.5713 45.8249 20.0187 46.0267 21.5548C46.2285 23.0909 47.5375 24.2397 49.0868 24.2401C49.9864 24.2401 50.7155 24.9692 50.7155 25.8687C50.7155 26.768 49.9864 27.497 49.0868 27.497C48.1872 27.497 47.4581 26.768 47.4581 25.8687C47.4581 25.4658 47.1317 25.1397 46.7291 25.1397C46.3264 25.1397 46 25.4658 46 25.8687C46.0018 27.2657 46.9402 28.4878 48.2894 28.8505V29.6497C48.2894 30.0524 48.6158 30.3788 49.0184 30.3788C49.4211 30.3788 49.7475 30.0524 49.7475 29.6497V28.8833C51.2872 28.5462 52.3256 27.103 52.1558 25.5363C51.986 23.9692 50.6631 22.7816 49.0868 22.7819C48.2039 22.7834 47.4809 22.0806 47.4574 21.1981C47.4339 20.3156 48.1181 19.5752 48.9999 19.5293H49.0003Z" fill="white"/>
</g>
<defs>
<clipPath id="clip0">
<rect width="45" height="45" fill="white" transform="translate(14 12)"/>
</clipPath>
</defs>
</svg>
