<svg width="64" height="64" viewBox="0 0 64 64" fill="none" xmlns="http://www.w3.org/2000/svg">
<rect width="64" height="64" rx="17.2973" fill="#246CAD"/>
<path fill-rule="evenodd" clip-rule="evenodd" d="M51.4599 24.704C46.7178 24.5521 42.1115 24.461 37.6412 24.4306V48.2162H26.3144V24.4306C21.8139 24.461 17.2228 24.5521 12.541 24.704V22.9189C13.3152 22.9189 14.0576 22.6114 14.605 22.064C15.1524 21.5166 15.4599 20.7741 15.4599 20C15.4599 19.2258 15.1524 18.4834 14.605 17.936C14.0576 17.3886 13.3152 17.0811 12.541 17.0811V15.1351H51.4599V17.0811C50.6858 17.0811 49.9434 17.3886 49.3959 17.936C48.8485 18.4834 48.541 19.2258 48.541 20C48.541 20.7741 48.8485 21.5166 49.3959 22.064C49.9434 22.6114 50.6858 22.9189 51.4599 22.9189V24.704Z" fill="white"/>
</svg>
