<svg width="482" height="338" viewBox="0 0 482 338" fill="none" xmlns="http://www.w3.org/2000/svg">
<g clip-path="url(#clip0)">
<path opacity="0.1" d="M205.057 12.9933C185.464 5.52545 164.76 -0.712602 143.624 0.0716105C112.547 1.22119 82.7155 18.7457 68.1063 44.4776C55.7112 66.2796 54.1818 91.8334 48.8423 116.028C42.2713 145.833 29.6628 174.167 16.2007 201.868C8.97168 216.75 1.34255 231.953 0.155499 248.266C-1.48948 270.914 10.0565 293.483 28.1645 308.548C46.2726 323.613 70.3204 331.562 94.457 333.295C107.301 334.217 120.723 333.362 132.131 327.756C144.202 321.826 153 311.11 165.12 305.264C176.35 299.846 189.488 299.088 202.096 299.792C218.559 300.711 234.81 303.951 250.37 309.417C267.993 315.619 284.381 324.606 301.942 330.898C319.503 337.189 339.172 340.7 357.142 335.452C374.036 330.519 387.374 318.542 399.4 306.413C419.064 286.617 437.088 265.25 453.293 242.522C464.145 227.279 474.246 211.198 479.043 193.433C488.22 159.467 475.593 121.148 447.589 97.9511C424.386 78.7335 393.247 70.3923 362.766 65.3306C334.97 60.7144 302.831 60.4292 277.245 48.3987C252.846 36.9118 230.643 22.7514 205.057 12.9933Z" fill="#6C63FF"/>
<path d="M281.237 275.811V291.999H285.83L284.941 274.621L281.237 275.811Z" fill="#AAABB0"/>
<path d="M212.251 272.545V288.733H216.848L215.959 271.355L212.251 272.545Z" fill="#AAABB0"/>
<path d="M292.499 248.783C292.499 247.141 291.172 245.811 289.535 245.811C287.899 245.811 286.572 247.141 286.572 248.783V271.654C286.572 273.295 287.899 274.626 289.535 274.626C291.172 274.626 292.499 273.295 292.499 271.654V248.783Z" fill="#AAABB0"/>
<path d="M216.474 242.393C216.474 240.751 215.148 239.421 213.511 239.421C211.875 239.421 210.548 240.751 210.548 242.393V271.649C210.548 273.291 211.875 274.621 213.511 274.621C215.148 274.621 216.474 273.291 216.474 271.649V242.393Z" fill="#AAABB0"/>
<path d="M300.062 73.3728C300.062 73.3728 305.988 70.8464 306.877 73.3728C307.766 75.8993 308.211 97.7324 308.211 97.7324H302.578L300.062 73.3728Z" fill="#AAABB0"/>
<path d="M235.152 73.3728C235.152 73.3728 229.221 70.8464 228.332 73.3728C227.443 75.8993 226.998 97.7324 226.998 97.7324H232.631L235.152 73.3728Z" fill="#AAABB0"/>
<path d="M236.037 51.6868L235.147 69.8083H239.149V51.2412L236.037 51.6868Z" fill="#AAABB0"/>
<path d="M232.631 97.7319L233.818 71.5901C233.818 71.5901 233.373 65.7976 247.449 67.5799C261.525 69.3622 302.729 72.9268 302.729 72.9268V97.7319H232.631Z" fill="#33323D"/>
<path d="M288.946 235.415L286.723 275.366C286.723 275.366 254.117 293.487 214.549 276.257L218.106 234.226L288.946 235.415Z" fill="#33323D"/>
<path d="M257.973 78.1221L258.711 103.965H304.654L301.987 69.8076L257.973 78.1221Z" fill="#444053"/>
<path d="M262.639 218.331H219.363V273.284H262.639V218.331Z" fill="#4C4981"/>
<path d="M246.711 240.763C246.711 240.763 252.935 235.861 253.971 237.345C255.007 238.829 250.272 245.218 248.343 244.474C246.413 243.73 246.711 240.763 246.711 240.763Z" fill="#FFB9B9"/>
<path d="M419.46 96.2441H135.382V238.828H419.46V96.2441Z" fill="#504F60"/>
<path d="M232.777 50.6486C232.777 50.6486 230.554 29.8536 232.777 27.3317C235 24.8097 272.345 0.891235 306.877 28.9625C306.877 28.9625 310.135 29.114 309.544 36.5372C309.196 41.2355 309.219 45.9541 309.615 50.6486C309.615 50.6486 235.298 55.9955 232.777 50.6486Z" fill="#33323D"/>
<path opacity="0.1" d="M232.777 50.6486C232.777 50.6486 230.554 29.8536 232.777 27.3317C235 24.8097 272.345 0.891235 306.877 28.9625C306.877 28.9625 310.135 29.114 309.544 36.5372C309.196 41.2355 309.219 45.9541 309.615 50.6486C309.615 50.6486 235.298 55.9955 232.777 50.6486Z" fill="black"/>
<path d="M232.777 53.3215C232.777 53.3215 230.554 32.5265 232.777 30.0045C235 27.4826 272.345 3.56408 306.877 31.6353C306.877 31.6353 310.135 31.7868 309.544 39.2101C309.196 43.9084 309.219 48.627 309.615 53.3215C309.615 53.3215 235.298 58.6684 232.777 53.3215Z" fill="#33323D"/>
<path d="M310.878 43.8174C310.878 43.8174 313.247 52.7289 312.509 54.2127C311.771 55.6964 311.905 59.8581 311.905 59.8581C311.905 59.8581 312.065 62.5315 310.878 62.8256C309.691 63.1197 308.655 63.2712 309.615 64.1623C310.575 65.0535 309.615 66.3902 309.615 66.3902C309.615 66.3902 309.095 68.4711 309.615 69.8078C310.135 71.1445 306.574 71.7015 306.876 73.3724C307.179 75.0433 308.174 79.7575 306.876 79.909C305.578 80.0605 307.321 85.8485 306.152 85.8485C304.982 85.8485 304.151 96.2438 304.151 96.2438C304.151 96.2438 295.926 89.2661 290.444 91.1954C290.444 91.1954 290.889 85.4029 292.667 83.3221C294.446 81.2412 293.908 75.8988 293.908 75.8988L302.728 49.3113L310.878 43.8174Z" fill="#246CAD"/>
<path d="M266.864 166.699C264.939 168.833 262.863 157.435 262.863 157.435C262.863 157.435 257.381 165.01 253.824 159.962C251.361 156.464 253.304 146.554 254.714 140.802C255.345 138.244 255.878 136.507 255.878 136.507L263.881 135.17C263.881 135.17 263.908 136.917 264.085 139.038C264.325 141.903 264.846 145.458 265.953 146.309C267.904 147.784 268.794 164.547 266.864 166.699Z" fill="#AE6E79"/>
<path opacity="0.1" d="M262.715 33.2708C262.715 33.2708 248.782 33.1237 245.376 40.547C241.971 47.9703 241.82 50.5012 240.486 51.6864C239.152 52.8716 255.006 59.1142 255.006 59.1142L255.749 84.659C255.749 84.659 258.861 81.4998 263.898 82.9301C268.935 84.3604 275.31 82.9301 275.31 82.9301C275.31 82.9301 275.013 82.391 279.165 82.9301C283.318 83.4693 296.504 76.4916 296.504 76.4916C296.504 76.4916 296.722 65.3166 296.428 62.9372C296.135 60.5578 305.836 43.0734 305.836 43.0734C305.836 43.0734 313.394 35.7972 305.542 33.2708C305.542 33.2708 302.764 29.0735 295.615 29.1136C288.466 29.1537 262.715 33.2708 262.715 33.2708Z" fill="black"/>
<path d="M262.715 32.8255C262.715 32.8255 248.782 32.6784 245.376 40.1017C241.971 47.525 241.82 50.0559 240.486 51.2411C239.152 52.4263 255.006 58.6688 255.006 58.6688L255.749 84.2137C255.749 84.2137 258.861 81.0545 263.898 82.4848C268.935 83.9151 275.31 82.4848 275.31 82.4848C275.31 82.4848 275.013 81.9457 279.165 82.4848C283.318 83.024 296.504 76.0463 296.504 76.0463C296.504 76.0463 301.688 67.5803 301.394 65.2054C301.101 62.8305 311.767 44.856 311.767 44.856C311.767 44.856 313.398 35.3519 305.542 32.8255C305.542 32.8255 302.764 28.6282 295.615 28.6683C288.466 28.7084 262.715 32.8255 262.715 32.8255Z" fill="#246CAD"/>
<path opacity="0.1" d="M264.121 139.025C261.067 138.071 256.274 140.174 254.749 140.807C255.38 138.249 255.914 136.512 255.914 136.512L263.916 135.175C263.916 135.175 263.93 136.921 264.121 139.025Z" fill="black"/>
<path d="M244.781 51.2412H240.486C240.486 51.2412 239.597 60.3042 240.486 62.9777C241.375 65.6511 241.82 65.2635 241.522 67.2418C241.224 69.2202 243.598 72.2501 243.598 72.2501C243.598 72.2501 243.892 79.7179 245.376 82.4983C246.861 85.2787 243.745 97.7459 243.745 97.7459C244.595 99.8981 245.852 101.865 247.448 103.538C249.969 106.06 251.303 115.417 250.56 118.982C249.818 122.547 252.637 123.883 252.637 123.883C252.637 123.883 253.824 140.521 254.268 140.521C254.713 140.521 263.307 136.065 265.974 139.924L263.898 124.627L264.049 95.0724C264.049 95.0724 261.23 91.3563 262.715 88.0903C264.2 84.8242 261.528 77.0979 261.528 77.0979L257.674 59.872L244.781 51.2412Z" fill="#246CAD"/>
<path d="M218.105 286.059C218.105 286.059 211.881 284.722 211.734 286.059C211.588 287.396 204.323 301.061 213.366 305.072C222.409 309.082 246.559 317.695 285.834 306.555C285.834 306.555 288.35 307.447 287.759 301.953C287.168 296.459 287.168 290.368 287.168 290.368C287.168 290.368 281.237 288.732 276.791 289.329C272.345 289.927 233.666 297.795 218.105 286.059Z" fill="#33323D"/>
<path opacity="0.1" d="M218.105 286.059C218.105 286.059 211.881 284.722 211.734 286.059C211.588 287.396 204.323 301.061 213.366 305.072C222.409 309.082 246.559 317.695 285.834 306.555C285.834 306.555 288.35 307.447 287.759 301.953C287.168 296.459 287.168 290.368 287.168 290.368C287.168 290.368 281.237 288.732 276.791 289.329C272.345 289.927 233.666 297.795 218.105 286.059Z" fill="black"/>
<path d="M218.105 284.277C218.105 284.277 211.881 282.94 211.734 284.277C211.588 285.613 204.323 299.279 213.366 303.289C222.409 307.3 246.559 315.913 285.834 304.773C285.834 304.773 288.35 305.664 287.759 300.17C287.168 294.676 287.168 288.585 287.168 288.585C287.168 288.585 281.237 286.95 276.791 287.547C272.345 288.144 233.666 296.013 218.105 284.277Z" fill="#33323D"/>
<path d="M254.402 56.5787C254.02 58.7575 253.153 60.8517 253.019 63.0573C252.886 65.2629 253.735 67.7715 255.767 68.6359C256.334 68.8057 256.883 69.0295 257.407 69.3043C258.19 69.8345 258.51 70.8326 258.675 71.7683C258.893 72.9764 258.945 74.2087 258.83 75.4309C258.719 76.6607 258.457 77.9841 259.061 79.0579C260.124 80.9605 262.894 80.6798 265.001 80.1451L264.276 85.7727C264.219 86.2183 264.183 86.7218 264.508 87.0248C264.661 87.1331 264.834 87.2094 265.018 87.2492C265.201 87.289 265.39 87.2915 265.575 87.2565C267.406 87.1407 269.291 86.8867 270.861 85.9198C272.43 84.9529 273.599 83.1528 273.301 81.3393C272.955 79.2362 270.785 77.5653 271.079 75.4532C271.305 73.818 272.901 72.7798 273.951 71.5232C275.849 69.2241 275.951 65.7308 274.462 63.1286C272.972 60.5264 270.096 58.9135 267.135 58.6194C265.495 58.4545 263.787 58.655 262.245 58.0847C261.708 57.8874 261.224 57.5683 260.83 57.1525C260.437 56.7366 260.145 56.2352 259.977 55.6875" fill="#444053"/>
<path d="M202.696 254.722L204.248 251.336C204.248 251.336 212.624 243.516 214.549 242.968C216.474 242.42 224.33 240.031 225.517 240.031C226.704 240.031 248.342 238.842 248.342 238.842L250.858 244.786L223.703 250.761L214.549 257.445L202.696 254.722Z" fill="#1C4161"/>
<path d="M267.94 163.526L266.521 174.465L265.974 178.676L259.604 179.567C259.604 179.567 258.914 178.088 257.941 175.815C254.984 168.918 249.418 154.695 252.646 152.24C256.936 148.969 257.981 159.814 257.981 159.814L262.871 157.435L267.94 163.526Z" fill="#FFB9B9"/>
<path d="M266.877 183.876H234.702V232.591H266.877V183.876Z" fill="white"/>
<path opacity="0.1" d="M266.877 183.876H234.702V232.591H266.877V183.876Z" fill="black"/>
<path d="M281.339 186.513L249.51 181.797L242.401 229.988L274.23 234.704L281.339 186.513Z" fill="white"/>
<path d="M268.889 188.821L252.506 186.394L248.847 211.196L265.23 213.624L268.889 188.821Z" fill="#6C63FF"/>
<path d="M266.939 221.195L247.091 218.254L246.296 223.64L266.145 226.581L266.939 221.195Z" fill="#6C63FF"/>
<path opacity="0.1" d="M275.311 60.9682C285.582 60.9682 293.908 52.6235 293.908 42.3298C293.908 32.0361 285.582 23.6914 275.311 23.6914C265.04 23.6914 256.714 32.0361 256.714 42.3298C256.714 52.6235 265.04 60.9682 275.311 60.9682Z" fill="black"/>
<path d="M275.311 60.5229C285.582 60.5229 293.908 52.1782 293.908 41.8845C293.908 31.5908 285.582 23.2461 275.311 23.2461C265.04 23.2461 256.714 31.5908 256.714 41.8845C256.714 52.1782 265.04 60.5229 275.311 60.5229Z" fill="#AE6E79"/>
<path d="M259.977 55.6964C259.851 55.2164 259.896 54.7071 260.106 54.2572C260.813 52.7824 262.827 52.6532 264.458 52.7289C268.295 52.9071 272.506 52.9294 275.506 50.501C276.751 49.5029 278.143 46.9944 279.952 47.4711C281.562 47.8944 282.233 50.0822 283.909 50.5679C285.123 50.9199 286.381 50.3584 287.617 50.1223C289.395 49.7703 291.218 50.0644 293.023 50.0777C294.828 50.0911 296.789 49.748 298.02 48.4247C299.683 46.6424 299.412 43.8575 299.265 41.4158C299.083 38.2616 299.296 35.0971 299.901 31.9963C300.506 28.9129 301.435 25.4642 299.737 22.8219C298.118 20.3044 294.766 19.6138 292.476 17.6844C290.334 15.9021 289.2 13.046 286.937 11.3929C284.087 9.31206 280.215 9.61059 276.711 9.97151L269.109 10.7825C267.148 10.9919 265.108 11.228 263.494 12.3999C260.582 14.5119 260.182 18.9008 257.425 21.2134C256.198 22.2382 254.629 22.7462 253.228 23.5125C251.828 24.2789 250.476 25.4909 250.316 27.0771C250.183 28.4139 250.903 29.6481 251.254 30.9358C252.086 34.0103 250.787 37.1739 249.956 40.2706C249.125 43.3674 248.965 47.128 251.379 49.1821C251.868 49.601 252.437 49.9218 252.913 50.3584C254.544 51.8511 254.766 54.3686 254.389 56.543" fill="#444053"/>
<path d="M276.826 65.1654C277.072 65.1654 277.271 64.6667 277.271 64.0514C277.271 63.4362 277.072 62.9375 276.826 62.9375C276.581 62.9375 276.382 63.4362 276.382 64.0514C276.382 64.6667 276.581 65.1654 276.826 65.1654Z" fill="#444053"/>
<path d="M276.826 69.808C277.072 69.808 277.271 69.3092 277.271 68.694C277.271 68.0788 277.072 67.5801 276.826 67.5801C276.581 67.5801 276.382 68.0788 276.382 68.694C276.382 69.3092 276.581 69.808 276.826 69.808Z" fill="#444053"/>
<path d="M266.967 166.668C267.442 166.12 267.758 164.712 267.94 162.854L262.641 156.232C262.641 156.232 264.886 169.069 266.967 166.668Z" fill="#AE6E79"/>
<path opacity="0.1" d="M272.941 276.11C272.941 276.11 264.245 289.584 237.076 288.14C211.481 286.804 198.988 274.18 199.584 269.725C200.18 265.269 197.952 254.424 203.434 251.305C206.613 249.5 210.796 250.569 213.748 251.79C214.768 252.205 215.885 252.322 216.968 252.128C218.052 251.933 219.058 251.434 219.87 250.69C222.569 248.252 227.602 245.508 235.547 247.669C236.569 247.942 237.647 247.922 238.659 247.611C241.966 246.599 249.84 244.844 255.553 248.743C256.456 249.366 257.517 249.72 258.613 249.762C259.709 249.803 260.794 249.532 261.742 248.979L261.822 248.93C264.489 247.294 276.938 262.743 276.938 262.743C276.938 262.743 277.533 274.626 272.941 276.11Z" fill="black"/>
<path d="M272.941 276.555C272.941 276.555 264.245 290.029 237.076 288.586C211.481 287.249 198.988 274.626 199.584 270.17C200.18 265.714 197.952 254.869 203.434 251.75C206.613 249.945 210.796 251.015 213.748 252.236C214.768 252.651 215.885 252.768 216.968 252.573C218.052 252.378 219.058 251.88 219.87 251.135C222.569 248.698 227.602 245.953 235.547 248.114C236.569 248.387 237.647 248.367 238.659 248.056C241.966 247.045 249.84 245.289 255.553 249.188C256.456 249.812 257.517 250.165 258.613 250.207C259.709 250.249 260.794 249.977 261.742 249.424L261.822 249.375C264.489 247.74 276.938 263.188 276.938 263.188C276.938 263.188 277.533 275.071 272.941 276.555Z" fill="#1C4161"/>
<path opacity="0.1" d="M237.076 281.831C246.858 281.831 254.788 273.883 254.788 264.079C254.788 254.275 246.858 246.327 237.076 246.327C227.293 246.327 219.363 254.275 219.363 264.079C219.363 273.883 227.293 281.831 237.076 281.831Z" fill="black"/>
<path d="M237.076 282.276C246.858 282.276 254.788 274.328 254.788 264.524C254.788 254.72 246.858 246.772 237.076 246.772C227.293 246.772 219.363 254.72 219.363 264.524C219.363 274.328 227.293 282.276 237.076 282.276Z" fill="#FFB9B9"/>
<path d="M231.999 249.178C230.141 249.682 228.309 250.644 227.402 252.226C226.855 253.18 226.664 254.325 225.873 255.118C224.752 256.245 222.863 256.267 221.347 256.9C219.831 257.533 218.831 259.761 220.315 260.465C218.768 260.545 217.621 261.975 217.43 263.397C217.239 264.818 217.777 266.235 218.297 267.59C219.995 271.974 221.823 276.55 225.566 279.669C231.666 284.758 240.86 284.521 249.054 283.982C249.723 284.005 250.387 283.851 250.979 283.537C251.868 282.949 251.979 281.821 252.126 280.832C252.744 276.608 255.029 272.772 256.523 268.739C258.017 264.707 258.63 259.97 256.114 256.401C252.41 251.108 238.232 247.485 231.999 249.178Z" fill="#B96B6B"/>
<path opacity="0.1" d="M266.522 174.465L265.975 178.675L259.604 179.567C259.604 179.567 258.915 178.087 257.941 175.815L266.42 174.22L266.522 174.465Z" fill="black"/>
<path d="M273.235 267.497L276.943 263.188L276.2 239.426C276.565 237.712 276.813 235.974 276.943 234.226C277.089 231.7 275.089 226.059 275.089 226.059C275.399 224.929 275.82 223.834 276.347 222.788C277.236 221.006 275.093 216.996 275.093 216.996C275.093 216.996 271.901 206.6 273.235 201.401C274.568 196.201 272.91 193.233 272.91 193.233C272.91 193.233 271.607 187.441 271.754 185.066C271.901 182.691 268.789 180.458 268.789 180.458L266.419 174.666L256.936 176.448V196.499C256.936 196.499 257.527 215.659 256.936 219.375C256.345 223.091 258.119 226.651 258.119 226.651C258.119 226.651 257.083 232.145 257.972 234.226C258.861 236.307 260.64 241.355 260.64 241.355C260.309 243.159 260.412 245.016 260.937 246.773C261.827 249.376 260.937 250.859 260.937 250.859L273.235 267.497Z" fill="#1C4161"/>
<g opacity="0.1">
<path opacity="0.1" d="M299.915 30.531C299.413 33.1392 299.188 35.7932 299.243 38.4488C299.282 36.2407 299.512 34.0401 299.933 31.8721C300.324 29.8938 300.822 27.7639 300.715 25.79C300.551 27.3861 300.284 28.9697 299.915 30.531Z" fill="black"/>
<path opacity="0.1" d="M252.926 48.9246C252.45 48.479 251.881 48.1671 251.392 47.7438C250.094 46.6344 249.547 45.0258 249.441 43.2881C249.312 45.516 249.765 47.6725 251.392 49.0806C251.881 49.5039 252.45 49.8247 252.926 50.2613C253.921 51.2476 254.497 52.5803 254.536 53.9819C254.665 52.1105 254.287 50.1633 252.926 48.9246Z" fill="black"/>
<path opacity="0.1" d="M251.508 32.2861C251.586 31.345 251.504 30.3974 251.268 29.4834C251.01 28.5299 250.548 27.5986 250.379 26.6406C250.379 26.7431 250.343 26.85 250.33 26.9614C250.201 28.2982 250.921 29.5324 251.268 30.8201C251.396 31.2997 251.476 31.7907 251.508 32.2861Z" fill="black"/>
<path opacity="0.1" d="M298.034 46.9591C296.803 48.2959 294.842 48.6256 293.037 48.6122C291.232 48.5989 289.405 48.3048 287.631 48.6612C286.395 48.9108 285.137 49.4677 283.923 49.1068C282.247 48.6211 281.575 46.4334 279.97 46.0101C278.143 45.5288 276.752 48.0374 275.525 49.0355C272.524 51.4416 268.313 51.4193 264.477 51.2634C262.845 51.1876 260.831 51.3169 260.128 52.7962C259.914 53.2448 259.868 53.7557 259.999 54.2354L254.567 55.0909C254.546 55.5391 254.497 55.9856 254.42 56.4276L259.999 55.5365C259.868 55.0568 259.914 54.5458 260.128 54.0973C260.831 52.6179 262.845 52.4887 264.477 52.5645C268.313 52.7427 272.524 52.765 275.525 50.3366C276.769 49.3385 278.161 46.8299 279.97 47.3111C281.575 47.73 282.247 49.9222 283.923 50.4079C285.137 50.7554 286.395 50.1985 287.631 49.9623C289.409 49.6059 291.232 49.8999 293.037 49.9133C294.842 49.9267 296.803 49.5836 298.034 48.2602C299.266 46.9369 299.443 44.963 299.368 43.0381C299.314 44.5308 299.008 45.912 298.034 46.9591Z" fill="black"/>
</g>
<g opacity="0.1">
<path opacity="0.1" d="M256.879 68.3597C256.355 68.0834 255.806 67.8595 255.238 67.6914C254.273 67.252 253.507 66.4668 253.091 65.4902C253.424 67.0275 254.269 68.4266 255.683 69.0281C256.25 69.1963 256.8 69.4201 257.323 69.6965C257.658 69.9335 257.929 70.2505 258.11 70.6188C257.932 69.7455 257.608 68.8543 256.879 68.3597Z" fill="black"/>
<path opacity="0.1" d="M264.472 79.201C262.422 79.7224 259.746 79.9942 258.621 78.252C258.656 78.6718 258.777 79.0798 258.977 79.4506C259.937 81.166 262.284 81.1081 264.281 80.6848L264.472 79.201Z" fill="black"/>
<path opacity="0.1" d="M272.778 80.4219C273.062 82.2309 271.889 84.0355 270.333 84.9846C268.776 85.9336 266.878 86.1965 265.046 86.3213C264.755 86.359 264.459 86.3254 264.184 86.2233C264.1 86.4116 264.073 86.6203 264.106 86.8237C264.139 87.0272 264.231 87.2166 264.369 87.3688C264.508 87.5211 264.688 87.6295 264.887 87.6808C265.086 87.7322 265.296 87.7243 265.491 87.658C267.323 87.5422 269.208 87.2882 270.777 86.3213C272.346 85.3544 273.52 83.5543 273.218 81.7408C273.133 81.2829 272.984 80.8391 272.778 80.4219Z" fill="black"/>
<path opacity="0.1" d="M274.751 64.292C275.022 65.3753 275.043 66.5065 274.812 67.5991C274.581 68.6918 274.104 69.7171 273.417 70.5969C272.368 71.8712 270.772 72.8916 270.545 74.5269C270.469 75.2787 270.625 76.0357 270.99 76.6968C270.95 76.4205 270.95 76.1399 270.99 75.8636C271.216 74.2283 272.812 73.1901 273.862 71.9336C275.587 69.8439 275.827 66.7649 274.751 64.292Z" fill="black"/>
</g>
<g opacity="0.1">
<path opacity="0.1" d="M221.352 257.587C222.863 256.958 224.753 256.936 225.878 255.804C226.669 255.011 226.86 253.866 227.407 252.917C228.296 251.331 230.141 250.373 232 249.869C238.224 248.176 252.415 251.794 256.114 257.039C257.198 258.625 257.789 260.498 257.812 262.421C257.955 260.201 257.359 257.997 256.119 256.152C252.42 250.908 238.242 247.289 232.004 248.983C230.146 249.486 228.314 250.444 227.411 252.03C226.865 252.979 226.673 254.125 225.882 254.918C224.757 256.045 222.868 256.067 221.356 256.7C220.205 257.177 219.351 258.585 219.662 259.529C219.786 259.102 220.002 258.707 220.293 258.372C220.585 258.036 220.946 257.768 221.352 257.587Z" fill="black"/>
<path opacity="0.1" d="M217.439 264.061C217.626 262.635 218.773 261.209 220.324 261.129C220.162 261.061 220.016 260.957 219.898 260.825C219.78 260.694 219.694 260.537 219.644 260.367C219.054 260.587 218.535 260.964 218.143 261.458C217.751 261.952 217.502 262.544 217.421 263.17C217.379 263.533 217.379 263.899 217.421 264.262C217.439 264.195 217.439 264.128 217.439 264.061Z" fill="black"/>
</g>
<path d="M311.616 102.59H271.158V155.466H311.616V102.59Z" fill="white"/>
<path opacity="0.1" d="M311.616 102.59H271.158V155.466H311.616V102.59Z" fill="black"/>
<path d="M327.073 105.691L287.201 112.564L296.145 164.676L336.017 157.802L327.073 105.691Z" fill="white"/>
<path d="M306.233 146.474L296.865 148.089L298.966 160.332L308.334 158.717L306.233 146.474Z" fill="#6C63FF"/>
<path d="M319.196 144.238L309.828 145.853L311.929 158.095L321.297 156.48L319.196 144.238Z" fill="#6C63FF"/>
<path d="M328.356 126.3L295.504 131.954L297.611 144.253L330.463 138.599L328.356 126.3Z" fill="#6C63FF"/>
<path d="M325.618 111.623L292.766 117.276L293.236 120.02L326.088 114.366L325.618 111.623Z" fill="#6C63FF"/>
<path d="M326.695 116.669L293.843 122.323L294.313 125.067L327.165 119.413L326.695 116.669Z" fill="#6C63FF"/>
<path d="M293.908 88.2246C293.908 88.2246 275.311 106.939 284.647 111.693C293.984 116.447 300.061 95.8751 300.061 95.8751L301.537 91.1966L293.908 88.2246Z" fill="#AE6E79"/>
<path opacity="0.1" d="M292.281 86.5712L289.982 91.6596C289.982 91.6596 301.319 93.2548 303.689 96.6902L302.284 87.7118L300.617 83.8799L292.281 86.5712Z" fill="black"/>
<path d="M292.726 86.1258L290.428 91.2143C290.428 91.2143 301.765 92.8095 304.134 96.2449L302.73 87.2665L301.062 83.4346L292.726 86.1258Z" fill="#4C4981"/>
<path d="M361.352 179.683L361.107 179.852L361.445 180.003L361.81 179.972L361.854 179.718L361.352 179.683Z" fill="#464A5F"/>
<path opacity="0.1" d="M361.352 179.683L361.107 179.852L361.445 180.003L361.81 179.972L361.854 179.718L361.352 179.683Z" fill="black"/>
<path d="M361.352 179.683L361.103 179.843L360.907 179.603L361.027 179.407L361.138 179.371L361.352 179.683Z" fill="#9C9CA1"/>
<path opacity="0.1" d="M361.352 179.683L361.103 179.843L360.907 179.603L361.027 179.407L361.138 179.371L361.352 179.683Z" fill="black"/>
<path d="M405.113 148.889L386.912 122.543C386.751 122.307 386.545 122.106 386.306 121.951C386.067 121.796 385.8 121.689 385.52 121.638C385.24 121.586 384.953 121.59 384.674 121.65C384.396 121.709 384.132 121.824 383.898 121.986L343.324 149.896C342.85 150.223 342.524 150.725 342.418 151.292C342.312 151.859 342.435 152.445 342.76 152.922L360.912 179.603L405.113 148.889Z" fill="#9C9CA1"/>
<path opacity="0.1" d="M405.113 148.889L386.912 122.543C386.751 122.307 386.545 122.106 386.306 121.951C386.067 121.796 385.8 121.689 385.52 121.638C385.24 121.586 384.953 121.59 384.674 121.65C384.396 121.709 384.132 121.824 383.898 121.986L343.324 149.896C342.85 150.223 342.524 150.725 342.418 151.292C342.312 151.859 342.435 152.445 342.76 152.922L360.912 179.603L405.113 148.889Z" fill="black"/>
<path d="M405.558 148.951L387.356 122.604C387.195 122.369 386.988 122.168 386.749 122.013C386.51 121.857 386.243 121.751 385.962 121.699C385.682 121.647 385.394 121.651 385.115 121.711C384.837 121.771 384.572 121.885 384.338 122.047L343.769 149.976C343.295 150.303 342.969 150.804 342.862 151.371C342.755 151.938 342.877 152.524 343.2 153.002L361.353 179.696L405.558 148.951Z" fill="#9C9CA1"/>
<path d="M420.771 154.16L405.655 149.294L361.445 180.007L376.801 185.042C377.145 185.154 377.51 185.184 377.867 185.13C378.225 185.076 378.565 184.939 378.86 184.731L420.896 154.984C420.974 154.94 421.038 154.872 421.078 154.791C421.117 154.71 421.131 154.618 421.118 154.529C421.104 154.439 421.064 154.356 421.002 154.29C420.94 154.224 420.859 154.179 420.771 154.16Z" fill="#464A5F"/>
<path opacity="0.1" d="M420.771 154.16L405.655 149.294L361.445 180.007L376.801 185.042C377.145 185.154 377.51 185.184 377.867 185.13C378.225 185.076 378.565 184.939 378.86 184.731L420.896 154.984C420.974 154.94 421.038 154.872 421.078 154.791C421.117 154.71 421.131 154.618 421.118 154.529C421.104 154.439 421.064 154.356 421.002 154.29C420.94 154.224 420.859 154.179 420.771 154.16Z" fill="black"/>
<path d="M420.678 153.853L405.562 148.982L361.353 179.696L376.709 184.722C377.052 184.836 377.417 184.867 377.774 184.814C378.132 184.761 378.472 184.624 378.767 184.415L420.803 154.668C420.879 154.622 420.939 154.555 420.977 154.475C421.014 154.395 421.027 154.306 421.014 154.218C421 154.131 420.961 154.049 420.902 153.984C420.842 153.919 420.764 153.873 420.678 153.853Z" fill="#464A5F"/>
<g opacity="0.1">
<path opacity="0.1" d="M398.417 147.775L397.301 146.171C397.234 146.078 397.134 146.014 397.021 145.994C396.908 145.973 396.792 145.997 396.696 146.06L395.038 147.169C394.945 147.235 394.881 147.334 394.858 147.446C394.836 147.558 394.857 147.674 394.918 147.771L395.945 149.352C396.009 149.447 396.107 149.513 396.219 149.537C396.331 149.562 396.448 149.542 396.545 149.482L398.292 148.381C398.387 148.316 398.453 148.216 398.477 148.103C398.5 147.99 398.478 147.873 398.417 147.775Z" fill="black"/>
<path opacity="0.1" d="M395.438 149.843L394.318 148.243C394.251 148.15 394.151 148.087 394.038 148.066C393.925 148.045 393.809 148.069 393.713 148.132L392.06 149.25C391.966 149.315 391.901 149.414 391.877 149.526C391.854 149.638 391.875 149.755 391.935 149.852L392.962 151.434C393.026 151.529 393.124 151.596 393.235 151.621C393.347 151.646 393.464 151.627 393.562 151.567L395.314 150.467C395.363 150.434 395.406 150.392 395.439 150.343C395.472 150.294 395.495 150.239 395.507 150.181C395.518 150.123 395.518 150.063 395.507 150.005C395.495 149.947 395.472 149.892 395.438 149.843Z" fill="black"/>
<path opacity="0.1" d="M392.309 152.013L391.189 150.413C391.122 150.32 391.021 150.257 390.909 150.236C390.796 150.215 390.68 150.239 390.584 150.302L388.926 151.42C388.831 151.486 388.766 151.586 388.744 151.699C388.721 151.812 388.744 151.929 388.806 152.026L389.833 153.608C389.897 153.703 389.995 153.769 390.107 153.793C390.219 153.817 390.335 153.797 390.433 153.737L392.18 152.637C392.23 152.605 392.273 152.563 392.306 152.514C392.34 152.465 392.363 152.41 392.375 152.352C392.388 152.294 392.388 152.234 392.376 152.176C392.365 152.117 392.342 152.062 392.309 152.013Z" fill="black"/>
<path opacity="0.1" d="M389.139 154.214L388.018 152.609C387.951 152.518 387.852 152.455 387.74 152.434C387.629 152.413 387.513 152.436 387.418 152.498L385.76 153.621C385.667 153.687 385.602 153.786 385.58 153.898C385.558 154.01 385.579 154.126 385.64 154.222L386.667 155.804C386.73 155.898 386.827 155.965 386.938 155.99C387.049 156.015 387.165 155.996 387.262 155.938L389.014 154.833C389.063 154.8 389.105 154.759 389.138 154.71C389.17 154.661 389.193 154.607 389.205 154.549C389.216 154.492 389.216 154.432 389.205 154.375C389.194 154.317 389.171 154.262 389.139 154.214Z" fill="black"/>
<path opacity="0.1" d="M385.974 156.41L384.853 154.811C384.786 154.718 384.686 154.654 384.573 154.633C384.461 154.613 384.344 154.636 384.249 154.699L382.595 155.818C382.501 155.883 382.436 155.982 382.413 156.093C382.389 156.205 382.41 156.322 382.47 156.419L383.497 158.001C383.561 158.096 383.659 158.164 383.771 158.189C383.882 158.213 384 158.194 384.098 158.135L385.849 157.03C385.898 156.997 385.94 156.956 385.973 156.907C386.006 156.858 386.028 156.803 386.04 156.746C386.051 156.688 386.052 156.629 386.04 156.571C386.029 156.514 386.006 156.459 385.974 156.41Z" fill="black"/>
<path opacity="0.1" d="M382.945 158.808L381.554 156.821C381.539 156.798 381.52 156.779 381.498 156.765C381.476 156.75 381.451 156.74 381.425 156.735C381.399 156.73 381.372 156.73 381.346 156.736C381.32 156.741 381.295 156.752 381.274 156.767L379.237 158.144C379.215 158.158 379.196 158.177 379.181 158.199C379.166 158.221 379.155 158.246 379.15 158.272C379.144 158.298 379.144 158.325 379.149 158.351C379.154 158.378 379.165 158.402 379.18 158.425L380.456 160.39C380.485 160.435 380.53 160.467 380.583 160.478C380.635 160.49 380.69 160.48 380.736 160.452L382.887 159.115C382.913 159.1 382.936 159.08 382.953 159.056C382.97 159.032 382.982 159.004 382.987 158.975C382.993 158.946 382.992 158.916 382.985 158.887C382.977 158.858 382.964 158.831 382.945 158.808Z" fill="black"/>
<path opacity="0.1" d="M379.78 161.004L378.38 159.017C378.364 158.995 378.345 158.976 378.323 158.961C378.3 158.946 378.275 158.936 378.248 158.931C378.222 158.926 378.195 158.927 378.169 158.932C378.142 158.938 378.117 158.948 378.095 158.964L376.059 160.34C376.015 160.371 375.985 160.418 375.975 160.47C375.965 160.522 375.976 160.577 376.005 160.621L377.281 162.586C377.295 162.61 377.313 162.63 377.335 162.646C377.357 162.662 377.382 162.673 377.408 162.679C377.434 162.685 377.461 162.685 377.488 162.68C377.514 162.675 377.539 162.664 377.562 162.649L379.709 161.312C379.736 161.299 379.761 161.28 379.78 161.256C379.799 161.233 379.812 161.205 379.819 161.175C379.826 161.146 379.826 161.115 379.819 161.085C379.812 161.056 379.799 161.028 379.78 161.004Z" fill="black"/>
<path opacity="0.1" d="M376.974 162.951L375.583 160.982C375.551 160.939 375.505 160.91 375.453 160.901C375.4 160.891 375.346 160.903 375.303 160.933L373.266 162.305C373.222 162.336 373.191 162.383 373.18 162.436C373.169 162.489 373.179 162.545 373.209 162.59L374.485 164.555C374.514 164.6 374.56 164.631 374.612 164.642C374.664 164.654 374.719 164.645 374.765 164.618L376.916 163.281C376.946 163.267 376.972 163.246 376.992 163.22C377.012 163.194 377.025 163.163 377.031 163.131C377.036 163.099 377.034 163.066 377.024 163.034C377.014 163.003 376.997 162.975 376.974 162.951Z" fill="black"/>
<path opacity="0.1" d="M373.836 165.126L372.445 163.139C372.413 163.096 372.367 163.067 372.315 163.058C372.262 163.049 372.209 163.06 372.165 163.09L370.128 164.462C370.106 164.477 370.086 164.496 370.071 164.519C370.056 164.541 370.046 164.566 370.04 164.593C370.035 164.619 370.035 164.647 370.04 164.673C370.045 164.7 370.056 164.725 370.071 164.748L371.347 166.712C371.376 166.757 371.422 166.788 371.474 166.799C371.526 166.811 371.581 166.802 371.627 166.775L373.778 165.438C373.804 165.423 373.827 165.402 373.844 165.378C373.861 165.353 373.873 165.325 373.879 165.295C373.884 165.266 373.883 165.235 373.876 165.206C373.869 165.177 373.855 165.15 373.836 165.126Z" fill="black"/>
<path opacity="0.1" d="M370.796 167.22L369.404 165.233C369.39 165.211 369.371 165.192 369.348 165.177C369.326 165.162 369.302 165.152 369.275 165.147C369.249 165.142 369.223 165.142 369.197 165.148C369.171 165.153 369.146 165.164 369.124 165.179L367.088 166.556C367.066 166.57 367.046 166.589 367.031 166.611C367.016 166.633 367.006 166.658 367 166.684C366.995 166.71 366.995 166.737 367 166.763C367.005 166.79 367.015 166.815 367.03 166.837L368.306 168.802C368.335 168.847 368.381 168.879 368.434 168.89C368.486 168.902 368.541 168.893 368.586 168.864L370.738 167.527C370.764 167.513 370.786 167.492 370.804 167.468C370.821 167.444 370.833 167.416 370.838 167.387C370.844 167.358 370.843 167.328 370.835 167.299C370.828 167.27 370.815 167.243 370.796 167.22Z" fill="black"/>
<path opacity="0.1" d="M367.754 169.35L366.376 167.359C366.345 167.316 366.298 167.287 366.246 167.277C366.194 167.268 366.14 167.28 366.096 167.31L364.06 168.682C364.037 168.697 364.018 168.716 364.003 168.739C363.988 168.761 363.977 168.786 363.972 168.813C363.966 168.839 363.966 168.866 363.972 168.893C363.977 168.92 363.987 168.945 364.002 168.967L365.278 170.932C365.308 170.976 365.354 171.008 365.406 171.019C365.458 171.031 365.512 171.022 365.558 170.995L367.71 169.658C367.735 169.642 367.756 169.621 367.772 169.596C367.788 169.572 367.798 169.544 367.803 169.514C367.807 169.485 367.805 169.455 367.796 169.427C367.788 169.399 367.774 169.373 367.754 169.35Z" fill="black"/>
<path opacity="0.1" d="M364.713 171.457L363.321 169.47C363.307 169.448 363.288 169.429 363.265 169.414C363.243 169.4 363.218 169.389 363.192 169.384C363.166 169.379 363.14 169.38 363.114 169.385C363.088 169.391 363.063 169.401 363.041 169.416L361.005 170.784C360.983 170.799 360.963 170.818 360.948 170.84C360.933 170.862 360.923 170.886 360.917 170.913C360.912 170.939 360.912 170.966 360.917 170.992C360.922 171.018 360.932 171.043 360.947 171.065L362.223 173.03C362.252 173.075 362.298 173.107 362.35 173.119C362.403 173.13 362.458 173.121 362.503 173.092L364.655 171.756C364.68 171.741 364.701 171.721 364.717 171.698C364.733 171.674 364.745 171.647 364.75 171.619C364.756 171.591 364.755 171.562 364.749 171.534C364.742 171.506 364.73 171.48 364.713 171.457Z" fill="black"/>
<path opacity="0.1" d="M396.416 144.875L395.296 143.271C395.229 143.178 395.129 143.114 395.016 143.093C394.903 143.073 394.787 143.096 394.691 143.159L393.051 144.282C392.957 144.347 392.892 144.446 392.869 144.558C392.845 144.67 392.866 144.786 392.926 144.884L393.953 146.465C394.018 146.56 394.116 146.626 394.228 146.65C394.339 146.675 394.456 146.654 394.554 146.595L396.305 145.494C396.402 145.427 396.468 145.323 396.489 145.207C396.509 145.091 396.483 144.972 396.416 144.875Z" fill="black"/>
<path opacity="0.1" d="M392.038 138.534L390.918 136.921C390.851 136.829 390.751 136.766 390.64 136.746C390.528 136.725 390.413 136.748 390.318 136.81L388.659 137.928C388.565 137.993 388.5 138.092 388.477 138.204C388.454 138.316 388.475 138.432 388.535 138.529L389.562 140.111C389.625 140.207 389.723 140.274 389.835 140.299C389.947 140.324 390.064 140.304 390.162 140.245L391.914 139.144C392.01 139.079 392.077 138.979 392.1 138.865C392.123 138.751 392.101 138.632 392.038 138.534Z" fill="black"/>
<path opacity="0.1" d="M393.433 146.941L392.313 145.342C392.246 145.25 392.147 145.187 392.035 145.167C391.924 145.146 391.808 145.169 391.713 145.23L390.055 146.349C389.962 146.415 389.897 146.514 389.875 146.626C389.853 146.738 389.874 146.854 389.935 146.95L390.957 148.532C391.021 148.628 391.119 148.695 391.23 148.72C391.342 148.745 391.459 148.725 391.557 148.666L393.309 147.565C393.359 147.533 393.401 147.491 393.434 147.442C393.467 147.393 393.49 147.338 393.502 147.28C393.514 147.221 393.513 147.162 393.502 147.104C393.49 147.046 393.467 146.99 393.433 146.941Z" fill="black"/>
<path opacity="0.1" d="M390.304 149.112L389.183 147.513C389.116 147.42 389.016 147.356 388.903 147.335C388.791 147.315 388.674 147.338 388.579 147.401L386.925 148.506C386.83 148.572 386.764 148.671 386.741 148.784C386.717 148.897 386.739 149.015 386.8 149.112L387.827 150.694C387.892 150.789 387.99 150.855 388.102 150.879C388.213 150.903 388.33 150.883 388.428 150.823L390.179 149.723C390.275 149.658 390.342 149.557 390.366 149.443C390.389 149.329 390.367 149.21 390.304 149.112Z" fill="black"/>
<path opacity="0.1" d="M387.134 151.313L386.018 149.709C385.951 149.616 385.85 149.553 385.738 149.532C385.625 149.511 385.509 149.535 385.413 149.598L383.755 150.734C383.662 150.8 383.597 150.899 383.575 151.011C383.553 151.123 383.574 151.239 383.635 151.335L384.662 152.917C384.726 153.012 384.824 153.078 384.936 153.102C385.048 153.126 385.165 153.106 385.262 153.046L387.009 151.946C387.06 151.913 387.104 151.871 387.138 151.821C387.171 151.772 387.195 151.715 387.207 151.656C387.218 151.597 387.218 151.536 387.205 151.477C387.193 151.418 387.168 151.362 387.134 151.313Z" fill="black"/>
<path opacity="0.1" d="M389.125 140.703L388.005 139.104C387.938 139.012 387.838 138.949 387.727 138.928C387.615 138.908 387.5 138.93 387.404 138.992L385.746 140.111C385.652 140.176 385.587 140.274 385.564 140.386C385.541 140.498 385.561 140.615 385.622 140.712L386.649 142.294C386.712 142.389 386.81 142.457 386.922 142.481C387.034 142.506 387.151 142.487 387.249 142.428L389.001 141.327C389.05 141.295 389.093 141.253 389.126 141.204C389.159 141.155 389.182 141.099 389.193 141.041C389.205 140.983 389.205 140.923 389.193 140.865C389.181 140.807 389.158 140.752 389.125 140.703Z" fill="black"/>
<path opacity="0.1" d="M385.995 142.879L384.875 141.275C384.808 141.181 384.707 141.118 384.595 141.097C384.482 141.076 384.366 141.1 384.27 141.163L382.616 142.268C382.522 142.333 382.457 142.432 382.434 142.544C382.411 142.656 382.432 142.773 382.492 142.87L383.519 144.451C383.583 144.546 383.681 144.612 383.793 144.637C383.905 144.661 384.022 144.641 384.119 144.581L385.871 143.48C385.964 143.415 386.03 143.316 386.053 143.204C386.076 143.092 386.055 142.976 385.995 142.879Z" fill="black"/>
<path opacity="0.1" d="M382.826 145.074L381.706 143.475C381.639 143.382 381.54 143.319 381.429 143.297C381.317 143.276 381.201 143.298 381.105 143.359L379.447 144.495C379.354 144.561 379.29 144.66 379.267 144.772C379.245 144.884 379.266 145 379.327 145.097L380.354 146.678C380.418 146.774 380.516 146.841 380.627 146.866C380.739 146.891 380.856 146.872 380.954 146.812L382.701 145.707C382.752 145.675 382.796 145.632 382.83 145.583C382.864 145.533 382.887 145.477 382.899 145.417C382.911 145.358 382.91 145.297 382.898 145.238C382.885 145.179 382.861 145.124 382.826 145.074Z" fill="black"/>
<path opacity="0.1" d="M383.969 153.51L382.849 151.91C382.782 151.818 382.683 151.754 382.572 151.733C382.46 151.711 382.344 151.733 382.248 151.794L380.603 152.917C380.51 152.983 380.446 153.082 380.424 153.194C380.401 153.306 380.423 153.422 380.483 153.519L381.493 155.101C381.556 155.195 381.653 155.261 381.764 155.286C381.875 155.311 381.991 155.293 382.088 155.234L383.84 154.129C383.889 154.097 383.932 154.056 383.965 154.007C383.998 153.959 384.021 153.904 384.033 153.847C384.045 153.789 384.046 153.73 384.035 153.672C384.024 153.614 384.001 153.559 383.969 153.51Z" fill="black"/>
<path opacity="0.1" d="M380.803 155.706L379.682 154.107C379.615 154.013 379.515 153.95 379.402 153.929C379.29 153.908 379.173 153.932 379.078 153.995L377.424 155.114C377.33 155.179 377.265 155.277 377.242 155.389C377.219 155.501 377.239 155.618 377.299 155.715L378.326 157.297C378.39 157.392 378.488 157.46 378.6 157.484C378.712 157.509 378.829 157.49 378.927 157.431L380.678 156.33C380.728 156.298 380.77 156.256 380.803 156.207C380.837 156.158 380.86 156.102 380.871 156.044C380.883 155.986 380.883 155.926 380.871 155.868C380.859 155.81 380.836 155.755 380.803 155.706Z" fill="black"/>
<path opacity="0.1" d="M377.775 158.104L376.384 156.116C376.369 156.094 376.35 156.075 376.328 156.061C376.306 156.046 376.281 156.036 376.255 156.031C376.229 156.026 376.202 156.026 376.176 156.032C376.15 156.037 376.126 156.048 376.104 156.063L374.067 157.44C374.045 157.454 374.026 157.473 374.011 157.495C373.996 157.517 373.985 157.542 373.98 157.568C373.974 157.594 373.974 157.621 373.979 157.647C373.985 157.673 373.995 157.698 374.01 157.72L375.286 159.685C375.3 159.708 375.318 159.728 375.34 159.744C375.362 159.759 375.386 159.77 375.413 159.776C375.439 159.782 375.466 159.782 375.492 159.777C375.518 159.773 375.543 159.763 375.566 159.748L377.718 158.411C377.743 158.396 377.766 158.376 377.783 158.352C377.8 158.328 377.812 158.3 377.818 158.271C377.823 158.242 377.822 158.211 377.815 158.183C377.808 158.154 377.794 158.127 377.775 158.104Z" fill="black"/>
<path opacity="0.1" d="M374.97 160.051L373.578 158.059C373.547 158.016 373.5 157.987 373.448 157.978C373.396 157.969 373.342 157.98 373.298 158.01L371.266 159.382C371.222 159.413 371.191 159.46 371.18 159.513C371.169 159.566 371.179 159.622 371.209 159.667L372.485 161.632C372.514 161.677 372.56 161.708 372.612 161.719C372.664 161.731 372.719 161.722 372.765 161.695L374.916 160.358C374.943 160.344 374.966 160.324 374.984 160.3C375.002 160.276 375.014 160.247 375.019 160.218C375.024 160.188 375.023 160.157 375.014 160.128C375.005 160.099 374.99 160.073 374.97 160.051Z" fill="black"/>
<path opacity="0.1" d="M371.831 162.226L370.44 160.239C370.408 160.196 370.362 160.166 370.309 160.157C370.257 160.148 370.203 160.16 370.159 160.19L368.123 161.562C368.101 161.576 368.081 161.595 368.066 161.617C368.051 161.639 368.041 161.664 368.035 161.69C368.03 161.716 368.03 161.743 368.035 161.769C368.04 161.796 368.05 161.821 368.065 161.843L369.341 163.812C369.371 163.856 369.417 163.888 369.469 163.899C369.521 163.911 369.576 163.902 369.621 163.875L371.773 162.538C371.799 162.523 371.822 162.502 371.839 162.477C371.856 162.453 371.868 162.425 371.873 162.395C371.879 162.366 371.878 162.335 371.871 162.306C371.863 162.277 371.85 162.249 371.831 162.226Z" fill="black"/>
<path opacity="0.1" d="M368.79 164.337L367.398 162.35C367.384 162.328 367.365 162.309 367.343 162.294C367.32 162.279 367.296 162.269 367.27 162.264C367.244 162.259 367.217 162.26 367.191 162.265C367.165 162.271 367.14 162.281 367.118 162.296L365.082 163.655C365.06 163.67 365.04 163.689 365.025 163.711C365.01 163.733 365 163.757 364.994 163.784C364.989 163.81 364.989 163.837 364.994 163.863C364.999 163.889 365.009 163.914 365.024 163.936L366.3 165.901C366.33 165.946 366.375 165.978 366.428 165.99C366.48 166.001 366.535 165.992 366.58 165.963L368.732 164.627C368.755 164.612 368.775 164.592 368.791 164.57C368.806 164.547 368.817 164.521 368.823 164.494C368.828 164.467 368.828 164.439 368.822 164.412C368.817 164.385 368.806 164.36 368.79 164.337Z" fill="black"/>
<path opacity="0.1" d="M388.219 146.095L387.098 144.495C387.031 144.403 386.932 144.341 386.82 144.32C386.709 144.299 386.593 144.322 386.498 144.384L384.84 145.507C384.747 145.572 384.682 145.671 384.66 145.783C384.638 145.895 384.659 146.012 384.72 146.108L385.747 147.69C385.811 147.783 385.908 147.849 386.019 147.873C386.13 147.897 386.245 147.878 386.342 147.819L388.094 146.719C388.144 146.686 388.186 146.644 388.219 146.595C388.252 146.546 388.276 146.491 388.287 146.433C388.299 146.375 388.299 146.315 388.287 146.257C388.275 146.199 388.252 146.144 388.219 146.095Z" fill="black"/>
<path opacity="0.1" d="M385.049 148.297L383.928 146.692C383.861 146.599 383.761 146.536 383.648 146.515C383.536 146.494 383.42 146.518 383.324 146.581L381.67 147.704C381.576 147.769 381.511 147.868 381.488 147.98C381.465 148.092 381.485 148.208 381.546 148.305L382.572 149.887C382.636 149.983 382.734 150.05 382.846 150.075C382.958 150.1 383.075 150.08 383.173 150.021L384.924 148.916C384.973 148.884 385.015 148.842 385.048 148.793C385.081 148.744 385.103 148.69 385.115 148.632C385.127 148.575 385.127 148.515 385.115 148.458C385.104 148.4 385.081 148.345 385.049 148.297Z" fill="black"/>
<path opacity="0.1" d="M381.887 150.493L380.767 148.894C380.7 148.801 380.599 148.737 380.487 148.716C380.374 148.696 380.258 148.719 380.162 148.782L378.504 149.901C378.411 149.966 378.346 150.065 378.324 150.177C378.302 150.289 378.323 150.406 378.384 150.502L379.411 152.084C379.474 152.179 379.572 152.247 379.684 152.272C379.796 152.296 379.913 152.277 380.011 152.218L381.758 151.113C381.807 151.081 381.85 151.039 381.883 150.991C381.916 150.942 381.939 150.887 381.951 150.83C381.963 150.772 381.964 150.713 381.953 150.655C381.942 150.597 381.92 150.542 381.887 150.493Z" fill="black"/>
<path opacity="0.1" d="M378.718 152.691L377.597 151.091C377.53 150.999 377.431 150.936 377.319 150.916C377.208 150.895 377.092 150.918 376.997 150.979L375.339 152.098C375.246 152.164 375.181 152.263 375.159 152.375C375.137 152.487 375.158 152.603 375.219 152.699L376.246 154.299C376.309 154.393 376.406 154.46 376.517 154.485C376.628 154.509 376.744 154.491 376.842 154.433L378.593 153.332C378.645 153.3 378.69 153.257 378.725 153.206C378.76 153.156 378.784 153.099 378.795 153.039C378.807 152.978 378.806 152.916 378.793 152.856C378.779 152.797 378.754 152.74 378.718 152.691Z" fill="black"/>
<path opacity="0.1" d="M375.712 155.087L374.321 153.1C374.306 153.078 374.287 153.059 374.265 153.044C374.243 153.029 374.218 153.019 374.192 153.014C374.166 153.009 374.139 153.01 374.113 153.015C374.087 153.021 374.062 153.031 374.04 153.046L372.004 154.423C371.96 154.453 371.929 154.499 371.918 154.552C371.907 154.604 371.918 154.659 371.947 154.704L373.222 156.673C373.237 156.696 373.256 156.715 373.278 156.73C373.3 156.745 373.324 156.756 373.35 156.761C373.376 156.767 373.403 156.767 373.429 156.762C373.456 156.757 373.48 156.746 373.503 156.731L375.654 155.395C375.68 155.38 375.702 155.36 375.72 155.335C375.737 155.311 375.749 155.283 375.754 155.254C375.76 155.225 375.759 155.195 375.752 155.166C375.744 155.137 375.731 155.11 375.712 155.087Z" fill="black"/>
<path opacity="0.1" d="M372.889 157.034L371.498 155.043C371.466 154.999 371.418 154.97 371.365 154.961C371.312 154.952 371.258 154.964 371.213 154.994L369.181 156.366C369.137 156.397 369.106 156.444 369.095 156.497C369.084 156.55 369.094 156.605 369.124 156.651L370.4 158.616C370.429 158.661 370.474 158.693 370.527 158.705C370.579 158.717 370.634 158.707 370.68 158.679L372.831 157.342C372.857 157.327 372.88 157.307 372.897 157.283C372.914 157.259 372.926 157.231 372.931 157.202C372.937 157.172 372.936 157.142 372.929 157.113C372.921 157.084 372.908 157.058 372.889 157.034Z" fill="black"/>
<path opacity="0.1" d="M369.751 159.199L368.359 157.208C368.327 157.164 368.28 157.135 368.227 157.126C368.174 157.117 368.119 157.129 368.074 157.159L366.038 158.531C365.994 158.563 365.964 158.609 365.953 158.662C365.943 158.715 365.952 158.77 365.98 158.816L367.261 160.781C367.29 160.826 367.336 160.858 367.388 160.87C367.441 160.882 367.495 160.872 367.541 160.844L369.688 159.507C369.715 159.493 369.738 159.474 369.757 159.45C369.775 159.426 369.787 159.398 369.793 159.368C369.799 159.339 369.799 159.308 369.791 159.279C369.784 159.25 369.77 159.223 369.751 159.199Z" fill="black"/>
<path opacity="0.1" d="M366.71 161.321L365.318 159.334C365.303 159.311 365.283 159.292 365.261 159.277C365.238 159.263 365.213 159.253 365.187 159.248C365.16 159.243 365.133 159.243 365.107 159.249C365.081 159.254 365.056 159.265 365.033 159.28L362.997 160.657C362.954 160.688 362.924 160.734 362.914 160.786C362.904 160.839 362.915 160.893 362.944 160.938L364.22 162.903C364.234 162.926 364.252 162.946 364.274 162.962C364.295 162.978 364.32 162.989 364.346 162.995C364.373 163.001 364.4 163.001 364.426 162.996C364.453 162.991 364.478 162.98 364.5 162.965L366.647 161.628C366.674 161.615 366.697 161.595 366.716 161.571C366.734 161.547 366.746 161.519 366.752 161.49C366.758 161.46 366.758 161.429 366.75 161.4C366.743 161.371 366.729 161.344 366.71 161.321Z" fill="black"/>
<path opacity="0.1" d="M365.749 166.445L364.358 164.457C364.326 164.414 364.28 164.385 364.227 164.376C364.175 164.367 364.121 164.379 364.077 164.408L362.041 165.781C362.019 165.795 361.999 165.814 361.984 165.836C361.969 165.858 361.959 165.883 361.953 165.909C361.948 165.935 361.948 165.962 361.953 165.988C361.958 166.014 361.968 166.039 361.983 166.061L363.259 168.031C363.289 168.075 363.335 168.106 363.387 168.118C363.439 168.129 363.494 168.121 363.539 168.093L365.691 166.757C365.717 166.741 365.74 166.721 365.757 166.696C365.774 166.672 365.786 166.643 365.791 166.614C365.797 166.584 365.796 166.554 365.789 166.525C365.781 166.495 365.768 166.468 365.749 166.445Z" fill="black"/>
<path opacity="0.1" d="M362.708 168.557L361.316 166.57C361.302 166.547 361.283 166.528 361.261 166.514C361.238 166.499 361.214 166.489 361.188 166.484C361.162 166.479 361.135 166.479 361.109 166.485C361.083 166.49 361.058 166.501 361.036 166.516L359 167.893C358.978 167.907 358.958 167.926 358.943 167.948C358.928 167.97 358.918 167.995 358.912 168.021C358.907 168.047 358.907 168.074 358.912 168.1C358.917 168.127 358.927 168.151 358.942 168.174L360.218 170.139C360.248 170.184 360.293 170.216 360.346 170.227C360.398 170.239 360.453 170.229 360.498 170.201L362.65 168.864C362.676 168.85 362.698 168.829 362.716 168.805C362.733 168.781 362.745 168.753 362.75 168.724C362.756 168.695 362.755 168.665 362.748 168.636C362.74 168.607 362.727 168.58 362.708 168.557Z" fill="black"/>
<path opacity="0.1" d="M367.483 155.929L366.149 154.058C366.107 154 366.044 153.96 365.973 153.948C365.903 153.935 365.83 153.951 365.771 153.991L363.85 155.287C363.82 155.307 363.795 155.333 363.775 155.363C363.755 155.392 363.741 155.426 363.734 155.461C363.727 155.496 363.727 155.533 363.734 155.568C363.741 155.603 363.755 155.636 363.775 155.666L364.975 157.515C364.994 157.546 365.018 157.572 365.047 157.593C365.076 157.614 365.109 157.629 365.144 157.637C365.179 157.645 365.215 157.646 365.25 157.639C365.285 157.633 365.319 157.62 365.349 157.6L367.38 156.321C367.414 156.303 367.443 156.279 367.467 156.249C367.49 156.219 367.507 156.184 367.517 156.148C367.527 156.111 367.528 156.072 367.523 156.035C367.517 155.997 367.503 155.961 367.483 155.929Z" fill="black"/>
<path opacity="0.1" d="M364.443 158.041L363.131 156.17C363.111 156.14 363.085 156.115 363.055 156.095C363.025 156.076 362.992 156.062 362.957 156.055C362.922 156.049 362.886 156.049 362.851 156.057C362.816 156.064 362.783 156.078 362.753 156.099L360.832 157.417C360.803 157.437 360.777 157.462 360.757 157.491C360.737 157.521 360.723 157.554 360.716 157.589C360.709 157.624 360.709 157.659 360.716 157.694C360.723 157.729 360.737 157.762 360.757 157.792L361.957 159.645C361.996 159.705 362.057 159.747 362.127 159.763C362.197 159.779 362.27 159.767 362.331 159.73L364.363 158.451C364.397 158.431 364.426 158.405 364.45 158.372C364.473 158.34 364.488 158.303 364.496 158.265C364.504 158.226 364.503 158.186 364.494 158.147C364.484 158.109 364.467 158.072 364.443 158.041Z" fill="black"/>
<path opacity="0.1" d="M361.401 160.153L360.089 158.277C360.047 158.219 359.984 158.18 359.914 158.167C359.843 158.155 359.771 158.17 359.711 158.211L357.791 159.507C357.761 159.527 357.735 159.553 357.715 159.582C357.695 159.612 357.681 159.646 357.674 159.681C357.667 159.716 357.667 159.752 357.674 159.787C357.681 159.823 357.695 159.856 357.715 159.886L358.916 161.735C358.934 161.766 358.959 161.792 358.988 161.813C359.017 161.834 359.05 161.849 359.084 161.857C359.119 161.864 359.155 161.865 359.19 161.859C359.226 161.853 359.259 161.839 359.289 161.82L361.321 160.541C361.352 160.522 361.38 160.496 361.401 160.466C361.422 160.435 361.437 160.401 361.444 160.364C361.452 160.328 361.452 160.291 361.444 160.254C361.437 160.218 361.422 160.184 361.401 160.153Z" fill="black"/>
<path opacity="0.1" d="M358.4 162.319L357.008 160.327C356.977 160.285 356.931 160.255 356.878 160.246C356.826 160.237 356.772 160.249 356.728 160.278L354.692 161.651C354.647 161.682 354.617 161.729 354.606 161.782C354.595 161.835 354.605 161.89 354.634 161.936L355.91 163.901C355.94 163.945 355.986 163.976 356.038 163.988C356.09 164 356.145 163.991 356.19 163.963L358.342 162.627C358.369 162.613 358.393 162.594 358.411 162.569C358.429 162.545 358.442 162.517 358.447 162.487C358.453 162.458 358.452 162.427 358.443 162.398C358.435 162.369 358.42 162.342 358.4 162.319Z" fill="black"/>
<path opacity="0.1" d="M394.385 141.756L393.18 140.04C393.112 139.948 393.012 139.885 392.899 139.865C392.787 139.845 392.671 139.87 392.576 139.933L387.872 143.235C387.781 143.301 387.718 143.4 387.697 143.511C387.675 143.621 387.696 143.736 387.756 143.832L388.89 145.587C388.923 145.636 388.964 145.678 389.013 145.71C389.062 145.743 389.117 145.765 389.174 145.776C389.231 145.787 389.29 145.787 389.348 145.775C389.405 145.764 389.46 145.741 389.508 145.708L394.283 142.361C394.374 142.293 394.436 142.192 394.455 142.079C394.474 141.966 394.449 141.85 394.385 141.756Z" fill="black"/>
<path opacity="0.1" d="M363.66 163.366L362.184 161.277C362.169 161.254 362.149 161.235 362.127 161.221C362.104 161.206 362.079 161.196 362.052 161.191C362.025 161.187 361.998 161.188 361.972 161.194C361.946 161.2 361.921 161.212 361.899 161.228L356.822 164.792C356.779 164.822 356.749 164.868 356.739 164.919C356.729 164.971 356.74 165.025 356.769 165.069L358.156 167.221C358.171 167.244 358.19 167.264 358.213 167.279C358.235 167.295 358.261 167.306 358.288 167.311C358.315 167.317 358.343 167.317 358.37 167.311C358.397 167.305 358.422 167.294 358.445 167.279L363.606 163.656C363.652 163.625 363.683 163.576 363.693 163.522C363.703 163.468 363.691 163.412 363.66 163.366Z" fill="black"/>
<path opacity="0.1" d="M379.811 147.383L378.451 145.387C378.42 145.343 378.374 145.313 378.322 145.303C378.269 145.293 378.215 145.304 378.171 145.334L366.896 152.962C366.852 152.992 366.821 153.038 366.81 153.09C366.799 153.143 366.809 153.198 366.838 153.243L368.23 155.381C368.244 155.405 368.264 155.425 368.287 155.44C368.309 155.456 368.335 155.467 368.362 155.472C368.389 155.477 368.417 155.477 368.444 155.472C368.47 155.466 368.496 155.455 368.519 155.439L379.758 147.668C379.78 147.653 379.799 147.634 379.814 147.611C379.828 147.589 379.839 147.563 379.844 147.537C379.848 147.511 379.848 147.483 379.843 147.457C379.837 147.431 379.826 147.406 379.811 147.383Z" fill="black"/>
</g>
<path d="M398.716 147.829L397.595 146.225C397.528 146.132 397.428 146.068 397.315 146.047C397.203 146.027 397.087 146.05 396.991 146.113L395.337 147.236C395.243 147.301 395.178 147.4 395.155 147.512C395.132 147.624 395.152 147.741 395.212 147.838L396.239 149.419C396.303 149.515 396.401 149.582 396.513 149.607C396.625 149.632 396.742 149.613 396.84 149.553L398.591 148.448C398.64 148.416 398.682 148.374 398.715 148.325C398.748 148.277 398.771 148.222 398.782 148.164C398.794 148.107 398.794 148.048 398.782 147.99C398.771 147.932 398.748 147.878 398.716 147.829Z" fill="#464A5F"/>
<path d="M395.719 149.896L394.598 148.296C394.531 148.204 394.432 148.141 394.32 148.121C394.209 148.1 394.094 148.123 393.998 148.185L392.34 149.303C392.246 149.368 392.181 149.467 392.158 149.579C392.135 149.691 392.155 149.807 392.215 149.905L393.242 151.486C393.306 151.582 393.404 151.649 393.516 151.674C393.628 151.699 393.745 151.679 393.843 151.62L395.594 150.519C395.644 150.487 395.686 150.445 395.719 150.396C395.753 150.347 395.776 150.292 395.787 150.234C395.799 150.176 395.799 150.116 395.787 150.058C395.775 150 395.752 149.945 395.719 149.896Z" fill="#464A5F"/>
<path d="M392.607 152.07L391.486 150.471C391.419 150.378 391.319 150.314 391.206 150.293C391.093 150.273 390.977 150.296 390.881 150.359L389.228 151.482C389.134 151.547 389.069 151.646 389.045 151.758C389.022 151.87 389.043 151.987 389.103 152.084L390.13 153.666C390.194 153.76 390.293 153.827 390.404 153.851C390.516 153.875 390.633 153.855 390.73 153.795L392.482 152.694C392.532 152.662 392.574 152.62 392.607 152.571C392.64 152.522 392.663 152.467 392.675 152.409C392.687 152.35 392.686 152.291 392.675 152.233C392.663 152.174 392.64 152.119 392.607 152.07Z" fill="#464A5F"/>
<path d="M389.433 154.267L388.312 152.663C388.245 152.571 388.146 152.509 388.034 152.488C387.923 152.467 387.807 152.49 387.712 152.552L386.054 153.675C386.005 153.708 385.963 153.75 385.931 153.8C385.899 153.849 385.877 153.904 385.866 153.962C385.855 154.02 385.856 154.08 385.868 154.138C385.881 154.195 385.905 154.25 385.938 154.298L386.965 155.88C387.029 155.976 387.127 156.043 387.239 156.068C387.35 156.093 387.467 156.073 387.565 156.014L389.313 154.909C389.364 154.876 389.409 154.833 389.443 154.782C389.477 154.732 389.501 154.674 389.512 154.614C389.523 154.554 389.522 154.492 389.509 154.432C389.495 154.373 389.469 154.316 389.433 154.267Z" fill="#464A5F"/>
<path d="M386.267 156.464L385.147 154.864C385.08 154.772 384.981 154.71 384.869 154.689C384.757 154.668 384.642 154.691 384.547 154.753L382.889 155.871C382.796 155.937 382.731 156.036 382.709 156.148C382.686 156.26 382.708 156.376 382.769 156.473L383.791 158.055C383.855 158.15 383.953 158.217 384.064 158.242C384.176 158.267 384.293 158.248 384.391 158.188L386.143 157.083C386.192 157.051 386.234 157.009 386.267 156.961C386.299 156.912 386.322 156.857 386.334 156.8C386.345 156.742 386.345 156.683 386.334 156.625C386.323 156.568 386.3 156.513 386.267 156.464Z" fill="#464A5F"/>
<path d="M383.239 158.861L381.848 156.873C381.833 156.851 381.814 156.832 381.792 156.817C381.77 156.803 381.745 156.793 381.719 156.788C381.693 156.783 381.666 156.783 381.64 156.789C381.614 156.794 381.589 156.805 381.568 156.82L379.531 158.197C379.509 158.211 379.49 158.23 379.475 158.252C379.459 158.274 379.449 158.299 379.444 158.325C379.438 158.351 379.438 158.378 379.443 158.404C379.448 158.43 379.459 158.455 379.474 158.477L380.75 160.442C380.779 160.487 380.824 160.519 380.877 160.531C380.929 160.543 380.984 160.533 381.03 160.505L383.181 159.168C383.207 159.153 383.23 159.133 383.247 159.109C383.264 159.085 383.276 159.057 383.281 159.028C383.287 158.998 383.286 158.968 383.279 158.939C383.271 158.911 383.258 158.884 383.239 158.861Z" fill="#464A5F"/>
<path d="M380.074 161.058L378.683 159.071C378.667 159.049 378.648 159.03 378.626 159.015C378.603 159 378.578 158.99 378.551 158.985C378.525 158.98 378.498 158.98 378.472 158.986C378.445 158.991 378.42 159.002 378.398 159.017L376.366 160.394C376.344 160.409 376.325 160.427 376.31 160.449C376.294 160.471 376.284 160.496 376.279 160.522C376.273 160.549 376.273 160.575 376.278 160.602C376.283 160.628 376.294 160.653 376.309 160.675L377.584 162.644C377.599 162.667 377.618 162.686 377.64 162.701C377.662 162.716 377.686 162.727 377.712 162.732C377.738 162.738 377.765 162.738 377.792 162.733C377.818 162.728 377.842 162.717 377.865 162.702L380.016 161.366C380.042 161.35 380.063 161.33 380.08 161.306C380.097 161.281 380.109 161.254 380.114 161.225C380.12 161.196 380.119 161.166 380.112 161.137C380.105 161.108 380.092 161.081 380.074 161.058Z" fill="#464A5F"/>
<path d="M377.269 163.005L375.878 161.013C375.846 160.97 375.8 160.941 375.747 160.932C375.695 160.923 375.641 160.934 375.597 160.964L373.561 162.319C373.517 162.349 373.486 162.396 373.475 162.449C373.464 162.503 373.474 162.558 373.503 162.604L374.779 164.569C374.809 164.613 374.855 164.644 374.907 164.656C374.959 164.667 375.014 164.659 375.06 164.631L377.211 163.294C377.234 163.28 377.254 163.26 377.27 163.237C377.285 163.215 377.296 163.189 377.302 163.162C377.307 163.135 377.307 163.107 377.301 163.08C377.296 163.053 377.285 163.027 377.269 163.005Z" fill="#464A5F"/>
<path d="M374.13 165.183L372.739 163.209C372.707 163.166 372.661 163.137 372.608 163.128C372.556 163.119 372.502 163.13 372.458 163.16L370.422 164.533C370.4 164.548 370.38 164.567 370.365 164.589C370.35 164.612 370.34 164.637 370.334 164.663C370.329 164.69 370.329 164.717 370.334 164.744C370.339 164.77 370.35 164.795 370.365 164.818L371.64 166.783C371.67 166.827 371.716 166.858 371.768 166.87C371.82 166.881 371.875 166.873 371.921 166.845L374.072 165.509C374.101 165.494 374.126 165.474 374.145 165.448C374.165 165.422 374.178 165.392 374.183 165.361C374.189 165.329 374.187 165.296 374.178 165.266C374.169 165.235 374.152 165.207 374.13 165.183Z" fill="#464A5F"/>
<path d="M371.089 167.291L369.697 165.304C369.683 165.282 369.664 165.263 369.641 165.248C369.619 165.233 369.594 165.223 369.568 165.218C369.542 165.213 369.516 165.214 369.49 165.219C369.464 165.225 369.439 165.235 369.417 165.25L367.381 166.627C367.359 166.642 367.339 166.66 367.324 166.682C367.309 166.704 367.299 166.729 367.293 166.755C367.288 166.782 367.288 166.809 367.293 166.835C367.298 166.861 367.308 166.886 367.323 166.908L368.599 168.873C368.613 168.896 368.632 168.916 368.653 168.931C368.675 168.947 368.7 168.958 368.726 168.963C368.752 168.969 368.779 168.97 368.805 168.965C368.832 168.96 368.857 168.95 368.879 168.935L371.031 167.599C371.057 167.584 371.079 167.564 371.096 167.54C371.114 167.515 371.126 167.488 371.131 167.458C371.137 167.429 371.136 167.399 371.128 167.37C371.121 167.341 371.108 167.314 371.089 167.291Z" fill="#464A5F"/>
<path d="M368.047 169.403L366.656 167.411C366.625 167.368 366.578 167.339 366.526 167.33C366.473 167.321 366.42 167.333 366.376 167.362L364.34 168.735C364.295 168.766 364.264 168.813 364.253 168.866C364.242 168.919 364.253 168.974 364.282 169.02L365.558 170.985C365.588 171.029 365.633 171.06 365.685 171.072C365.738 171.084 365.792 171.075 365.838 171.047L367.99 169.711C368.016 169.696 368.038 169.676 368.055 169.652C368.072 169.627 368.084 169.6 368.09 169.57C368.095 169.541 368.094 169.511 368.087 169.482C368.08 169.453 368.066 169.426 368.047 169.403Z" fill="#464A5F"/>
<path d="M365.007 171.511L363.615 169.524C363.601 169.502 363.582 169.483 363.559 169.468C363.537 169.453 363.512 169.443 363.486 169.438C363.46 169.433 363.434 169.433 363.408 169.439C363.382 169.444 363.357 169.455 363.335 169.47L361.299 170.847C361.277 170.861 361.257 170.88 361.242 170.902C361.227 170.924 361.217 170.949 361.211 170.975C361.206 171.001 361.206 171.028 361.211 171.054C361.216 171.081 361.226 171.106 361.241 171.128L362.517 173.093C362.531 173.115 362.55 173.135 362.571 173.151C362.593 173.166 362.618 173.177 362.644 173.183C362.67 173.189 362.697 173.189 362.723 173.185C362.75 173.18 362.775 173.17 362.797 173.155L364.949 171.818C364.975 171.804 364.997 171.783 365.014 171.759C365.032 171.735 365.044 171.707 365.049 171.678C365.055 171.649 365.054 171.619 365.046 171.59C365.039 171.561 365.026 171.534 365.007 171.511Z" fill="#464A5F"/>
<path d="M396.711 144.941L395.59 143.337C395.523 143.245 395.424 143.182 395.312 143.162C395.201 143.141 395.086 143.164 394.99 143.226L393.332 144.348C393.239 144.414 393.175 144.513 393.152 144.625C393.13 144.737 393.151 144.853 393.212 144.95L394.234 146.532C394.298 146.627 394.396 146.694 394.508 146.719C394.62 146.744 394.737 146.725 394.835 146.665L396.586 145.56C396.635 145.528 396.677 145.486 396.71 145.438C396.743 145.389 396.765 145.334 396.777 145.277C396.789 145.219 396.789 145.16 396.777 145.102C396.766 145.045 396.743 144.99 396.711 144.941Z" fill="#464A5F"/>
<path d="M392.331 138.587L391.211 136.987C391.144 136.896 391.044 136.833 390.933 136.812C390.821 136.791 390.706 136.814 390.61 136.876L388.952 137.994C388.859 138.06 388.795 138.159 388.772 138.271C388.75 138.383 388.771 138.499 388.832 138.596L389.859 140.178C389.923 140.272 390.02 140.338 390.13 140.363C390.241 140.388 390.357 140.37 390.455 140.311L392.206 139.211C392.256 139.178 392.298 139.136 392.332 139.087C392.365 139.038 392.388 138.983 392.399 138.925C392.411 138.867 392.411 138.807 392.399 138.749C392.387 138.691 392.364 138.636 392.331 138.587Z" fill="#464A5F"/>
<path d="M393.727 146.995L392.607 145.387C392.54 145.295 392.441 145.232 392.329 145.212C392.217 145.191 392.102 145.214 392.007 145.275L390.349 146.394C390.255 146.46 390.191 146.559 390.169 146.671C390.146 146.782 390.168 146.899 390.229 146.995L391.256 148.577C391.319 148.671 391.416 148.738 391.527 148.763C391.638 148.787 391.754 148.769 391.851 148.711L393.603 147.61C393.7 147.545 393.768 147.444 393.791 147.328C393.815 147.213 393.792 147.094 393.727 146.995Z" fill="#464A5F"/>
<path d="M390.597 149.165L389.495 147.566C389.428 147.474 389.328 147.411 389.217 147.39C389.105 147.37 388.99 147.392 388.895 147.454L387.236 148.573C387.142 148.638 387.077 148.738 387.054 148.851C387.032 148.964 387.054 149.082 387.116 149.179L388.139 150.76C388.203 150.855 388.301 150.921 388.413 150.945C388.525 150.969 388.642 150.949 388.739 150.89L390.491 149.789C390.539 149.755 390.58 149.712 390.611 149.662C390.642 149.613 390.664 149.557 390.674 149.499C390.684 149.441 390.682 149.382 390.669 149.325C390.656 149.267 390.631 149.213 390.597 149.165Z" fill="#464A5F"/>
<path d="M387.432 151.366L386.311 149.762C386.244 149.669 386.144 149.605 386.031 149.584C385.919 149.564 385.802 149.587 385.707 149.65L384.053 150.773C383.959 150.838 383.894 150.937 383.871 151.049C383.847 151.161 383.868 151.278 383.928 151.375L384.955 152.957C385.019 153.052 385.117 153.119 385.229 153.144C385.34 153.169 385.458 153.15 385.556 153.09L387.307 151.985C387.356 151.953 387.398 151.911 387.431 151.862C387.463 151.814 387.486 151.759 387.498 151.702C387.509 151.644 387.51 151.585 387.498 151.527C387.487 151.469 387.464 151.415 387.432 151.366Z" fill="#464A5F"/>
<path d="M389.419 140.757L388.298 139.149C388.232 139.057 388.132 138.994 388.02 138.973C387.909 138.953 387.794 138.975 387.698 139.037L386.04 140.156C385.947 140.221 385.883 140.32 385.86 140.432C385.838 140.544 385.859 140.66 385.92 140.757L386.947 142.339C387.01 142.433 387.108 142.499 387.218 142.524C387.329 142.549 387.445 142.531 387.543 142.472L389.294 141.372C389.392 141.307 389.46 141.205 389.483 141.09C389.506 140.975 389.483 140.855 389.419 140.757Z" fill="#464A5F"/>
<path d="M386.289 142.931L385.169 141.327C385.102 141.235 385.002 141.173 384.891 141.152C384.779 141.131 384.664 141.154 384.569 141.216L382.91 142.339C382.816 142.404 382.751 142.503 382.728 142.614C382.705 142.726 382.726 142.843 382.786 142.94L383.813 144.522C383.876 144.617 383.974 144.685 384.086 144.71C384.198 144.734 384.315 144.715 384.413 144.656L386.165 143.551C386.213 143.518 386.255 143.477 386.288 143.428C386.321 143.379 386.344 143.324 386.355 143.267C386.367 143.209 386.367 143.15 386.356 143.092C386.344 143.035 386.322 142.98 386.289 142.931Z" fill="#464A5F"/>
<path d="M383.123 145.128L382.003 143.528C381.936 143.435 381.835 143.372 381.723 143.351C381.61 143.33 381.494 143.354 381.398 143.417L379.744 144.535C379.65 144.601 379.585 144.699 379.562 144.811C379.539 144.923 379.559 145.04 379.62 145.137L380.647 146.723C380.71 146.819 380.808 146.886 380.92 146.911C381.032 146.936 381.149 146.916 381.247 146.857L382.994 145.752C383.044 145.72 383.087 145.678 383.12 145.629C383.154 145.58 383.178 145.525 383.19 145.467C383.202 145.409 383.202 145.349 383.19 145.291C383.179 145.233 383.156 145.177 383.123 145.128Z" fill="#464A5F"/>
<path d="M384.262 153.563L383.141 151.963C383.074 151.871 382.975 151.808 382.863 151.788C382.752 151.767 382.636 151.79 382.541 151.852L380.883 152.961C380.79 153.027 380.725 153.126 380.703 153.238C380.681 153.35 380.702 153.466 380.763 153.563L381.79 155.144C381.853 155.239 381.95 155.305 382.061 155.33C382.172 155.355 382.288 155.336 382.385 155.278L384.137 154.173C384.233 154.108 384.3 154.007 384.324 153.893C384.347 153.779 384.325 153.66 384.262 153.563Z" fill="#464A5F"/>
<path d="M381.097 155.76L379.976 154.16C379.909 154.068 379.81 154.006 379.698 153.985C379.587 153.964 379.471 153.987 379.376 154.049L377.718 155.19C377.624 155.255 377.559 155.353 377.536 155.465C377.512 155.577 377.533 155.694 377.593 155.791L378.62 157.373C378.684 157.468 378.782 157.535 378.894 157.56C379.006 157.585 379.123 157.566 379.221 157.506L380.972 156.406C381.025 156.374 381.07 156.331 381.106 156.28C381.141 156.229 381.165 156.171 381.177 156.11C381.188 156.05 381.187 155.987 381.174 155.927C381.16 155.866 381.134 155.81 381.097 155.76Z" fill="#464A5F"/>
<path d="M378.069 158.156L376.678 156.169C376.663 156.147 376.644 156.128 376.622 156.113C376.6 156.099 376.575 156.089 376.549 156.084C376.523 156.079 376.496 156.079 376.47 156.084C376.444 156.09 376.419 156.101 376.397 156.116L374.379 157.492C374.357 157.507 374.337 157.526 374.322 157.548C374.307 157.57 374.297 157.595 374.291 157.621C374.286 157.647 374.286 157.674 374.291 157.7C374.296 157.726 374.306 157.751 374.321 157.773L375.597 159.738C375.611 159.761 375.63 159.781 375.652 159.796C375.673 159.812 375.698 159.823 375.724 159.829C375.75 159.835 375.777 159.835 375.804 159.83C375.83 159.825 375.855 159.815 375.877 159.801L378.029 158.464C378.053 158.447 378.073 158.426 378.088 158.401C378.103 158.376 378.113 158.348 378.117 158.319C378.121 158.29 378.118 158.261 378.11 158.233C378.102 158.205 378.088 158.179 378.069 158.156Z" fill="#464A5F"/>
<path d="M375.268 160.09L373.877 158.098C373.845 158.055 373.797 158.026 373.744 158.017C373.691 158.008 373.637 158.019 373.592 158.049L371.556 159.422C371.512 159.453 371.482 159.5 371.471 159.553C371.46 159.606 371.47 159.661 371.498 159.707L372.778 161.672C372.808 161.717 372.853 161.749 372.906 161.761C372.958 161.772 373.013 161.763 373.059 161.734L375.206 160.398C375.233 160.384 375.256 160.364 375.274 160.34C375.292 160.316 375.305 160.288 375.311 160.259C375.317 160.229 375.316 160.199 375.309 160.17C375.301 160.14 375.287 160.113 375.268 160.09Z" fill="#464A5F"/>
<path d="M372.125 162.283L370.733 160.291C370.702 160.248 370.655 160.219 370.603 160.21C370.551 160.201 370.497 160.213 370.453 160.242L368.417 161.615C368.372 161.645 368.341 161.692 368.33 161.746C368.32 161.799 368.33 161.854 368.359 161.9L369.635 163.865C369.665 163.909 369.711 163.94 369.763 163.952C369.815 163.963 369.869 163.955 369.915 163.927L372.067 162.591C372.094 162.577 372.118 162.557 372.136 162.533C372.154 162.509 372.166 162.481 372.172 162.451C372.178 162.421 372.176 162.391 372.168 162.362C372.16 162.332 372.145 162.306 372.125 162.283Z" fill="#464A5F"/>
<path d="M369.088 164.391L367.71 162.404C367.696 162.381 367.677 162.362 367.654 162.348C367.632 162.333 367.607 162.323 367.581 162.318C367.555 162.313 367.529 162.313 367.503 162.319C367.477 162.324 367.452 162.335 367.43 162.35L365.394 163.727C365.35 163.757 365.319 163.803 365.308 163.855C365.297 163.908 365.307 163.963 365.336 164.008L366.612 165.973C366.641 166.018 366.687 166.05 366.739 166.061C366.792 166.073 366.847 166.063 366.892 166.035L369.044 164.698C369.069 164.683 369.091 164.662 369.108 164.637C369.124 164.613 369.135 164.585 369.139 164.555C369.143 164.526 369.141 164.496 369.132 164.467C369.123 164.439 369.109 164.413 369.088 164.391Z" fill="#464A5F"/>
<path d="M388.512 146.154L387.396 144.55C387.329 144.457 387.228 144.393 387.116 144.373C387.003 144.352 386.887 144.375 386.791 144.439L385.133 145.561C385.04 145.627 384.975 145.726 384.953 145.838C384.931 145.95 384.952 146.066 385.013 146.163L386.04 147.745C386.104 147.839 386.202 147.906 386.314 147.93C386.426 147.954 386.542 147.934 386.64 147.874L388.387 146.773C388.436 146.741 388.478 146.699 388.511 146.651C388.543 146.602 388.566 146.547 388.578 146.49C388.589 146.432 388.589 146.373 388.578 146.315C388.567 146.258 388.544 146.203 388.512 146.154Z" fill="#464A5F"/>
<path d="M385.347 148.35L384.226 146.75C384.16 146.658 384.061 146.594 383.949 146.572C383.837 146.551 383.722 146.573 383.626 146.634L381.968 147.757C381.875 147.823 381.81 147.922 381.788 148.034C381.766 148.146 381.787 148.262 381.848 148.359L382.875 149.94C382.938 150.035 383.035 150.101 383.146 150.126C383.257 150.151 383.373 150.132 383.47 150.074L385.222 148.969C385.271 148.937 385.313 148.895 385.346 148.846C385.378 148.798 385.401 148.743 385.413 148.685C385.424 148.628 385.424 148.569 385.413 148.511C385.402 148.453 385.379 148.399 385.347 148.35Z" fill="#464A5F"/>
<path d="M382.181 150.546L381.047 148.951C380.98 148.858 380.88 148.795 380.767 148.774C380.655 148.753 380.538 148.777 380.443 148.84L378.824 149.954C378.73 150.019 378.665 150.118 378.642 150.23C378.619 150.342 378.64 150.458 378.7 150.555L379.727 152.137C379.79 152.233 379.888 152.3 380 152.325C380.112 152.35 380.229 152.33 380.327 152.271L382.079 151.17C382.126 151.136 382.167 151.093 382.198 151.043C382.229 150.993 382.25 150.938 382.259 150.88C382.269 150.822 382.267 150.762 382.253 150.705C382.24 150.648 382.215 150.594 382.181 150.546Z" fill="#464A5F"/>
<path d="M379.012 152.743L377.891 151.144C377.824 151.052 377.725 150.989 377.613 150.968C377.502 150.948 377.386 150.971 377.291 151.032L375.633 152.151C375.54 152.216 375.475 152.315 375.453 152.427C375.431 152.539 375.452 152.656 375.513 152.752L376.54 154.334C376.603 154.428 376.7 154.495 376.811 154.519C376.922 154.544 377.038 154.526 377.135 154.468L378.887 153.367C378.937 153.335 378.979 153.293 379.012 153.244C379.045 153.195 379.068 153.139 379.08 153.081C379.092 153.023 379.091 152.963 379.08 152.905C379.068 152.847 379.045 152.792 379.012 152.743Z" fill="#464A5F"/>
<path d="M375.988 155.14L374.596 153.153C374.581 153.131 374.562 153.112 374.539 153.097C374.517 153.082 374.492 153.072 374.465 153.067C374.439 153.062 374.412 153.062 374.385 153.068C374.359 153.073 374.334 153.084 374.312 153.099L372.276 154.476C372.231 154.506 372.201 154.552 372.19 154.605C372.179 154.657 372.189 154.712 372.218 154.757L373.494 156.726C373.509 156.749 373.528 156.768 373.55 156.784C373.573 156.799 373.598 156.809 373.624 156.815C373.651 156.82 373.678 156.82 373.704 156.815C373.731 156.81 373.756 156.799 373.778 156.784L375.926 155.448C375.952 155.433 375.975 155.413 375.992 155.389C376.01 155.365 376.022 155.338 376.028 155.308C376.034 155.279 376.034 155.249 376.027 155.22C376.02 155.191 376.007 155.164 375.988 155.14Z" fill="#464A5F"/>
<path d="M373.183 157.087L371.791 155.1C371.776 155.078 371.757 155.059 371.735 155.044C371.713 155.029 371.688 155.019 371.662 155.014C371.636 155.009 371.609 155.01 371.583 155.015C371.557 155.021 371.533 155.031 371.511 155.046L369.488 156.419C369.443 156.449 369.412 156.496 369.402 156.55C369.391 156.603 369.401 156.658 369.43 156.704L370.706 158.669C370.736 158.713 370.782 158.744 370.834 158.756C370.886 158.767 370.941 158.759 370.986 158.731L373.138 157.395C373.163 157.379 373.184 157.358 373.2 157.333C373.216 157.308 373.226 157.28 373.231 157.251C373.235 157.222 373.233 157.192 373.225 157.164C373.216 157.135 373.202 157.109 373.183 157.087Z" fill="#464A5F"/>
<path d="M370.044 159.266L368.652 157.274C368.62 157.231 368.573 157.202 368.52 157.192C368.467 157.183 368.412 157.195 368.367 157.225L366.336 158.598C366.291 158.628 366.26 158.675 366.249 158.728C366.239 158.782 366.249 158.837 366.278 158.883L367.554 160.848C367.583 160.893 367.629 160.925 367.681 160.936C367.734 160.948 367.788 160.939 367.834 160.91L369.986 159.573C370.012 159.559 370.034 159.538 370.051 159.514C370.068 159.49 370.08 159.462 370.086 159.433C370.091 159.404 370.09 159.374 370.083 159.345C370.076 159.316 370.062 159.289 370.044 159.266Z" fill="#464A5F"/>
<path d="M367.003 161.374L365.611 159.387C365.596 159.365 365.577 159.346 365.554 159.331C365.532 159.316 365.507 159.306 365.48 159.301C365.454 159.296 365.427 159.297 365.4 159.302C365.374 159.308 365.349 159.319 365.327 159.334L363.295 160.711C363.273 160.725 363.253 160.744 363.238 160.766C363.223 160.788 363.213 160.813 363.207 160.839C363.202 160.865 363.202 160.892 363.207 160.918C363.212 160.944 363.222 160.969 363.237 160.991L364.513 162.961C364.528 162.983 364.546 163.003 364.568 163.018C364.59 163.033 364.615 163.043 364.641 163.049C364.667 163.054 364.694 163.054 364.72 163.049C364.746 163.044 364.771 163.034 364.793 163.019L366.945 161.682C366.97 161.667 366.992 161.646 367.009 161.622C367.026 161.598 367.037 161.57 367.043 161.541C367.048 161.512 367.048 161.482 367.041 161.454C367.034 161.425 367.021 161.398 367.003 161.374Z" fill="#464A5F"/>
<path d="M366.047 166.503L364.655 164.511C364.623 164.468 364.576 164.439 364.523 164.43C364.47 164.421 364.416 164.432 364.371 164.462L362.335 165.835C362.29 165.866 362.259 165.913 362.248 165.966C362.238 166.019 362.248 166.074 362.277 166.12L363.553 168.085C363.583 168.129 363.628 168.16 363.681 168.172C363.733 168.184 363.787 168.175 363.833 168.147L365.985 166.811C366.012 166.797 366.035 166.777 366.053 166.753C366.071 166.729 366.084 166.701 366.09 166.672C366.096 166.642 366.095 166.612 366.088 166.583C366.08 166.553 366.066 166.526 366.047 166.503Z" fill="#464A5F"/>
<path d="M363.006 168.61L361.614 166.623C361.599 166.6 361.58 166.581 361.557 166.567C361.535 166.552 361.509 166.542 361.483 166.537C361.456 166.532 361.429 166.532 361.403 166.538C361.377 166.543 361.352 166.554 361.33 166.569L359.293 167.946C359.249 167.976 359.218 168.022 359.207 168.074C359.197 168.127 359.207 168.182 359.236 168.227L360.512 170.192C360.526 170.215 360.545 170.234 360.567 170.25C360.589 170.266 360.614 170.277 360.641 170.282C360.667 170.288 360.695 170.289 360.721 170.284C360.748 170.279 360.773 170.269 360.796 170.254L362.943 168.917C362.97 168.904 362.994 168.884 363.012 168.86C363.03 168.836 363.043 168.808 363.048 168.779C363.054 168.749 363.054 168.719 363.046 168.689C363.039 168.66 363.025 168.633 363.006 168.61Z" fill="#464A5F"/>
<path d="M367.777 155.987L366.465 154.111C366.423 154.053 366.36 154.014 366.29 154.001C366.219 153.989 366.147 154.004 366.087 154.045L364.153 155.341C364.094 155.382 364.053 155.444 364.039 155.515C364.024 155.586 364.039 155.659 364.078 155.72L365.278 157.574C365.318 157.634 365.38 157.676 365.451 157.691C365.521 157.706 365.595 157.693 365.656 157.654L367.683 156.375C367.716 156.357 367.744 156.332 367.767 156.302C367.79 156.272 367.806 156.238 367.815 156.202C367.823 156.165 367.825 156.127 367.818 156.09C367.812 156.054 367.797 156.018 367.777 155.987Z" fill="#464A5F"/>
<path d="M364.736 158.094L363.424 156.223C363.404 156.193 363.378 156.168 363.348 156.148C363.319 156.128 363.285 156.115 363.25 156.108C363.215 156.102 363.179 156.102 363.144 156.109C363.109 156.117 363.076 156.131 363.046 156.151L361.126 157.452C361.067 157.492 361.025 157.554 361.011 157.624C360.997 157.694 361.011 157.767 361.05 157.827L362.25 159.68C362.29 159.74 362.352 159.783 362.422 159.799C362.493 159.814 362.567 159.802 362.628 159.765L364.66 158.486C364.691 158.465 364.717 158.439 364.738 158.408C364.758 158.377 364.773 158.342 364.78 158.306C364.787 158.269 364.786 158.232 364.779 158.196C364.771 158.159 364.757 158.125 364.736 158.094Z" fill="#464A5F"/>
<path d="M361.695 160.207L360.361 158.331C360.32 158.273 360.258 158.234 360.188 158.221C360.118 158.209 360.046 158.224 359.988 158.264L358.063 159.561C358.003 159.601 357.962 159.664 357.948 159.735C357.934 159.805 357.948 159.879 357.987 159.939L359.187 161.793C359.227 161.853 359.289 161.895 359.36 161.91C359.431 161.925 359.504 161.912 359.565 161.873L361.597 160.594C361.63 160.576 361.659 160.552 361.682 160.522C361.705 160.493 361.722 160.458 361.731 160.422C361.74 160.386 361.741 160.348 361.735 160.311C361.729 160.274 361.715 160.238 361.695 160.207Z" fill="#464A5F"/>
<path d="M358.698 162.376L357.307 160.385C357.275 160.341 357.227 160.312 357.174 160.303C357.121 160.294 357.067 160.305 357.022 160.335L354.986 161.708C354.942 161.739 354.912 161.787 354.902 161.84C354.892 161.893 354.903 161.948 354.933 161.993L356.209 163.958C356.238 164.003 356.283 164.035 356.336 164.047C356.388 164.058 356.443 164.049 356.489 164.02L358.641 162.684C358.666 162.669 358.689 162.649 358.706 162.625C358.723 162.6 358.735 162.573 358.741 162.543C358.746 162.514 358.745 162.484 358.738 162.455C358.731 162.426 358.717 162.399 358.698 162.376Z" fill="#464A5F"/>
<path d="M394.683 141.822L393.496 140.103C393.428 140.01 393.328 139.948 393.215 139.928C393.102 139.908 392.987 139.932 392.891 139.996L388.161 143.297C388.07 143.364 388.007 143.462 387.986 143.573C387.964 143.684 387.986 143.799 388.045 143.894L389.183 145.65C389.216 145.699 389.258 145.74 389.307 145.773C389.356 145.805 389.41 145.827 389.468 145.839C389.525 145.85 389.584 145.849 389.641 145.838C389.699 145.826 389.753 145.803 389.801 145.77L394.572 142.424C394.663 142.357 394.726 142.257 394.747 142.145C394.767 142.034 394.745 141.918 394.683 141.822Z" fill="#464A5F"/>
<path d="M363.953 163.419L362.477 161.329C362.462 161.307 362.443 161.288 362.42 161.273C362.397 161.259 362.372 161.249 362.345 161.244C362.319 161.24 362.292 161.24 362.265 161.247C362.239 161.253 362.214 161.264 362.193 161.28L357.115 164.845C357.072 164.876 357.042 164.922 357.032 164.974C357.022 165.027 357.033 165.081 357.062 165.126L358.454 167.273C358.468 167.297 358.488 167.317 358.511 167.332C358.533 167.348 358.559 167.359 358.586 167.364C358.613 167.369 358.641 167.369 358.668 167.364C358.695 167.358 358.72 167.347 358.743 167.331L363.904 163.709C363.949 163.677 363.979 163.628 363.988 163.574C363.997 163.52 363.985 163.464 363.953 163.419Z" fill="#464A5F"/>
<path d="M380.105 147.437L378.771 145.454C378.74 145.409 378.693 145.378 378.64 145.367C378.587 145.357 378.532 145.367 378.486 145.396L367.216 153.015C367.194 153.03 367.174 153.049 367.159 153.071C367.144 153.093 367.134 153.118 367.128 153.144C367.123 153.17 367.123 153.197 367.128 153.223C367.133 153.249 367.143 153.274 367.158 153.296L368.545 155.435C368.56 155.458 368.579 155.478 368.602 155.494C368.625 155.509 368.65 155.52 368.677 155.526C368.704 155.531 368.732 155.531 368.759 155.525C368.786 155.52 368.812 155.509 368.834 155.493L380.073 147.722C380.115 147.688 380.141 147.639 380.147 147.586C380.153 147.533 380.138 147.479 380.105 147.437Z" fill="#464A5F"/>
<path opacity="0.1" d="M380.158 140.628L374.165 131.899C373.999 131.657 373.744 131.49 373.456 131.435C373.168 131.38 372.87 131.441 372.626 131.605L356.119 142.714C355.997 142.796 355.893 142.902 355.812 143.024C355.731 143.147 355.676 143.285 355.648 143.429C355.62 143.574 355.621 143.722 355.651 143.866C355.681 144.01 355.738 144.147 355.821 144.269L361.93 153.247C362.012 153.369 362.117 153.473 362.24 153.554C362.362 153.635 362.5 153.691 362.644 153.718C362.788 153.745 362.937 153.744 363.08 153.714C363.224 153.683 363.36 153.624 363.481 153.541L379.873 142.174C379.993 142.092 380.096 141.986 380.175 141.864C380.255 141.741 380.309 141.604 380.336 141.461C380.362 141.317 380.36 141.169 380.33 141.027C380.299 140.884 380.241 140.748 380.158 140.628Z" fill="black"/>
<path d="M380.434 140.681L374.441 131.952C374.275 131.711 374.02 131.545 373.732 131.49C373.444 131.435 373.146 131.495 372.903 131.658L356.417 142.775C356.295 142.857 356.19 142.962 356.109 143.085C356.027 143.207 355.971 143.345 355.942 143.49C355.914 143.634 355.915 143.783 355.945 143.927C355.974 144.072 356.032 144.209 356.115 144.331L362.206 153.3C362.288 153.422 362.394 153.526 362.516 153.607C362.639 153.688 362.776 153.744 362.921 153.771C363.065 153.799 363.213 153.797 363.357 153.767C363.5 153.736 363.637 153.677 363.758 153.594L380.158 142.227C380.278 142.144 380.38 142.038 380.458 141.915C380.537 141.792 380.591 141.655 380.616 141.512C380.642 141.368 380.639 141.221 380.608 141.078C380.576 140.936 380.517 140.801 380.434 140.681Z" fill="#939498"/>
<path d="M417.597 154.789L404.882 150.538L364.1 178.93L376.721 183.052C377.062 183.163 377.423 183.194 377.777 183.141C378.132 183.088 378.469 182.954 378.762 182.749L417.712 155.604C417.788 155.559 417.849 155.493 417.887 155.414C417.925 155.334 417.939 155.245 417.927 155.158C417.914 155.071 417.876 154.989 417.818 154.923C417.759 154.858 417.682 154.811 417.597 154.789Z" fill="#6C63FF"/>
</g>
<defs>
<clipPath id="clip0">
<rect width="482" height="338" fill="white"/>
</clipPath>
</defs>
</svg>
